G75*
%MOIN*%
%OFA0B0*%
%FSLAX25Y25*%
%IPPOS*%
%LPD*%
%AMOC8*
5,1,8,0,0,1.08239X$1,22.5*
%
%ADD10C,0.00600*%
%ADD11C,0.00300*%
%ADD12C,0.00800*%
%ADD13C,0.00400*%
%ADD14C,0.00500*%
%ADD15C,0.03000*%
%ADD16R,0.03000X0.02000*%
%ADD17R,0.03000X0.04000*%
%ADD18C,0.00200*%
D10*
X0040670Y0026063D02*
X0328072Y0026063D01*
X0328357Y0026066D01*
X0328643Y0026077D01*
X0328928Y0026094D01*
X0329212Y0026118D01*
X0329496Y0026149D01*
X0329779Y0026187D01*
X0330060Y0026232D01*
X0330341Y0026283D01*
X0330621Y0026341D01*
X0330899Y0026406D01*
X0331175Y0026478D01*
X0331449Y0026556D01*
X0331722Y0026641D01*
X0331992Y0026733D01*
X0332260Y0026831D01*
X0332526Y0026935D01*
X0332789Y0027046D01*
X0333049Y0027163D01*
X0333307Y0027286D01*
X0333561Y0027416D01*
X0333812Y0027552D01*
X0334060Y0027693D01*
X0334304Y0027841D01*
X0334545Y0027994D01*
X0334781Y0028154D01*
X0335014Y0028319D01*
X0335243Y0028489D01*
X0335468Y0028665D01*
X0335688Y0028847D01*
X0335904Y0029033D01*
X0336115Y0029225D01*
X0336322Y0029422D01*
X0336524Y0029624D01*
X0336721Y0029831D01*
X0336913Y0030042D01*
X0337099Y0030258D01*
X0337281Y0030478D01*
X0337457Y0030703D01*
X0337627Y0030932D01*
X0337792Y0031165D01*
X0337952Y0031401D01*
X0338105Y0031642D01*
X0338253Y0031886D01*
X0338394Y0032134D01*
X0338530Y0032385D01*
X0338660Y0032639D01*
X0338783Y0032897D01*
X0338900Y0033157D01*
X0339011Y0033420D01*
X0339115Y0033686D01*
X0339213Y0033954D01*
X0339305Y0034224D01*
X0339390Y0034497D01*
X0339468Y0034771D01*
X0339540Y0035047D01*
X0339605Y0035325D01*
X0339663Y0035605D01*
X0339714Y0035886D01*
X0339759Y0036167D01*
X0339797Y0036450D01*
X0339828Y0036734D01*
X0339852Y0037018D01*
X0339869Y0037303D01*
X0339880Y0037589D01*
X0339883Y0037874D01*
X0339883Y0234724D01*
X0339880Y0235009D01*
X0339869Y0235295D01*
X0339852Y0235580D01*
X0339828Y0235864D01*
X0339797Y0236148D01*
X0339759Y0236431D01*
X0339714Y0236712D01*
X0339663Y0236993D01*
X0339605Y0237273D01*
X0339540Y0237551D01*
X0339468Y0237827D01*
X0339390Y0238101D01*
X0339305Y0238374D01*
X0339213Y0238644D01*
X0339115Y0238912D01*
X0339011Y0239178D01*
X0338900Y0239441D01*
X0338783Y0239701D01*
X0338660Y0239959D01*
X0338530Y0240213D01*
X0338394Y0240464D01*
X0338253Y0240712D01*
X0338105Y0240956D01*
X0337952Y0241197D01*
X0337792Y0241433D01*
X0337627Y0241666D01*
X0337457Y0241895D01*
X0337281Y0242120D01*
X0337099Y0242340D01*
X0336913Y0242556D01*
X0336721Y0242767D01*
X0336524Y0242974D01*
X0336322Y0243176D01*
X0336115Y0243373D01*
X0335904Y0243565D01*
X0335688Y0243751D01*
X0335468Y0243933D01*
X0335243Y0244109D01*
X0335014Y0244279D01*
X0334781Y0244444D01*
X0334545Y0244604D01*
X0334304Y0244757D01*
X0334060Y0244905D01*
X0333812Y0245046D01*
X0333561Y0245182D01*
X0333307Y0245312D01*
X0333049Y0245435D01*
X0332789Y0245552D01*
X0332526Y0245663D01*
X0332260Y0245767D01*
X0331992Y0245865D01*
X0331722Y0245957D01*
X0331449Y0246042D01*
X0331175Y0246120D01*
X0330899Y0246192D01*
X0330621Y0246257D01*
X0330341Y0246315D01*
X0330060Y0246366D01*
X0329779Y0246411D01*
X0329496Y0246449D01*
X0329212Y0246480D01*
X0328928Y0246504D01*
X0328643Y0246521D01*
X0328357Y0246532D01*
X0328072Y0246535D01*
X0091851Y0246535D01*
X0091566Y0246532D01*
X0091280Y0246521D01*
X0090995Y0246504D01*
X0090711Y0246480D01*
X0090427Y0246449D01*
X0090144Y0246411D01*
X0089863Y0246366D01*
X0089582Y0246315D01*
X0089302Y0246257D01*
X0089024Y0246192D01*
X0088748Y0246120D01*
X0088474Y0246042D01*
X0088201Y0245957D01*
X0087931Y0245865D01*
X0087663Y0245767D01*
X0087397Y0245663D01*
X0087134Y0245552D01*
X0086874Y0245435D01*
X0086616Y0245312D01*
X0086362Y0245182D01*
X0086111Y0245046D01*
X0085863Y0244905D01*
X0085619Y0244757D01*
X0085378Y0244604D01*
X0085142Y0244444D01*
X0084909Y0244279D01*
X0084680Y0244109D01*
X0084455Y0243933D01*
X0084235Y0243751D01*
X0084019Y0243565D01*
X0083808Y0243373D01*
X0083601Y0243176D01*
X0083399Y0242974D01*
X0083202Y0242767D01*
X0083010Y0242556D01*
X0082824Y0242340D01*
X0082642Y0242120D01*
X0082466Y0241895D01*
X0082296Y0241666D01*
X0082131Y0241433D01*
X0081971Y0241197D01*
X0081818Y0240956D01*
X0081670Y0240712D01*
X0081529Y0240464D01*
X0081393Y0240213D01*
X0081263Y0239959D01*
X0081140Y0239701D01*
X0081023Y0239441D01*
X0080912Y0239178D01*
X0080808Y0238912D01*
X0080710Y0238644D01*
X0080618Y0238374D01*
X0080533Y0238101D01*
X0080455Y0237827D01*
X0080383Y0237551D01*
X0080318Y0237273D01*
X0080260Y0236993D01*
X0080209Y0236712D01*
X0080164Y0236431D01*
X0080126Y0236148D01*
X0080095Y0235864D01*
X0080071Y0235580D01*
X0080054Y0235295D01*
X0080043Y0235009D01*
X0080040Y0234724D01*
X0080040Y0179606D01*
X0080029Y0178655D01*
X0079994Y0177704D01*
X0079937Y0176754D01*
X0079856Y0175806D01*
X0079753Y0174860D01*
X0079627Y0173917D01*
X0079478Y0172978D01*
X0079307Y0172042D01*
X0079112Y0171111D01*
X0078896Y0170184D01*
X0078657Y0169263D01*
X0078396Y0168348D01*
X0078113Y0167440D01*
X0077808Y0166539D01*
X0077482Y0165645D01*
X0077133Y0164760D01*
X0076764Y0163883D01*
X0076374Y0163015D01*
X0075962Y0162158D01*
X0075530Y0161310D01*
X0075078Y0160473D01*
X0074606Y0159647D01*
X0074114Y0158833D01*
X0073602Y0158031D01*
X0073071Y0157241D01*
X0072521Y0156465D01*
X0071953Y0155702D01*
X0071366Y0154953D01*
X0070761Y0154219D01*
X0070139Y0153499D01*
X0069499Y0152794D01*
X0068843Y0152106D01*
X0068170Y0151433D01*
X0067482Y0150777D01*
X0066777Y0150137D01*
X0066057Y0149515D01*
X0065323Y0148910D01*
X0064574Y0148323D01*
X0063811Y0147755D01*
X0063035Y0147205D01*
X0062245Y0146674D01*
X0061443Y0146162D01*
X0060629Y0145670D01*
X0059803Y0145198D01*
X0058966Y0144746D01*
X0058118Y0144314D01*
X0057261Y0143902D01*
X0056393Y0143512D01*
X0055516Y0143143D01*
X0054631Y0142794D01*
X0053737Y0142468D01*
X0052836Y0142163D01*
X0051928Y0141880D01*
X0051013Y0141619D01*
X0050092Y0141380D01*
X0049165Y0141164D01*
X0048234Y0140969D01*
X0047298Y0140798D01*
X0046359Y0140649D01*
X0045416Y0140523D01*
X0044470Y0140420D01*
X0043522Y0140339D01*
X0042572Y0140282D01*
X0041621Y0140247D01*
X0040670Y0140236D01*
X0039814Y0140226D01*
X0038958Y0140195D01*
X0038103Y0140143D01*
X0037250Y0140071D01*
X0036399Y0139978D01*
X0035550Y0139864D01*
X0034705Y0139730D01*
X0033862Y0139576D01*
X0033024Y0139401D01*
X0032190Y0139206D01*
X0031361Y0138991D01*
X0030538Y0138757D01*
X0029721Y0138502D01*
X0028910Y0138227D01*
X0028105Y0137933D01*
X0027308Y0137620D01*
X0026519Y0137288D01*
X0025738Y0136936D01*
X0024966Y0136566D01*
X0024203Y0136177D01*
X0023450Y0135770D01*
X0022707Y0135345D01*
X0021974Y0134902D01*
X0021252Y0134442D01*
X0020542Y0133964D01*
X0019843Y0133469D01*
X0019156Y0132957D01*
X0018482Y0132429D01*
X0017821Y0131885D01*
X0017174Y0131325D01*
X0016540Y0130749D01*
X0015920Y0130159D01*
X0015314Y0129553D01*
X0014724Y0128933D01*
X0014148Y0128299D01*
X0013588Y0127652D01*
X0013044Y0126991D01*
X0012516Y0126317D01*
X0012004Y0125630D01*
X0011509Y0124931D01*
X0011031Y0124221D01*
X0010571Y0123499D01*
X0010128Y0122766D01*
X0009703Y0122023D01*
X0009296Y0121270D01*
X0008907Y0120507D01*
X0008537Y0119735D01*
X0008185Y0118954D01*
X0007853Y0118165D01*
X0007540Y0117368D01*
X0007246Y0116563D01*
X0006971Y0115752D01*
X0006716Y0114935D01*
X0006482Y0114112D01*
X0006267Y0113283D01*
X0006072Y0112449D01*
X0005897Y0111611D01*
X0005743Y0110768D01*
X0005609Y0109923D01*
X0005495Y0109074D01*
X0005402Y0108223D01*
X0005330Y0107370D01*
X0005278Y0106515D01*
X0005247Y0105659D01*
X0005237Y0104803D01*
X0005237Y0061496D01*
X0005247Y0060640D01*
X0005278Y0059784D01*
X0005330Y0058929D01*
X0005402Y0058076D01*
X0005495Y0057225D01*
X0005609Y0056376D01*
X0005743Y0055531D01*
X0005897Y0054688D01*
X0006072Y0053850D01*
X0006267Y0053016D01*
X0006482Y0052187D01*
X0006716Y0051364D01*
X0006971Y0050547D01*
X0007246Y0049736D01*
X0007540Y0048931D01*
X0007853Y0048134D01*
X0008185Y0047345D01*
X0008537Y0046564D01*
X0008907Y0045792D01*
X0009296Y0045029D01*
X0009703Y0044276D01*
X0010128Y0043533D01*
X0010571Y0042800D01*
X0011031Y0042078D01*
X0011509Y0041368D01*
X0012004Y0040669D01*
X0012516Y0039982D01*
X0013044Y0039308D01*
X0013588Y0038647D01*
X0014148Y0038000D01*
X0014724Y0037366D01*
X0015314Y0036746D01*
X0015920Y0036140D01*
X0016540Y0035550D01*
X0017174Y0034974D01*
X0017821Y0034414D01*
X0018482Y0033870D01*
X0019156Y0033342D01*
X0019843Y0032830D01*
X0020542Y0032335D01*
X0021252Y0031857D01*
X0021974Y0031397D01*
X0022707Y0030954D01*
X0023450Y0030529D01*
X0024203Y0030122D01*
X0024966Y0029733D01*
X0025738Y0029363D01*
X0026519Y0029011D01*
X0027308Y0028679D01*
X0028105Y0028366D01*
X0028910Y0028072D01*
X0029721Y0027797D01*
X0030538Y0027542D01*
X0031361Y0027308D01*
X0032190Y0027093D01*
X0033024Y0026898D01*
X0033862Y0026723D01*
X0034705Y0026569D01*
X0035550Y0026435D01*
X0036399Y0026321D01*
X0037250Y0026228D01*
X0038103Y0026156D01*
X0038958Y0026104D01*
X0039814Y0026073D01*
X0040670Y0026063D01*
X0117127Y0027500D02*
X0127127Y0027500D01*
X0137127Y0027500D01*
X0147127Y0027500D01*
X0157127Y0027500D01*
X0157127Y0037500D01*
X0147127Y0037500D01*
X0137127Y0037500D01*
X0127127Y0037500D01*
X0117127Y0037500D01*
X0117127Y0027500D01*
X0127127Y0027500D02*
X0127127Y0037500D01*
X0137127Y0037500D02*
X0137127Y0027500D01*
X0147127Y0027500D02*
X0147127Y0037500D01*
X0147461Y0222756D02*
X0142461Y0222756D01*
X0139961Y0225256D01*
X0139961Y0240256D01*
X0142461Y0242756D01*
X0147461Y0242756D01*
X0149961Y0240256D01*
X0149961Y0225256D01*
X0152461Y0222756D01*
X0157461Y0222756D01*
X0159961Y0225256D01*
X0159961Y0240256D01*
X0162461Y0242756D01*
X0167461Y0242756D01*
X0169961Y0240256D01*
X0169961Y0225256D01*
X0172461Y0222756D01*
X0177461Y0222756D01*
X0179961Y0225256D01*
X0179961Y0240256D01*
X0182461Y0242756D01*
X0187461Y0242756D01*
X0189961Y0240256D01*
X0189961Y0225256D01*
X0187461Y0222756D01*
X0182461Y0222756D01*
X0179961Y0225256D01*
X0169961Y0225256D02*
X0167461Y0222756D01*
X0162461Y0222756D01*
X0159961Y0225256D01*
X0149961Y0225256D02*
X0147461Y0222756D01*
X0139961Y0225256D02*
X0137461Y0222756D01*
X0132461Y0222756D01*
X0129961Y0225256D01*
X0129961Y0240256D01*
X0132461Y0242756D01*
X0137461Y0242756D01*
X0139961Y0240256D01*
X0129961Y0240256D02*
X0127461Y0242756D01*
X0122461Y0242756D01*
X0119961Y0240256D01*
X0119961Y0225256D01*
X0122461Y0222756D01*
X0127461Y0222756D01*
X0129961Y0225256D01*
X0119961Y0225256D02*
X0117461Y0222756D01*
X0112461Y0222756D01*
X0109961Y0225256D01*
X0109961Y0240256D01*
X0112461Y0242756D01*
X0117461Y0242756D01*
X0119961Y0240256D01*
X0149961Y0240256D02*
X0152461Y0242756D01*
X0157461Y0242756D01*
X0159961Y0240256D01*
X0169961Y0240256D02*
X0172461Y0242756D01*
X0177461Y0242756D01*
X0179961Y0240256D01*
X0189961Y0240256D02*
X0192461Y0242756D01*
X0197461Y0242756D01*
X0199961Y0240256D01*
X0199961Y0225256D01*
X0197461Y0222756D01*
X0192461Y0222756D01*
X0189961Y0225256D01*
X0199961Y0225256D02*
X0202461Y0222756D01*
X0207461Y0222756D01*
X0209961Y0225256D01*
X0209961Y0240256D01*
X0212461Y0242756D01*
X0217461Y0242756D01*
X0219961Y0240256D01*
X0219961Y0225256D01*
X0217461Y0222756D01*
X0212461Y0222756D01*
X0209961Y0225256D01*
X0219961Y0225256D02*
X0222461Y0222756D01*
X0227461Y0222756D01*
X0229961Y0225256D01*
X0229961Y0240256D01*
X0232461Y0242756D01*
X0237461Y0242756D01*
X0239961Y0240256D01*
X0239961Y0225256D01*
X0237461Y0222756D01*
X0232461Y0222756D01*
X0229961Y0225256D01*
X0239961Y0225256D02*
X0242461Y0222756D01*
X0247461Y0222756D01*
X0249961Y0225256D01*
X0249961Y0240256D01*
X0252461Y0242756D01*
X0257461Y0242756D01*
X0259961Y0240256D01*
X0259961Y0225256D01*
X0257461Y0222756D01*
X0252461Y0222756D01*
X0249961Y0225256D01*
X0259961Y0225256D02*
X0262461Y0222756D01*
X0267461Y0222756D01*
X0269961Y0225256D01*
X0269961Y0240256D01*
X0272461Y0242756D01*
X0277461Y0242756D01*
X0279961Y0240256D01*
X0279961Y0225256D01*
X0277461Y0222756D01*
X0272461Y0222756D01*
X0269961Y0225256D01*
X0279961Y0225256D02*
X0282461Y0222756D01*
X0287461Y0222756D01*
X0289961Y0225256D01*
X0289961Y0240256D01*
X0292461Y0242756D01*
X0297461Y0242756D01*
X0299961Y0240256D01*
X0302461Y0242756D01*
X0307461Y0242756D01*
X0309961Y0240256D01*
X0309961Y0225256D01*
X0307461Y0222756D01*
X0302461Y0222756D01*
X0299961Y0225256D01*
X0299961Y0240256D01*
X0289961Y0240256D02*
X0287461Y0242756D01*
X0282461Y0242756D01*
X0279961Y0240256D01*
X0269961Y0240256D02*
X0267461Y0242756D01*
X0262461Y0242756D01*
X0259961Y0240256D01*
X0249961Y0240256D02*
X0247461Y0242756D01*
X0242461Y0242756D01*
X0239961Y0240256D01*
X0229961Y0240256D02*
X0227461Y0242756D01*
X0222461Y0242756D01*
X0219961Y0240256D01*
X0209961Y0240256D02*
X0207461Y0242756D01*
X0202461Y0242756D01*
X0199961Y0240256D01*
X0289961Y0225256D02*
X0292461Y0222756D01*
X0297461Y0222756D01*
X0299961Y0225256D01*
D11*
X0172149Y0175570D02*
X0171182Y0175570D01*
X0170062Y0175570D02*
X0169417Y0175570D01*
X0169417Y0175569D02*
X0169366Y0175567D01*
X0169316Y0175561D01*
X0169267Y0175551D01*
X0169218Y0175537D01*
X0169171Y0175520D01*
X0169125Y0175499D01*
X0169081Y0175474D01*
X0169038Y0175446D01*
X0168999Y0175415D01*
X0168962Y0175380D01*
X0168927Y0175343D01*
X0168896Y0175304D01*
X0168868Y0175261D01*
X0168843Y0175217D01*
X0168822Y0175171D01*
X0168805Y0175124D01*
X0168791Y0175075D01*
X0168781Y0175026D01*
X0168775Y0174976D01*
X0168773Y0174925D01*
X0168773Y0173314D01*
X0168775Y0173266D01*
X0168780Y0173218D01*
X0168789Y0173171D01*
X0168802Y0173124D01*
X0168818Y0173079D01*
X0168837Y0173035D01*
X0168859Y0172992D01*
X0168885Y0172951D01*
X0168914Y0172912D01*
X0168945Y0172876D01*
X0168979Y0172842D01*
X0169015Y0172811D01*
X0169054Y0172782D01*
X0169095Y0172756D01*
X0169138Y0172734D01*
X0169182Y0172715D01*
X0169227Y0172699D01*
X0169274Y0172686D01*
X0169321Y0172677D01*
X0169369Y0172672D01*
X0169417Y0172670D01*
X0170062Y0172670D01*
X0171182Y0172670D02*
X0171987Y0172670D01*
X0171987Y0172669D02*
X0172042Y0172671D01*
X0172097Y0172677D01*
X0172151Y0172686D01*
X0172204Y0172699D01*
X0172257Y0172716D01*
X0172308Y0172736D01*
X0172358Y0172759D01*
X0172406Y0172786D01*
X0172452Y0172817D01*
X0172496Y0172850D01*
X0172537Y0172886D01*
X0172576Y0172925D01*
X0172612Y0172966D01*
X0172645Y0173010D01*
X0172676Y0173056D01*
X0172703Y0173104D01*
X0172726Y0173154D01*
X0172746Y0173205D01*
X0172763Y0173258D01*
X0172776Y0173311D01*
X0172785Y0173365D01*
X0172791Y0173420D01*
X0172793Y0173475D01*
X0172791Y0173530D01*
X0172785Y0173585D01*
X0172776Y0173639D01*
X0172763Y0173692D01*
X0172746Y0173745D01*
X0172726Y0173796D01*
X0172703Y0173846D01*
X0172676Y0173894D01*
X0172645Y0173940D01*
X0172612Y0173984D01*
X0172576Y0174025D01*
X0172537Y0174064D01*
X0172496Y0174100D01*
X0172452Y0174133D01*
X0172406Y0174164D01*
X0172358Y0174191D01*
X0172308Y0174214D01*
X0172257Y0174234D01*
X0172204Y0174251D01*
X0172151Y0174264D01*
X0172097Y0174273D01*
X0172042Y0174279D01*
X0171987Y0174281D01*
X0172149Y0174281D02*
X0171504Y0174281D01*
X0172149Y0174281D02*
X0172198Y0174283D01*
X0172247Y0174289D01*
X0172296Y0174298D01*
X0172343Y0174311D01*
X0172390Y0174328D01*
X0172435Y0174348D01*
X0172478Y0174371D01*
X0172520Y0174398D01*
X0172559Y0174428D01*
X0172596Y0174461D01*
X0172630Y0174497D01*
X0172661Y0174535D01*
X0172690Y0174575D01*
X0172715Y0174617D01*
X0172737Y0174662D01*
X0172755Y0174707D01*
X0172770Y0174754D01*
X0172781Y0174802D01*
X0172789Y0174851D01*
X0172793Y0174900D01*
X0172793Y0174950D01*
X0172789Y0174999D01*
X0172781Y0175048D01*
X0172770Y0175096D01*
X0172755Y0175143D01*
X0172737Y0175188D01*
X0172715Y0175233D01*
X0172690Y0175275D01*
X0172661Y0175315D01*
X0172630Y0175353D01*
X0172596Y0175389D01*
X0172559Y0175422D01*
X0172520Y0175452D01*
X0172478Y0175479D01*
X0172435Y0175502D01*
X0172390Y0175522D01*
X0172343Y0175539D01*
X0172296Y0175552D01*
X0172247Y0175561D01*
X0172198Y0175567D01*
X0172149Y0175569D01*
X0161189Y0156152D02*
X0161189Y0155946D01*
X0161190Y0155946D02*
X0161188Y0155898D01*
X0161182Y0155849D01*
X0161173Y0155802D01*
X0161160Y0155755D01*
X0161143Y0155710D01*
X0161123Y0155666D01*
X0161099Y0155624D01*
X0161072Y0155583D01*
X0161042Y0155545D01*
X0161009Y0155510D01*
X0160974Y0155477D01*
X0160936Y0155447D01*
X0160895Y0155420D01*
X0160853Y0155396D01*
X0160809Y0155376D01*
X0160764Y0155359D01*
X0160717Y0155346D01*
X0160670Y0155337D01*
X0160621Y0155331D01*
X0160573Y0155329D01*
X0157489Y0155329D01*
X0158723Y0154918D02*
X0158723Y0156152D01*
X0161190Y0153231D02*
X0161186Y0153116D01*
X0161179Y0153001D01*
X0161168Y0152886D01*
X0161153Y0152771D01*
X0161134Y0152657D01*
X0161111Y0152544D01*
X0161085Y0152432D01*
X0161055Y0152320D01*
X0161021Y0152210D01*
X0160984Y0152101D01*
X0158723Y0152615D02*
X0158727Y0152711D01*
X0158734Y0152806D01*
X0158745Y0152901D01*
X0158760Y0152995D01*
X0158779Y0153088D01*
X0158801Y0153181D01*
X0158828Y0153273D01*
X0158858Y0153363D01*
X0158891Y0153452D01*
X0158929Y0153540D01*
X0158723Y0152615D02*
X0158724Y0152570D01*
X0158729Y0152525D01*
X0158738Y0152481D01*
X0158750Y0152438D01*
X0158766Y0152396D01*
X0158786Y0152356D01*
X0158809Y0152317D01*
X0158834Y0152281D01*
X0158863Y0152247D01*
X0158895Y0152215D01*
X0158929Y0152186D01*
X0158966Y0152160D01*
X0159004Y0152137D01*
X0159045Y0152118D01*
X0159087Y0152102D01*
X0159130Y0152089D01*
X0159174Y0152080D01*
X0159218Y0152075D01*
X0159263Y0152074D01*
X0159308Y0152077D01*
X0159352Y0152083D01*
X0159396Y0152093D01*
X0159438Y0152106D01*
X0159480Y0152123D01*
X0159520Y0152144D01*
X0159558Y0152168D01*
X0159593Y0152194D01*
X0159627Y0152224D01*
X0159658Y0152257D01*
X0159686Y0152292D01*
X0159711Y0152329D01*
X0159732Y0152368D01*
X0159751Y0152409D01*
X0159750Y0152409D02*
X0160162Y0153437D01*
X0160161Y0153437D02*
X0160180Y0153478D01*
X0160201Y0153517D01*
X0160226Y0153554D01*
X0160254Y0153589D01*
X0160285Y0153622D01*
X0160319Y0153652D01*
X0160354Y0153678D01*
X0160392Y0153702D01*
X0160432Y0153723D01*
X0160474Y0153740D01*
X0160516Y0153753D01*
X0160560Y0153763D01*
X0160604Y0153769D01*
X0160649Y0153772D01*
X0160694Y0153771D01*
X0160738Y0153766D01*
X0160782Y0153757D01*
X0160825Y0153744D01*
X0160867Y0153728D01*
X0160908Y0153709D01*
X0160946Y0153686D01*
X0160983Y0153660D01*
X0161017Y0153631D01*
X0161049Y0153599D01*
X0161078Y0153565D01*
X0161103Y0153529D01*
X0161126Y0153490D01*
X0161146Y0153450D01*
X0161162Y0153408D01*
X0161174Y0153365D01*
X0161183Y0153321D01*
X0161188Y0153276D01*
X0161189Y0153231D01*
X0160367Y0150625D02*
X0159545Y0150625D01*
X0159489Y0150623D01*
X0159433Y0150617D01*
X0159378Y0150608D01*
X0159323Y0150595D01*
X0159270Y0150578D01*
X0159218Y0150557D01*
X0159167Y0150533D01*
X0159118Y0150505D01*
X0159071Y0150475D01*
X0159026Y0150441D01*
X0158984Y0150404D01*
X0158944Y0150364D01*
X0158907Y0150322D01*
X0158873Y0150277D01*
X0158843Y0150230D01*
X0158815Y0150181D01*
X0158791Y0150130D01*
X0158770Y0150078D01*
X0158753Y0150025D01*
X0158740Y0149970D01*
X0158731Y0149915D01*
X0158725Y0149859D01*
X0158723Y0149803D01*
X0158725Y0149747D01*
X0158731Y0149691D01*
X0158740Y0149636D01*
X0158753Y0149581D01*
X0158770Y0149528D01*
X0158791Y0149476D01*
X0158815Y0149425D01*
X0158843Y0149376D01*
X0158873Y0149329D01*
X0158907Y0149284D01*
X0158944Y0149242D01*
X0158984Y0149202D01*
X0159026Y0149165D01*
X0159071Y0149131D01*
X0159118Y0149101D01*
X0159167Y0149073D01*
X0159218Y0149049D01*
X0159270Y0149028D01*
X0159323Y0149011D01*
X0159378Y0148998D01*
X0159433Y0148989D01*
X0159489Y0148983D01*
X0159545Y0148981D01*
X0160367Y0148981D01*
X0160423Y0148983D01*
X0160479Y0148989D01*
X0160534Y0148998D01*
X0160589Y0149011D01*
X0160642Y0149028D01*
X0160694Y0149049D01*
X0160745Y0149073D01*
X0160794Y0149101D01*
X0160841Y0149131D01*
X0160886Y0149165D01*
X0160928Y0149202D01*
X0160968Y0149242D01*
X0161005Y0149284D01*
X0161039Y0149329D01*
X0161069Y0149376D01*
X0161097Y0149425D01*
X0161121Y0149476D01*
X0161142Y0149528D01*
X0161159Y0149581D01*
X0161172Y0149636D01*
X0161181Y0149691D01*
X0161187Y0149747D01*
X0161189Y0149803D01*
X0161187Y0149859D01*
X0161181Y0149915D01*
X0161172Y0149970D01*
X0161159Y0150025D01*
X0161142Y0150078D01*
X0161121Y0150130D01*
X0161097Y0150181D01*
X0161069Y0150230D01*
X0161039Y0150277D01*
X0161005Y0150322D01*
X0160968Y0150364D01*
X0160928Y0150404D01*
X0160886Y0150441D01*
X0160841Y0150475D01*
X0160794Y0150505D01*
X0160745Y0150533D01*
X0160694Y0150557D01*
X0160642Y0150578D01*
X0160589Y0150595D01*
X0160534Y0150608D01*
X0160479Y0150617D01*
X0160423Y0150623D01*
X0160367Y0150625D01*
X0160367Y0147505D02*
X0159545Y0147505D01*
X0159489Y0147503D01*
X0159433Y0147497D01*
X0159378Y0147488D01*
X0159323Y0147475D01*
X0159270Y0147458D01*
X0159218Y0147437D01*
X0159167Y0147413D01*
X0159118Y0147385D01*
X0159071Y0147355D01*
X0159026Y0147321D01*
X0158984Y0147284D01*
X0158944Y0147244D01*
X0158907Y0147202D01*
X0158873Y0147157D01*
X0158843Y0147110D01*
X0158815Y0147061D01*
X0158791Y0147010D01*
X0158770Y0146958D01*
X0158753Y0146905D01*
X0158740Y0146850D01*
X0158731Y0146795D01*
X0158725Y0146739D01*
X0158723Y0146683D01*
X0158725Y0146627D01*
X0158731Y0146571D01*
X0158740Y0146516D01*
X0158753Y0146461D01*
X0158770Y0146408D01*
X0158791Y0146356D01*
X0158815Y0146305D01*
X0158843Y0146256D01*
X0158873Y0146209D01*
X0158907Y0146164D01*
X0158944Y0146122D01*
X0158984Y0146082D01*
X0159026Y0146045D01*
X0159071Y0146011D01*
X0159118Y0145981D01*
X0159167Y0145953D01*
X0159218Y0145929D01*
X0159270Y0145908D01*
X0159323Y0145891D01*
X0159378Y0145878D01*
X0159433Y0145869D01*
X0159489Y0145863D01*
X0159545Y0145861D01*
X0160367Y0145861D01*
X0160423Y0145863D01*
X0160479Y0145869D01*
X0160534Y0145878D01*
X0160589Y0145891D01*
X0160642Y0145908D01*
X0160694Y0145929D01*
X0160745Y0145953D01*
X0160794Y0145981D01*
X0160841Y0146011D01*
X0160886Y0146045D01*
X0160928Y0146082D01*
X0160968Y0146122D01*
X0161005Y0146164D01*
X0161039Y0146209D01*
X0161069Y0146256D01*
X0161097Y0146305D01*
X0161121Y0146356D01*
X0161142Y0146408D01*
X0161159Y0146461D01*
X0161172Y0146516D01*
X0161181Y0146571D01*
X0161187Y0146627D01*
X0161189Y0146683D01*
X0161187Y0146739D01*
X0161181Y0146795D01*
X0161172Y0146850D01*
X0161159Y0146905D01*
X0161142Y0146958D01*
X0161121Y0147010D01*
X0161097Y0147061D01*
X0161069Y0147110D01*
X0161039Y0147157D01*
X0161005Y0147202D01*
X0160968Y0147244D01*
X0160928Y0147284D01*
X0160886Y0147321D01*
X0160841Y0147355D01*
X0160794Y0147385D01*
X0160745Y0147413D01*
X0160694Y0147437D01*
X0160642Y0147458D01*
X0160589Y0147475D01*
X0160534Y0147488D01*
X0160479Y0147497D01*
X0160423Y0147503D01*
X0160367Y0147505D01*
X0161190Y0143495D02*
X0161188Y0143558D01*
X0161182Y0143621D01*
X0161172Y0143684D01*
X0161159Y0143746D01*
X0161142Y0143807D01*
X0161121Y0143866D01*
X0161096Y0143925D01*
X0161068Y0143981D01*
X0161036Y0144036D01*
X0161001Y0144089D01*
X0160963Y0144139D01*
X0160922Y0144188D01*
X0160878Y0144233D01*
X0160831Y0144276D01*
X0160782Y0144315D01*
X0160730Y0144352D01*
X0160676Y0144385D01*
X0160620Y0144415D01*
X0160563Y0144442D01*
X0160504Y0144465D01*
X0160443Y0144484D01*
X0160382Y0144499D01*
X0160320Y0144511D01*
X0160257Y0144519D01*
X0160194Y0144523D01*
X0160130Y0144523D01*
X0160067Y0144519D01*
X0160004Y0144511D01*
X0159942Y0144499D01*
X0159881Y0144484D01*
X0159820Y0144465D01*
X0159761Y0144442D01*
X0159704Y0144415D01*
X0159648Y0144385D01*
X0159594Y0144352D01*
X0159542Y0144315D01*
X0159493Y0144276D01*
X0159446Y0144233D01*
X0159402Y0144188D01*
X0159361Y0144139D01*
X0159323Y0144089D01*
X0159288Y0144036D01*
X0159256Y0143981D01*
X0159228Y0143925D01*
X0159203Y0143866D01*
X0159182Y0143807D01*
X0159165Y0143746D01*
X0159152Y0143684D01*
X0159142Y0143621D01*
X0159136Y0143558D01*
X0159134Y0143495D01*
X0159134Y0142467D01*
X0159134Y0143495D02*
X0159132Y0143551D01*
X0159126Y0143607D01*
X0159117Y0143662D01*
X0159104Y0143717D01*
X0159087Y0143770D01*
X0159066Y0143822D01*
X0159042Y0143873D01*
X0159014Y0143922D01*
X0158984Y0143969D01*
X0158950Y0144014D01*
X0158913Y0144056D01*
X0158873Y0144096D01*
X0158831Y0144133D01*
X0158786Y0144167D01*
X0158739Y0144197D01*
X0158690Y0144225D01*
X0158639Y0144249D01*
X0158587Y0144270D01*
X0158534Y0144287D01*
X0158479Y0144300D01*
X0158424Y0144309D01*
X0158368Y0144315D01*
X0158312Y0144317D01*
X0158256Y0144315D01*
X0158200Y0144309D01*
X0158145Y0144300D01*
X0158090Y0144287D01*
X0158037Y0144270D01*
X0157985Y0144249D01*
X0157934Y0144225D01*
X0157885Y0144197D01*
X0157838Y0144167D01*
X0157793Y0144133D01*
X0157751Y0144096D01*
X0157711Y0144056D01*
X0157674Y0144014D01*
X0157640Y0143969D01*
X0157610Y0143922D01*
X0157582Y0143873D01*
X0157558Y0143822D01*
X0157537Y0143770D01*
X0157520Y0143717D01*
X0157507Y0143662D01*
X0157498Y0143607D01*
X0157492Y0143551D01*
X0157490Y0143495D01*
X0157489Y0143495D02*
X0157489Y0142467D01*
X0161189Y0142467D01*
X0161189Y0143495D01*
X0161600Y0140905D02*
X0161600Y0139261D01*
X0161189Y0137083D02*
X0157489Y0137083D01*
X0157489Y0136056D02*
X0157489Y0138111D01*
X0150756Y0140980D02*
X0149145Y0140980D01*
X0149790Y0143236D01*
X0150273Y0141625D02*
X0150273Y0140336D01*
X0148025Y0140336D02*
X0147381Y0140336D01*
X0147333Y0140338D01*
X0147285Y0140343D01*
X0147238Y0140352D01*
X0147191Y0140365D01*
X0147146Y0140381D01*
X0147102Y0140400D01*
X0147059Y0140422D01*
X0147018Y0140448D01*
X0146979Y0140477D01*
X0146943Y0140508D01*
X0146909Y0140542D01*
X0146878Y0140578D01*
X0146849Y0140617D01*
X0146823Y0140658D01*
X0146801Y0140701D01*
X0146782Y0140745D01*
X0146766Y0140790D01*
X0146753Y0140837D01*
X0146744Y0140884D01*
X0146739Y0140932D01*
X0146737Y0140980D01*
X0146736Y0140980D02*
X0146736Y0142591D01*
X0146737Y0142591D02*
X0146739Y0142642D01*
X0146745Y0142692D01*
X0146755Y0142741D01*
X0146769Y0142790D01*
X0146786Y0142837D01*
X0146807Y0142883D01*
X0146832Y0142927D01*
X0146860Y0142970D01*
X0146891Y0143009D01*
X0146926Y0143046D01*
X0146963Y0143081D01*
X0147002Y0143112D01*
X0147045Y0143140D01*
X0147089Y0143165D01*
X0147135Y0143186D01*
X0147182Y0143203D01*
X0147231Y0143217D01*
X0147280Y0143227D01*
X0147330Y0143233D01*
X0147381Y0143235D01*
X0147381Y0143236D02*
X0148025Y0143236D01*
X0109932Y0144323D02*
X0107912Y0144323D01*
X0109629Y0146344D01*
X0109023Y0147960D02*
X0108956Y0147958D01*
X0108890Y0147952D01*
X0108824Y0147943D01*
X0108758Y0147930D01*
X0108694Y0147913D01*
X0108630Y0147892D01*
X0108568Y0147868D01*
X0108507Y0147840D01*
X0108448Y0147809D01*
X0108391Y0147774D01*
X0108336Y0147737D01*
X0108283Y0147696D01*
X0108233Y0147652D01*
X0108185Y0147606D01*
X0108140Y0147556D01*
X0108098Y0147505D01*
X0108058Y0147451D01*
X0108022Y0147394D01*
X0107990Y0147336D01*
X0107960Y0147276D01*
X0107934Y0147215D01*
X0107912Y0147152D01*
X0109630Y0146344D02*
X0109673Y0146387D01*
X0109712Y0146433D01*
X0109749Y0146481D01*
X0109783Y0146532D01*
X0109814Y0146584D01*
X0109842Y0146638D01*
X0109866Y0146694D01*
X0109886Y0146752D01*
X0109903Y0146810D01*
X0109916Y0146869D01*
X0109925Y0146930D01*
X0109931Y0146990D01*
X0109933Y0147051D01*
X0109932Y0147051D02*
X0109930Y0147110D01*
X0109924Y0147170D01*
X0109915Y0147228D01*
X0109901Y0147286D01*
X0109884Y0147343D01*
X0109863Y0147399D01*
X0109838Y0147453D01*
X0109810Y0147506D01*
X0109779Y0147556D01*
X0109744Y0147604D01*
X0109706Y0147650D01*
X0109666Y0147694D01*
X0109622Y0147734D01*
X0109576Y0147772D01*
X0109528Y0147807D01*
X0109478Y0147838D01*
X0109425Y0147866D01*
X0109371Y0147891D01*
X0109315Y0147912D01*
X0109258Y0147929D01*
X0109200Y0147943D01*
X0109142Y0147952D01*
X0109082Y0147958D01*
X0109023Y0147960D01*
X0106237Y0147960D02*
X0105025Y0145940D01*
X0103812Y0147960D01*
X0103812Y0144323D01*
X0104514Y0145007D02*
X0103870Y0142752D01*
X0105481Y0142752D01*
X0104997Y0143396D02*
X0104997Y0142107D01*
X0102601Y0142107D02*
X0100990Y0142107D01*
X0101795Y0142107D02*
X0101795Y0145007D01*
X0100990Y0144363D01*
X0099237Y0143396D02*
X0099237Y0142107D01*
X0099721Y0142752D02*
X0098110Y0142752D01*
X0098754Y0145007D01*
X0095874Y0145007D02*
X0095230Y0142752D01*
X0096841Y0142752D01*
X0096357Y0143396D02*
X0096357Y0142107D01*
X0094109Y0142107D02*
X0093465Y0142107D01*
X0093465Y0142108D02*
X0093417Y0142110D01*
X0093369Y0142115D01*
X0093322Y0142124D01*
X0093275Y0142137D01*
X0093230Y0142153D01*
X0093186Y0142172D01*
X0093143Y0142194D01*
X0093102Y0142220D01*
X0093063Y0142249D01*
X0093027Y0142280D01*
X0092993Y0142314D01*
X0092962Y0142350D01*
X0092933Y0142389D01*
X0092907Y0142430D01*
X0092885Y0142473D01*
X0092866Y0142517D01*
X0092850Y0142562D01*
X0092837Y0142609D01*
X0092828Y0142656D01*
X0092823Y0142704D01*
X0092821Y0142752D01*
X0092820Y0142752D02*
X0092820Y0144363D01*
X0092821Y0144363D02*
X0092823Y0144414D01*
X0092829Y0144464D01*
X0092839Y0144513D01*
X0092853Y0144562D01*
X0092870Y0144609D01*
X0092891Y0144655D01*
X0092916Y0144699D01*
X0092944Y0144742D01*
X0092975Y0144781D01*
X0093010Y0144818D01*
X0093047Y0144853D01*
X0093086Y0144884D01*
X0093129Y0144912D01*
X0093173Y0144937D01*
X0093219Y0144958D01*
X0093266Y0144975D01*
X0093315Y0144989D01*
X0093364Y0144999D01*
X0093414Y0145005D01*
X0093465Y0145007D01*
X0094109Y0145007D01*
X0091753Y0145007D02*
X0090142Y0145007D01*
X0090947Y0145007D02*
X0090947Y0142107D01*
X0089229Y0142107D02*
X0087940Y0142107D01*
X0087940Y0145007D01*
X0106237Y0144323D02*
X0106237Y0147960D01*
X0066504Y0122753D02*
X0066504Y0121142D01*
X0064893Y0122511D01*
X0063605Y0122028D02*
X0063607Y0121969D01*
X0063612Y0121911D01*
X0063622Y0121853D01*
X0063634Y0121796D01*
X0063651Y0121740D01*
X0063670Y0121685D01*
X0063694Y0121631D01*
X0063720Y0121579D01*
X0063750Y0121529D01*
X0063783Y0121480D01*
X0063819Y0121434D01*
X0063858Y0121390D01*
X0063899Y0121349D01*
X0063943Y0121310D01*
X0063989Y0121274D01*
X0064038Y0121242D01*
X0064088Y0121212D01*
X0064140Y0121185D01*
X0064194Y0121162D01*
X0064249Y0121142D01*
X0064893Y0122511D02*
X0064856Y0122548D01*
X0064816Y0122582D01*
X0064774Y0122614D01*
X0064729Y0122642D01*
X0064683Y0122668D01*
X0064636Y0122690D01*
X0064587Y0122709D01*
X0064537Y0122725D01*
X0064486Y0122737D01*
X0064434Y0122746D01*
X0064382Y0122751D01*
X0064329Y0122753D01*
X0064277Y0122751D01*
X0064226Y0122746D01*
X0064175Y0122736D01*
X0064125Y0122724D01*
X0064076Y0122707D01*
X0064028Y0122687D01*
X0063982Y0122664D01*
X0063937Y0122638D01*
X0063895Y0122608D01*
X0063854Y0122576D01*
X0063816Y0122541D01*
X0063781Y0122503D01*
X0063749Y0122462D01*
X0063719Y0122420D01*
X0063693Y0122375D01*
X0063670Y0122329D01*
X0063650Y0122281D01*
X0063633Y0122232D01*
X0063621Y0122182D01*
X0063611Y0122131D01*
X0063606Y0122080D01*
X0063604Y0122028D01*
X0063604Y0120022D02*
X0063604Y0119377D01*
X0063605Y0119377D02*
X0063607Y0119326D01*
X0063613Y0119276D01*
X0063623Y0119227D01*
X0063637Y0119178D01*
X0063654Y0119131D01*
X0063675Y0119085D01*
X0063700Y0119040D01*
X0063728Y0118998D01*
X0063759Y0118959D01*
X0063794Y0118922D01*
X0063831Y0118887D01*
X0063870Y0118856D01*
X0063913Y0118828D01*
X0063957Y0118803D01*
X0064003Y0118782D01*
X0064050Y0118765D01*
X0064099Y0118751D01*
X0064148Y0118741D01*
X0064198Y0118735D01*
X0064249Y0118733D01*
X0065860Y0118733D01*
X0065908Y0118735D01*
X0065956Y0118740D01*
X0066003Y0118749D01*
X0066050Y0118762D01*
X0066095Y0118778D01*
X0066139Y0118797D01*
X0066182Y0118819D01*
X0066223Y0118845D01*
X0066262Y0118874D01*
X0066298Y0118905D01*
X0066332Y0118939D01*
X0066363Y0118975D01*
X0066392Y0119014D01*
X0066418Y0119055D01*
X0066440Y0119098D01*
X0066459Y0119142D01*
X0066475Y0119187D01*
X0066488Y0119234D01*
X0066497Y0119281D01*
X0066502Y0119329D01*
X0066504Y0119377D01*
X0066504Y0120022D01*
X0092985Y0106622D02*
X0092985Y0104601D01*
X0093390Y0104601D01*
X0092985Y0106622D02*
X0096622Y0105611D01*
X0096622Y0103078D02*
X0096622Y0101058D01*
X0094602Y0102775D01*
X0092986Y0102169D02*
X0092988Y0102102D01*
X0092994Y0102036D01*
X0093003Y0101970D01*
X0093016Y0101904D01*
X0093033Y0101840D01*
X0093054Y0101776D01*
X0093078Y0101714D01*
X0093106Y0101653D01*
X0093137Y0101594D01*
X0093172Y0101537D01*
X0093209Y0101482D01*
X0093250Y0101429D01*
X0093294Y0101379D01*
X0093340Y0101331D01*
X0093390Y0101286D01*
X0093441Y0101244D01*
X0093495Y0101204D01*
X0093552Y0101168D01*
X0093610Y0101136D01*
X0093670Y0101106D01*
X0093731Y0101080D01*
X0093794Y0101058D01*
X0094602Y0102776D02*
X0094559Y0102819D01*
X0094513Y0102858D01*
X0094465Y0102895D01*
X0094414Y0102929D01*
X0094362Y0102960D01*
X0094308Y0102988D01*
X0094252Y0103012D01*
X0094194Y0103032D01*
X0094136Y0103049D01*
X0094077Y0103062D01*
X0094016Y0103071D01*
X0093956Y0103077D01*
X0093895Y0103079D01*
X0093895Y0103078D02*
X0093836Y0103076D01*
X0093776Y0103070D01*
X0093718Y0103061D01*
X0093660Y0103047D01*
X0093603Y0103030D01*
X0093547Y0103009D01*
X0093493Y0102984D01*
X0093441Y0102956D01*
X0093390Y0102925D01*
X0093342Y0102890D01*
X0093296Y0102852D01*
X0093252Y0102812D01*
X0093212Y0102768D01*
X0093174Y0102722D01*
X0093139Y0102674D01*
X0093108Y0102624D01*
X0093080Y0102571D01*
X0093055Y0102517D01*
X0093034Y0102461D01*
X0093017Y0102404D01*
X0093003Y0102346D01*
X0092994Y0102288D01*
X0092988Y0102228D01*
X0092986Y0102169D01*
X0096622Y0099535D02*
X0096622Y0097515D01*
X0096622Y0098525D02*
X0092985Y0098525D01*
X0093794Y0097515D01*
X0094602Y0095184D02*
X0094600Y0095239D01*
X0094594Y0095294D01*
X0094585Y0095348D01*
X0094572Y0095402D01*
X0094555Y0095455D01*
X0094535Y0095506D01*
X0094511Y0095556D01*
X0094484Y0095604D01*
X0094454Y0095650D01*
X0094421Y0095694D01*
X0094385Y0095736D01*
X0094346Y0095775D01*
X0094304Y0095811D01*
X0094260Y0095844D01*
X0094214Y0095874D01*
X0094166Y0095901D01*
X0094116Y0095925D01*
X0094065Y0095945D01*
X0094012Y0095962D01*
X0093958Y0095975D01*
X0093904Y0095984D01*
X0093849Y0095990D01*
X0093794Y0095992D01*
X0093739Y0095990D01*
X0093684Y0095984D01*
X0093630Y0095975D01*
X0093576Y0095962D01*
X0093523Y0095945D01*
X0093472Y0095925D01*
X0093422Y0095901D01*
X0093374Y0095874D01*
X0093328Y0095844D01*
X0093284Y0095811D01*
X0093242Y0095775D01*
X0093203Y0095736D01*
X0093167Y0095694D01*
X0093134Y0095650D01*
X0093104Y0095604D01*
X0093077Y0095556D01*
X0093053Y0095506D01*
X0093033Y0095455D01*
X0093016Y0095402D01*
X0093003Y0095348D01*
X0092994Y0095294D01*
X0092988Y0095239D01*
X0092986Y0095184D01*
X0092985Y0095184D02*
X0092985Y0093971D01*
X0092985Y0092625D02*
X0092985Y0091817D01*
X0092986Y0091817D02*
X0092988Y0091762D01*
X0092994Y0091707D01*
X0093003Y0091653D01*
X0093016Y0091599D01*
X0093033Y0091546D01*
X0093053Y0091495D01*
X0093077Y0091445D01*
X0093104Y0091397D01*
X0093134Y0091351D01*
X0093167Y0091307D01*
X0093203Y0091265D01*
X0093243Y0091226D01*
X0093284Y0091190D01*
X0093328Y0091157D01*
X0093374Y0091127D01*
X0093422Y0091100D01*
X0093472Y0091076D01*
X0093523Y0091056D01*
X0093576Y0091039D01*
X0093630Y0091026D01*
X0093684Y0091017D01*
X0093739Y0091011D01*
X0093794Y0091009D01*
X0093794Y0091008D02*
X0095814Y0091008D01*
X0095814Y0091009D02*
X0095869Y0091011D01*
X0095924Y0091017D01*
X0095978Y0091026D01*
X0096032Y0091039D01*
X0096085Y0091056D01*
X0096136Y0091076D01*
X0096186Y0091100D01*
X0096234Y0091127D01*
X0096280Y0091157D01*
X0096324Y0091190D01*
X0096366Y0091226D01*
X0096405Y0091265D01*
X0096441Y0091307D01*
X0096474Y0091351D01*
X0096504Y0091397D01*
X0096531Y0091445D01*
X0096555Y0091495D01*
X0096575Y0091546D01*
X0096592Y0091599D01*
X0096605Y0091653D01*
X0096614Y0091707D01*
X0096620Y0091762D01*
X0096622Y0091817D01*
X0096622Y0092625D01*
X0096622Y0093971D02*
X0096622Y0094981D01*
X0096620Y0095043D01*
X0096614Y0095105D01*
X0096605Y0095167D01*
X0096591Y0095227D01*
X0096574Y0095287D01*
X0096554Y0095346D01*
X0096530Y0095403D01*
X0096502Y0095459D01*
X0096471Y0095513D01*
X0096436Y0095565D01*
X0096399Y0095614D01*
X0096358Y0095661D01*
X0096315Y0095706D01*
X0096269Y0095748D01*
X0096221Y0095787D01*
X0096170Y0095823D01*
X0096117Y0095856D01*
X0096062Y0095885D01*
X0096006Y0095911D01*
X0095948Y0095934D01*
X0095888Y0095952D01*
X0095828Y0095968D01*
X0095767Y0095979D01*
X0095705Y0095987D01*
X0095643Y0095991D01*
X0095581Y0095991D01*
X0095519Y0095987D01*
X0095457Y0095979D01*
X0095396Y0095968D01*
X0095336Y0095952D01*
X0095276Y0095934D01*
X0095218Y0095911D01*
X0095162Y0095885D01*
X0095107Y0095856D01*
X0095054Y0095823D01*
X0095003Y0095787D01*
X0094955Y0095748D01*
X0094909Y0095706D01*
X0094866Y0095661D01*
X0094825Y0095614D01*
X0094788Y0095565D01*
X0094753Y0095513D01*
X0094722Y0095459D01*
X0094694Y0095403D01*
X0094670Y0095346D01*
X0094650Y0095287D01*
X0094633Y0095227D01*
X0094619Y0095167D01*
X0094610Y0095105D01*
X0094604Y0095043D01*
X0094602Y0094981D01*
X0094602Y0095184D02*
X0094602Y0094375D01*
X0092985Y0089732D02*
X0092985Y0087711D01*
X0092985Y0088722D02*
X0096622Y0088722D01*
X0096622Y0086618D02*
X0096622Y0085002D01*
X0092985Y0085002D01*
X0093029Y0075189D02*
X0093029Y0071489D01*
X0095207Y0071077D02*
X0096851Y0071077D01*
X0099766Y0073030D02*
X0099812Y0073001D01*
X0099855Y0072969D01*
X0099897Y0072935D01*
X0099936Y0072897D01*
X0099973Y0072858D01*
X0100007Y0072816D01*
X0100039Y0072771D01*
X0100067Y0072725D01*
X0100092Y0072677D01*
X0100115Y0072628D01*
X0100133Y0072577D01*
X0100149Y0072525D01*
X0100161Y0072473D01*
X0100170Y0072419D01*
X0100175Y0072365D01*
X0100177Y0072311D01*
X0100176Y0072311D02*
X0100174Y0072255D01*
X0100168Y0072199D01*
X0100159Y0072144D01*
X0100146Y0072089D01*
X0100129Y0072036D01*
X0100108Y0071984D01*
X0100084Y0071933D01*
X0100056Y0071884D01*
X0100026Y0071837D01*
X0099992Y0071792D01*
X0099955Y0071750D01*
X0099915Y0071710D01*
X0099873Y0071673D01*
X0099828Y0071639D01*
X0099781Y0071609D01*
X0099732Y0071581D01*
X0099681Y0071557D01*
X0099629Y0071536D01*
X0099576Y0071519D01*
X0099521Y0071506D01*
X0099466Y0071497D01*
X0099410Y0071491D01*
X0099354Y0071489D01*
X0099766Y0073030D02*
X0098635Y0073647D01*
X0099046Y0075189D02*
X0099122Y0075187D01*
X0099198Y0075181D01*
X0099274Y0075172D01*
X0099349Y0075159D01*
X0099424Y0075142D01*
X0099497Y0075121D01*
X0099570Y0075097D01*
X0099641Y0075070D01*
X0099710Y0075038D01*
X0099779Y0075004D01*
X0099845Y0074966D01*
X0099909Y0074925D01*
X0099971Y0074881D01*
X0098635Y0073647D02*
X0098589Y0073676D01*
X0098546Y0073708D01*
X0098504Y0073742D01*
X0098465Y0073780D01*
X0098428Y0073819D01*
X0098394Y0073861D01*
X0098362Y0073906D01*
X0098334Y0073952D01*
X0098309Y0074000D01*
X0098286Y0074049D01*
X0098268Y0074100D01*
X0098252Y0074152D01*
X0098240Y0074204D01*
X0098231Y0074258D01*
X0098226Y0074312D01*
X0098224Y0074366D01*
X0098226Y0074422D01*
X0098232Y0074478D01*
X0098241Y0074533D01*
X0098254Y0074588D01*
X0098271Y0074641D01*
X0098292Y0074693D01*
X0098316Y0074744D01*
X0098344Y0074793D01*
X0098374Y0074840D01*
X0098408Y0074885D01*
X0098445Y0074927D01*
X0098485Y0074967D01*
X0098527Y0075004D01*
X0098572Y0075038D01*
X0098619Y0075068D01*
X0098668Y0075096D01*
X0098719Y0075120D01*
X0098771Y0075141D01*
X0098824Y0075158D01*
X0098879Y0075171D01*
X0098934Y0075180D01*
X0098990Y0075186D01*
X0099046Y0075188D01*
X0098121Y0072003D02*
X0098179Y0071947D01*
X0098239Y0071894D01*
X0098302Y0071843D01*
X0098368Y0071796D01*
X0098435Y0071752D01*
X0098505Y0071711D01*
X0098576Y0071673D01*
X0098649Y0071639D01*
X0098723Y0071608D01*
X0098799Y0071580D01*
X0098876Y0071556D01*
X0098954Y0071536D01*
X0099033Y0071519D01*
X0099113Y0071506D01*
X0099193Y0071496D01*
X0099273Y0071491D01*
X0099354Y0071489D01*
X0101687Y0072105D02*
X0101687Y0073955D01*
X0103331Y0073955D02*
X0103331Y0071489D01*
X0102303Y0071489D01*
X0102303Y0071488D02*
X0102255Y0071490D01*
X0102206Y0071496D01*
X0102159Y0071505D01*
X0102112Y0071518D01*
X0102067Y0071535D01*
X0102023Y0071555D01*
X0101981Y0071579D01*
X0101940Y0071606D01*
X0101902Y0071636D01*
X0101867Y0071669D01*
X0101834Y0071704D01*
X0101804Y0071742D01*
X0101777Y0071783D01*
X0101753Y0071825D01*
X0101733Y0071869D01*
X0101716Y0071914D01*
X0101703Y0071961D01*
X0101694Y0072008D01*
X0101688Y0072057D01*
X0101686Y0072105D01*
X0105065Y0071489D02*
X0106092Y0071489D01*
X0106092Y0071488D02*
X0106140Y0071490D01*
X0106189Y0071496D01*
X0106236Y0071505D01*
X0106283Y0071518D01*
X0106328Y0071535D01*
X0106372Y0071555D01*
X0106414Y0071579D01*
X0106455Y0071606D01*
X0106493Y0071636D01*
X0106528Y0071669D01*
X0106561Y0071704D01*
X0106591Y0071742D01*
X0106618Y0071783D01*
X0106642Y0071825D01*
X0106662Y0071869D01*
X0106679Y0071914D01*
X0106692Y0071961D01*
X0106701Y0072008D01*
X0106707Y0072057D01*
X0106709Y0072105D01*
X0106709Y0073339D01*
X0106707Y0073387D01*
X0106701Y0073436D01*
X0106692Y0073483D01*
X0106679Y0073530D01*
X0106662Y0073575D01*
X0106642Y0073619D01*
X0106618Y0073661D01*
X0106591Y0073702D01*
X0106561Y0073740D01*
X0106528Y0073775D01*
X0106493Y0073808D01*
X0106455Y0073838D01*
X0106414Y0073865D01*
X0106372Y0073889D01*
X0106328Y0073909D01*
X0106283Y0073926D01*
X0106236Y0073939D01*
X0106189Y0073948D01*
X0106140Y0073954D01*
X0106092Y0073956D01*
X0106092Y0073955D02*
X0105065Y0073955D01*
X0105065Y0070255D01*
X0108167Y0072105D02*
X0108167Y0073133D01*
X0108167Y0072722D02*
X0109811Y0072722D01*
X0109811Y0073133D01*
X0109809Y0073189D01*
X0109803Y0073245D01*
X0109794Y0073300D01*
X0109781Y0073355D01*
X0109764Y0073408D01*
X0109743Y0073460D01*
X0109719Y0073511D01*
X0109691Y0073560D01*
X0109661Y0073607D01*
X0109627Y0073652D01*
X0109590Y0073694D01*
X0109550Y0073734D01*
X0109508Y0073771D01*
X0109463Y0073805D01*
X0109416Y0073835D01*
X0109367Y0073863D01*
X0109316Y0073887D01*
X0109264Y0073908D01*
X0109211Y0073925D01*
X0109156Y0073938D01*
X0109101Y0073947D01*
X0109045Y0073953D01*
X0108989Y0073955D01*
X0108933Y0073953D01*
X0108877Y0073947D01*
X0108822Y0073938D01*
X0108767Y0073925D01*
X0108714Y0073908D01*
X0108662Y0073887D01*
X0108611Y0073863D01*
X0108562Y0073835D01*
X0108515Y0073805D01*
X0108470Y0073771D01*
X0108428Y0073734D01*
X0108388Y0073694D01*
X0108351Y0073652D01*
X0108317Y0073607D01*
X0108287Y0073560D01*
X0108259Y0073511D01*
X0108235Y0073460D01*
X0108214Y0073408D01*
X0108197Y0073355D01*
X0108184Y0073300D01*
X0108175Y0073245D01*
X0108169Y0073189D01*
X0108167Y0073133D01*
X0108166Y0072105D02*
X0108168Y0072057D01*
X0108174Y0072008D01*
X0108183Y0071961D01*
X0108196Y0071914D01*
X0108213Y0071869D01*
X0108233Y0071825D01*
X0108257Y0071783D01*
X0108284Y0071742D01*
X0108314Y0071704D01*
X0108347Y0071669D01*
X0108382Y0071636D01*
X0108420Y0071606D01*
X0108461Y0071579D01*
X0108503Y0071555D01*
X0108547Y0071535D01*
X0108592Y0071518D01*
X0108639Y0071505D01*
X0108686Y0071496D01*
X0108735Y0071490D01*
X0108783Y0071488D01*
X0108783Y0071489D02*
X0109811Y0071489D01*
X0111427Y0071489D02*
X0111427Y0073955D01*
X0112660Y0073955D01*
X0112660Y0073544D01*
X0113811Y0073339D02*
X0113811Y0072105D01*
X0113810Y0072105D02*
X0113812Y0072057D01*
X0113818Y0072008D01*
X0113827Y0071961D01*
X0113840Y0071914D01*
X0113857Y0071869D01*
X0113877Y0071825D01*
X0113901Y0071783D01*
X0113928Y0071742D01*
X0113958Y0071704D01*
X0113991Y0071669D01*
X0114026Y0071636D01*
X0114064Y0071606D01*
X0114105Y0071579D01*
X0114147Y0071555D01*
X0114191Y0071535D01*
X0114236Y0071518D01*
X0114283Y0071505D01*
X0114330Y0071496D01*
X0114379Y0071490D01*
X0114427Y0071488D01*
X0114427Y0071489D02*
X0115250Y0071489D01*
X0117268Y0071489D02*
X0118193Y0071489D01*
X0118193Y0073339D01*
X0118193Y0072927D02*
X0117268Y0072927D01*
X0118193Y0073339D02*
X0118191Y0073387D01*
X0118185Y0073436D01*
X0118176Y0073483D01*
X0118163Y0073530D01*
X0118146Y0073575D01*
X0118126Y0073619D01*
X0118102Y0073661D01*
X0118075Y0073702D01*
X0118045Y0073740D01*
X0118012Y0073775D01*
X0117977Y0073808D01*
X0117939Y0073838D01*
X0117898Y0073865D01*
X0117856Y0073889D01*
X0117812Y0073909D01*
X0117767Y0073926D01*
X0117720Y0073939D01*
X0117673Y0073948D01*
X0117624Y0073954D01*
X0117576Y0073956D01*
X0117576Y0073955D02*
X0116754Y0073955D01*
X0115250Y0073955D02*
X0114427Y0073955D01*
X0114427Y0073956D02*
X0114379Y0073954D01*
X0114330Y0073948D01*
X0114283Y0073939D01*
X0114236Y0073926D01*
X0114191Y0073909D01*
X0114147Y0073889D01*
X0114105Y0073865D01*
X0114064Y0073838D01*
X0114026Y0073808D01*
X0113991Y0073775D01*
X0113958Y0073740D01*
X0113928Y0073702D01*
X0113901Y0073661D01*
X0113877Y0073619D01*
X0113857Y0073575D01*
X0113840Y0073530D01*
X0113827Y0073483D01*
X0113818Y0073436D01*
X0113812Y0073387D01*
X0113810Y0073339D01*
X0117268Y0072927D02*
X0117216Y0072925D01*
X0117163Y0072919D01*
X0117112Y0072910D01*
X0117061Y0072897D01*
X0117011Y0072880D01*
X0116963Y0072859D01*
X0116916Y0072835D01*
X0116871Y0072808D01*
X0116829Y0072777D01*
X0116788Y0072743D01*
X0116750Y0072707D01*
X0116715Y0072668D01*
X0116683Y0072626D01*
X0116654Y0072583D01*
X0116629Y0072537D01*
X0116606Y0072489D01*
X0116588Y0072440D01*
X0116572Y0072390D01*
X0116561Y0072339D01*
X0116553Y0072287D01*
X0116549Y0072234D01*
X0116549Y0072182D01*
X0116553Y0072129D01*
X0116561Y0072077D01*
X0116572Y0072026D01*
X0116588Y0071976D01*
X0116606Y0071927D01*
X0116629Y0071879D01*
X0116654Y0071833D01*
X0116683Y0071790D01*
X0116715Y0071748D01*
X0116750Y0071709D01*
X0116788Y0071673D01*
X0116829Y0071639D01*
X0116871Y0071608D01*
X0116916Y0071581D01*
X0116963Y0071557D01*
X0117011Y0071536D01*
X0117061Y0071519D01*
X0117112Y0071506D01*
X0117163Y0071497D01*
X0117216Y0071491D01*
X0117268Y0071489D01*
X0119945Y0071489D02*
X0120972Y0071489D01*
X0120972Y0071488D02*
X0121020Y0071490D01*
X0121069Y0071496D01*
X0121116Y0071505D01*
X0121163Y0071518D01*
X0121208Y0071535D01*
X0121252Y0071555D01*
X0121294Y0071579D01*
X0121335Y0071606D01*
X0121373Y0071636D01*
X0121408Y0071669D01*
X0121441Y0071704D01*
X0121471Y0071742D01*
X0121498Y0071783D01*
X0121522Y0071825D01*
X0121542Y0071869D01*
X0121559Y0071914D01*
X0121572Y0071961D01*
X0121581Y0072008D01*
X0121587Y0072057D01*
X0121589Y0072105D01*
X0121589Y0073339D01*
X0121587Y0073387D01*
X0121581Y0073436D01*
X0121572Y0073483D01*
X0121559Y0073530D01*
X0121542Y0073575D01*
X0121522Y0073619D01*
X0121498Y0073661D01*
X0121471Y0073702D01*
X0121441Y0073740D01*
X0121408Y0073775D01*
X0121373Y0073808D01*
X0121335Y0073838D01*
X0121294Y0073865D01*
X0121252Y0073889D01*
X0121208Y0073909D01*
X0121163Y0073926D01*
X0121116Y0073939D01*
X0121069Y0073948D01*
X0121020Y0073954D01*
X0120972Y0073956D01*
X0120972Y0073955D02*
X0119945Y0073955D01*
X0119945Y0070255D01*
X0137277Y0084481D02*
X0138566Y0084481D01*
X0139671Y0084481D02*
X0141282Y0084481D01*
X0139671Y0084481D02*
X0141040Y0086092D01*
X0140557Y0087380D02*
X0140498Y0087378D01*
X0140440Y0087373D01*
X0140382Y0087363D01*
X0140325Y0087351D01*
X0140269Y0087334D01*
X0140214Y0087315D01*
X0140160Y0087291D01*
X0140108Y0087265D01*
X0140058Y0087235D01*
X0140009Y0087202D01*
X0139963Y0087166D01*
X0139919Y0087127D01*
X0139878Y0087086D01*
X0139839Y0087042D01*
X0139803Y0086996D01*
X0139771Y0086947D01*
X0139741Y0086897D01*
X0139714Y0086845D01*
X0139691Y0086791D01*
X0139671Y0086736D01*
X0141040Y0086092D02*
X0141077Y0086129D01*
X0141111Y0086169D01*
X0141143Y0086211D01*
X0141171Y0086256D01*
X0141197Y0086302D01*
X0141219Y0086349D01*
X0141238Y0086398D01*
X0141254Y0086448D01*
X0141266Y0086499D01*
X0141275Y0086551D01*
X0141280Y0086603D01*
X0141282Y0086656D01*
X0141280Y0086708D01*
X0141275Y0086759D01*
X0141265Y0086810D01*
X0141253Y0086860D01*
X0141236Y0086909D01*
X0141216Y0086957D01*
X0141193Y0087003D01*
X0141167Y0087048D01*
X0141137Y0087090D01*
X0141105Y0087131D01*
X0141070Y0087169D01*
X0141032Y0087204D01*
X0140991Y0087236D01*
X0140949Y0087266D01*
X0140904Y0087292D01*
X0140858Y0087315D01*
X0140810Y0087335D01*
X0140761Y0087352D01*
X0140711Y0087364D01*
X0140660Y0087374D01*
X0140609Y0087379D01*
X0140557Y0087381D01*
X0137277Y0087381D02*
X0137277Y0084481D01*
X0123641Y0104585D02*
X0120741Y0104585D01*
X0121386Y0106979D02*
X0120741Y0107785D01*
X0123641Y0107785D01*
X0123641Y0108590D02*
X0123641Y0106979D01*
X0123641Y0105874D02*
X0123641Y0104585D01*
X0094057Y0075189D02*
X0092001Y0075189D01*
X0127434Y0201410D02*
X0127434Y0205047D01*
X0128647Y0203026D01*
X0129859Y0205047D01*
X0129859Y0201410D01*
X0131534Y0201410D02*
X0133554Y0201410D01*
X0132544Y0201410D02*
X0132544Y0205047D01*
X0131534Y0204239D01*
X0134368Y0211252D02*
X0134368Y0214952D01*
X0135395Y0214952D02*
X0133340Y0214952D01*
X0136545Y0210841D02*
X0138190Y0210841D01*
X0139722Y0211252D02*
X0139722Y0214952D01*
X0140750Y0214952D01*
X0140750Y0214953D02*
X0140813Y0214951D01*
X0140876Y0214945D01*
X0140939Y0214935D01*
X0141001Y0214922D01*
X0141062Y0214905D01*
X0141121Y0214884D01*
X0141180Y0214859D01*
X0141236Y0214831D01*
X0141291Y0214799D01*
X0141344Y0214764D01*
X0141394Y0214726D01*
X0141443Y0214685D01*
X0141488Y0214641D01*
X0141531Y0214594D01*
X0141570Y0214545D01*
X0141607Y0214493D01*
X0141640Y0214439D01*
X0141670Y0214383D01*
X0141697Y0214326D01*
X0141720Y0214267D01*
X0141739Y0214206D01*
X0141754Y0214145D01*
X0141766Y0214083D01*
X0141774Y0214020D01*
X0141778Y0213957D01*
X0141778Y0213893D01*
X0141774Y0213830D01*
X0141766Y0213767D01*
X0141754Y0213705D01*
X0141739Y0213644D01*
X0141720Y0213583D01*
X0141697Y0213524D01*
X0141670Y0213467D01*
X0141640Y0213411D01*
X0141607Y0213357D01*
X0141570Y0213305D01*
X0141531Y0213256D01*
X0141488Y0213209D01*
X0141443Y0213165D01*
X0141394Y0213124D01*
X0141344Y0213086D01*
X0141291Y0213051D01*
X0141236Y0213019D01*
X0141180Y0212991D01*
X0141121Y0212966D01*
X0141062Y0212945D01*
X0141001Y0212928D01*
X0140939Y0212915D01*
X0140876Y0212905D01*
X0140813Y0212899D01*
X0140750Y0212897D01*
X0139722Y0212897D01*
X0140956Y0212897D02*
X0141778Y0211252D01*
X0143967Y0211252D02*
X0144892Y0211252D01*
X0144892Y0213102D01*
X0144892Y0212691D02*
X0143967Y0212691D01*
X0144892Y0213102D02*
X0144890Y0213150D01*
X0144884Y0213199D01*
X0144875Y0213246D01*
X0144862Y0213293D01*
X0144845Y0213338D01*
X0144825Y0213382D01*
X0144801Y0213424D01*
X0144774Y0213465D01*
X0144744Y0213503D01*
X0144711Y0213538D01*
X0144676Y0213571D01*
X0144638Y0213601D01*
X0144597Y0213628D01*
X0144555Y0213652D01*
X0144511Y0213672D01*
X0144466Y0213689D01*
X0144419Y0213702D01*
X0144372Y0213711D01*
X0144323Y0213717D01*
X0144275Y0213719D01*
X0143453Y0213719D01*
X0143967Y0212691D02*
X0143915Y0212689D01*
X0143862Y0212683D01*
X0143811Y0212674D01*
X0143760Y0212661D01*
X0143710Y0212644D01*
X0143662Y0212623D01*
X0143615Y0212599D01*
X0143570Y0212572D01*
X0143528Y0212541D01*
X0143487Y0212507D01*
X0143449Y0212471D01*
X0143414Y0212432D01*
X0143382Y0212390D01*
X0143353Y0212347D01*
X0143328Y0212301D01*
X0143305Y0212253D01*
X0143287Y0212204D01*
X0143271Y0212154D01*
X0143260Y0212103D01*
X0143252Y0212051D01*
X0143248Y0211998D01*
X0143248Y0211946D01*
X0143252Y0211893D01*
X0143260Y0211841D01*
X0143271Y0211790D01*
X0143287Y0211740D01*
X0143305Y0211691D01*
X0143328Y0211643D01*
X0143353Y0211597D01*
X0143382Y0211554D01*
X0143414Y0211512D01*
X0143449Y0211473D01*
X0143487Y0211437D01*
X0143528Y0211403D01*
X0143570Y0211372D01*
X0143615Y0211345D01*
X0143662Y0211321D01*
X0143710Y0211300D01*
X0143760Y0211283D01*
X0143811Y0211270D01*
X0143862Y0211261D01*
X0143915Y0211255D01*
X0143967Y0211253D01*
X0147019Y0213719D02*
X0147115Y0213715D01*
X0147210Y0213708D01*
X0147305Y0213697D01*
X0147399Y0213682D01*
X0147492Y0213663D01*
X0147585Y0213641D01*
X0147677Y0213614D01*
X0147767Y0213584D01*
X0147856Y0213551D01*
X0147944Y0213513D01*
X0147020Y0213719D02*
X0146975Y0213718D01*
X0146930Y0213713D01*
X0146886Y0213704D01*
X0146843Y0213692D01*
X0146801Y0213676D01*
X0146761Y0213656D01*
X0146722Y0213633D01*
X0146686Y0213608D01*
X0146652Y0213579D01*
X0146620Y0213547D01*
X0146591Y0213513D01*
X0146565Y0213476D01*
X0146542Y0213438D01*
X0146523Y0213397D01*
X0146507Y0213355D01*
X0146494Y0213312D01*
X0146485Y0213268D01*
X0146480Y0213224D01*
X0146479Y0213179D01*
X0146482Y0213134D01*
X0146488Y0213090D01*
X0146498Y0213046D01*
X0146511Y0213004D01*
X0146528Y0212962D01*
X0146549Y0212922D01*
X0146573Y0212884D01*
X0146599Y0212849D01*
X0146629Y0212815D01*
X0146662Y0212784D01*
X0146697Y0212756D01*
X0146734Y0212731D01*
X0146773Y0212710D01*
X0146814Y0212691D01*
X0147841Y0212280D01*
X0147882Y0212261D01*
X0147921Y0212240D01*
X0147958Y0212215D01*
X0147993Y0212187D01*
X0148026Y0212156D01*
X0148056Y0212122D01*
X0148082Y0212087D01*
X0148106Y0212049D01*
X0148127Y0212009D01*
X0148144Y0211967D01*
X0148157Y0211925D01*
X0148167Y0211881D01*
X0148173Y0211837D01*
X0148176Y0211792D01*
X0148175Y0211747D01*
X0148170Y0211703D01*
X0148161Y0211659D01*
X0148148Y0211616D01*
X0148132Y0211574D01*
X0148113Y0211533D01*
X0148090Y0211495D01*
X0148064Y0211458D01*
X0148035Y0211424D01*
X0148003Y0211392D01*
X0147969Y0211363D01*
X0147933Y0211338D01*
X0147894Y0211315D01*
X0147854Y0211295D01*
X0147812Y0211279D01*
X0147769Y0211267D01*
X0147725Y0211258D01*
X0147680Y0211253D01*
X0147635Y0211252D01*
X0149763Y0211252D02*
X0150791Y0211252D01*
X0150839Y0211254D01*
X0150888Y0211260D01*
X0150935Y0211269D01*
X0150982Y0211282D01*
X0151027Y0211299D01*
X0151071Y0211319D01*
X0151113Y0211343D01*
X0151154Y0211370D01*
X0151192Y0211400D01*
X0151227Y0211433D01*
X0151260Y0211468D01*
X0151290Y0211506D01*
X0151317Y0211547D01*
X0151341Y0211589D01*
X0151361Y0211633D01*
X0151378Y0211678D01*
X0151391Y0211725D01*
X0151400Y0211772D01*
X0151406Y0211821D01*
X0151408Y0211869D01*
X0151408Y0213102D01*
X0151406Y0213150D01*
X0151400Y0213199D01*
X0151391Y0213246D01*
X0151378Y0213293D01*
X0151361Y0213338D01*
X0151341Y0213382D01*
X0151317Y0213424D01*
X0151290Y0213465D01*
X0151260Y0213503D01*
X0151227Y0213538D01*
X0151192Y0213571D01*
X0151154Y0213601D01*
X0151113Y0213628D01*
X0151071Y0213652D01*
X0151027Y0213672D01*
X0150982Y0213689D01*
X0150935Y0213702D01*
X0150888Y0213711D01*
X0150839Y0213717D01*
X0150791Y0213719D01*
X0149763Y0213719D01*
X0149763Y0210019D01*
X0153071Y0211252D02*
X0153071Y0214952D01*
X0154099Y0214952D01*
X0154099Y0214953D02*
X0154162Y0214951D01*
X0154225Y0214945D01*
X0154288Y0214935D01*
X0154350Y0214922D01*
X0154411Y0214905D01*
X0154470Y0214884D01*
X0154529Y0214859D01*
X0154585Y0214831D01*
X0154640Y0214799D01*
X0154693Y0214764D01*
X0154743Y0214726D01*
X0154792Y0214685D01*
X0154837Y0214641D01*
X0154880Y0214594D01*
X0154919Y0214545D01*
X0154956Y0214493D01*
X0154989Y0214439D01*
X0155019Y0214383D01*
X0155046Y0214326D01*
X0155069Y0214267D01*
X0155088Y0214206D01*
X0155103Y0214145D01*
X0155115Y0214083D01*
X0155123Y0214020D01*
X0155127Y0213957D01*
X0155127Y0213893D01*
X0155123Y0213830D01*
X0155115Y0213767D01*
X0155103Y0213705D01*
X0155088Y0213644D01*
X0155069Y0213583D01*
X0155046Y0213524D01*
X0155019Y0213467D01*
X0154989Y0213411D01*
X0154956Y0213357D01*
X0154919Y0213305D01*
X0154880Y0213256D01*
X0154837Y0213209D01*
X0154792Y0213165D01*
X0154743Y0213124D01*
X0154693Y0213086D01*
X0154640Y0213051D01*
X0154585Y0213019D01*
X0154529Y0212991D01*
X0154470Y0212966D01*
X0154411Y0212945D01*
X0154350Y0212928D01*
X0154288Y0212915D01*
X0154225Y0212905D01*
X0154162Y0212899D01*
X0154099Y0212897D01*
X0153071Y0212897D01*
X0156447Y0213719D02*
X0156447Y0211252D01*
X0156550Y0214747D02*
X0156345Y0214747D01*
X0156345Y0214952D01*
X0156550Y0214952D01*
X0156550Y0214747D01*
X0160899Y0214295D02*
X0160899Y0212684D01*
X0160901Y0212636D01*
X0160906Y0212588D01*
X0160915Y0212541D01*
X0160928Y0212494D01*
X0160944Y0212449D01*
X0160963Y0212405D01*
X0160985Y0212362D01*
X0161011Y0212321D01*
X0161040Y0212282D01*
X0161071Y0212246D01*
X0161105Y0212212D01*
X0161141Y0212181D01*
X0161180Y0212152D01*
X0161221Y0212126D01*
X0161264Y0212104D01*
X0161308Y0212085D01*
X0161353Y0212069D01*
X0161400Y0212056D01*
X0161447Y0212047D01*
X0161495Y0212042D01*
X0161543Y0212040D01*
X0162188Y0212040D01*
X0163308Y0212040D02*
X0164275Y0212040D01*
X0164323Y0212042D01*
X0164371Y0212047D01*
X0164418Y0212056D01*
X0164465Y0212069D01*
X0164510Y0212085D01*
X0164554Y0212104D01*
X0164597Y0212126D01*
X0164638Y0212152D01*
X0164677Y0212181D01*
X0164713Y0212212D01*
X0164747Y0212246D01*
X0164778Y0212282D01*
X0164807Y0212321D01*
X0164833Y0212362D01*
X0164855Y0212405D01*
X0164874Y0212449D01*
X0164890Y0212494D01*
X0164903Y0212541D01*
X0164912Y0212588D01*
X0164917Y0212636D01*
X0164919Y0212684D01*
X0164919Y0213006D01*
X0164917Y0213054D01*
X0164912Y0213102D01*
X0164903Y0213149D01*
X0164890Y0213196D01*
X0164874Y0213241D01*
X0164855Y0213285D01*
X0164833Y0213328D01*
X0164807Y0213369D01*
X0164778Y0213408D01*
X0164747Y0213444D01*
X0164713Y0213478D01*
X0164677Y0213509D01*
X0164638Y0213538D01*
X0164597Y0213564D01*
X0164554Y0213586D01*
X0164510Y0213605D01*
X0164465Y0213621D01*
X0164418Y0213634D01*
X0164371Y0213643D01*
X0164323Y0213648D01*
X0164275Y0213650D01*
X0164275Y0213651D02*
X0163308Y0213651D01*
X0163308Y0214940D01*
X0164919Y0214940D01*
X0162188Y0214940D02*
X0161543Y0214940D01*
X0161543Y0214939D02*
X0161492Y0214937D01*
X0161442Y0214931D01*
X0161393Y0214921D01*
X0161344Y0214907D01*
X0161297Y0214890D01*
X0161251Y0214869D01*
X0161207Y0214844D01*
X0161164Y0214816D01*
X0161125Y0214785D01*
X0161088Y0214750D01*
X0161053Y0214713D01*
X0161022Y0214674D01*
X0160994Y0214631D01*
X0160969Y0214587D01*
X0160948Y0214541D01*
X0160931Y0214494D01*
X0160917Y0214445D01*
X0160907Y0214396D01*
X0160901Y0214346D01*
X0160899Y0214295D01*
X0147636Y0211252D02*
X0147521Y0211256D01*
X0147406Y0211263D01*
X0147291Y0211274D01*
X0147176Y0211289D01*
X0147062Y0211308D01*
X0146949Y0211331D01*
X0146837Y0211357D01*
X0146725Y0211387D01*
X0146615Y0211421D01*
X0146506Y0211458D01*
D12*
X0028976Y0133931D02*
X0028976Y0127797D01*
X0029960Y0122120D02*
X0029960Y0115986D01*
X0033027Y0119053D02*
X0026893Y0119053D01*
D13*
X0060398Y0104315D02*
X0061420Y0103037D01*
X0060398Y0104315D02*
X0064998Y0104315D01*
X0064998Y0103037D02*
X0064998Y0105593D01*
X0064998Y0101122D02*
X0062953Y0100099D01*
X0062953Y0099844D02*
X0062953Y0098566D01*
X0062953Y0099844D02*
X0062951Y0099914D01*
X0062945Y0099985D01*
X0062936Y0100054D01*
X0062922Y0100123D01*
X0062905Y0100192D01*
X0062884Y0100259D01*
X0062859Y0100325D01*
X0062831Y0100389D01*
X0062799Y0100452D01*
X0062764Y0100513D01*
X0062725Y0100572D01*
X0062684Y0100629D01*
X0062639Y0100683D01*
X0062591Y0100735D01*
X0062541Y0100784D01*
X0062487Y0100831D01*
X0062432Y0100874D01*
X0062374Y0100914D01*
X0062314Y0100951D01*
X0062252Y0100984D01*
X0062188Y0101014D01*
X0062123Y0101041D01*
X0062057Y0101064D01*
X0061989Y0101083D01*
X0061920Y0101098D01*
X0061851Y0101110D01*
X0061781Y0101118D01*
X0061710Y0101122D01*
X0061640Y0101122D01*
X0061569Y0101118D01*
X0061499Y0101110D01*
X0061430Y0101098D01*
X0061361Y0101083D01*
X0061293Y0101064D01*
X0061227Y0101041D01*
X0061162Y0101014D01*
X0061098Y0100984D01*
X0061036Y0100951D01*
X0060976Y0100914D01*
X0060918Y0100874D01*
X0060863Y0100831D01*
X0060809Y0100784D01*
X0060759Y0100735D01*
X0060711Y0100683D01*
X0060666Y0100629D01*
X0060625Y0100572D01*
X0060586Y0100513D01*
X0060551Y0100452D01*
X0060519Y0100389D01*
X0060491Y0100325D01*
X0060466Y0100259D01*
X0060445Y0100192D01*
X0060428Y0100123D01*
X0060414Y0100054D01*
X0060405Y0099985D01*
X0060399Y0099914D01*
X0060397Y0099844D01*
X0060398Y0099844D02*
X0060398Y0098566D01*
X0064998Y0098566D01*
X0054940Y0041611D02*
X0054940Y0037011D01*
X0053663Y0037011D02*
X0056218Y0037011D01*
X0051944Y0037011D02*
X0050922Y0037011D01*
X0050860Y0037013D01*
X0050799Y0037018D01*
X0050738Y0037028D01*
X0050677Y0037041D01*
X0050618Y0037057D01*
X0050560Y0037077D01*
X0050503Y0037101D01*
X0050447Y0037128D01*
X0050393Y0037158D01*
X0050341Y0037192D01*
X0050292Y0037228D01*
X0050244Y0037268D01*
X0050199Y0037310D01*
X0050157Y0037355D01*
X0050117Y0037403D01*
X0050081Y0037452D01*
X0050047Y0037504D01*
X0050017Y0037558D01*
X0049990Y0037614D01*
X0049966Y0037671D01*
X0049946Y0037729D01*
X0049930Y0037788D01*
X0049917Y0037849D01*
X0049907Y0037910D01*
X0049902Y0037971D01*
X0049900Y0038033D01*
X0049899Y0038033D02*
X0049899Y0040589D01*
X0049900Y0040589D02*
X0049902Y0040651D01*
X0049907Y0040712D01*
X0049917Y0040773D01*
X0049930Y0040834D01*
X0049946Y0040893D01*
X0049966Y0040951D01*
X0049990Y0041008D01*
X0050017Y0041064D01*
X0050047Y0041118D01*
X0050081Y0041170D01*
X0050117Y0041219D01*
X0050157Y0041267D01*
X0050199Y0041312D01*
X0050244Y0041354D01*
X0050292Y0041393D01*
X0050341Y0041430D01*
X0050393Y0041464D01*
X0050447Y0041494D01*
X0050503Y0041521D01*
X0050560Y0041545D01*
X0050618Y0041565D01*
X0050677Y0041581D01*
X0050738Y0041594D01*
X0050799Y0041604D01*
X0050860Y0041609D01*
X0050922Y0041611D01*
X0051944Y0041611D01*
X0053663Y0040589D02*
X0054940Y0041611D01*
X0169802Y0124531D02*
X0169802Y0129131D01*
X0171080Y0129131D01*
X0171150Y0129129D01*
X0171221Y0129123D01*
X0171290Y0129114D01*
X0171359Y0129100D01*
X0171428Y0129083D01*
X0171495Y0129062D01*
X0171561Y0129037D01*
X0171625Y0129009D01*
X0171688Y0128977D01*
X0171749Y0128942D01*
X0171808Y0128903D01*
X0171865Y0128862D01*
X0171919Y0128817D01*
X0171971Y0128769D01*
X0172020Y0128719D01*
X0172067Y0128665D01*
X0172110Y0128610D01*
X0172150Y0128552D01*
X0172187Y0128492D01*
X0172220Y0128430D01*
X0172250Y0128366D01*
X0172277Y0128301D01*
X0172300Y0128235D01*
X0172319Y0128167D01*
X0172334Y0128098D01*
X0172346Y0128029D01*
X0172354Y0127959D01*
X0172358Y0127888D01*
X0172358Y0127818D01*
X0172354Y0127747D01*
X0172346Y0127677D01*
X0172334Y0127608D01*
X0172319Y0127539D01*
X0172300Y0127471D01*
X0172277Y0127405D01*
X0172250Y0127340D01*
X0172220Y0127276D01*
X0172187Y0127214D01*
X0172150Y0127154D01*
X0172110Y0127096D01*
X0172067Y0127041D01*
X0172020Y0126987D01*
X0171971Y0126937D01*
X0171919Y0126889D01*
X0171865Y0126844D01*
X0171808Y0126803D01*
X0171749Y0126764D01*
X0171688Y0126729D01*
X0171625Y0126697D01*
X0171561Y0126669D01*
X0171495Y0126644D01*
X0171428Y0126623D01*
X0171359Y0126606D01*
X0171290Y0126592D01*
X0171221Y0126583D01*
X0171150Y0126577D01*
X0171080Y0126575D01*
X0169802Y0126575D01*
X0171335Y0126575D02*
X0172357Y0124531D01*
X0174273Y0125808D02*
X0174273Y0127086D01*
X0175806Y0127086D01*
X0174273Y0127086D02*
X0174275Y0127175D01*
X0174281Y0127264D01*
X0174290Y0127353D01*
X0174304Y0127441D01*
X0174321Y0127528D01*
X0174343Y0127615D01*
X0174368Y0127701D01*
X0174396Y0127785D01*
X0174429Y0127868D01*
X0174465Y0127950D01*
X0174504Y0128030D01*
X0174547Y0128108D01*
X0174593Y0128184D01*
X0174643Y0128258D01*
X0174695Y0128330D01*
X0174751Y0128400D01*
X0174810Y0128467D01*
X0174872Y0128531D01*
X0174936Y0128593D01*
X0175003Y0128652D01*
X0175073Y0128708D01*
X0175145Y0128760D01*
X0175219Y0128810D01*
X0175295Y0128856D01*
X0175373Y0128899D01*
X0175453Y0128938D01*
X0175535Y0128974D01*
X0175618Y0129007D01*
X0175702Y0129035D01*
X0175788Y0129060D01*
X0175875Y0129082D01*
X0175962Y0129099D01*
X0176050Y0129113D01*
X0176139Y0129122D01*
X0176228Y0129128D01*
X0176317Y0129130D01*
X0175806Y0127086D02*
X0175868Y0127084D01*
X0175929Y0127079D01*
X0175990Y0127069D01*
X0176051Y0127056D01*
X0176110Y0127040D01*
X0176168Y0127020D01*
X0176225Y0126996D01*
X0176281Y0126969D01*
X0176335Y0126939D01*
X0176387Y0126905D01*
X0176436Y0126869D01*
X0176484Y0126829D01*
X0176529Y0126787D01*
X0176571Y0126742D01*
X0176611Y0126694D01*
X0176647Y0126645D01*
X0176681Y0126593D01*
X0176711Y0126539D01*
X0176738Y0126483D01*
X0176762Y0126426D01*
X0176782Y0126368D01*
X0176798Y0126309D01*
X0176811Y0126248D01*
X0176821Y0126187D01*
X0176826Y0126126D01*
X0176828Y0126064D01*
X0176828Y0125808D01*
X0176829Y0125808D02*
X0176827Y0125738D01*
X0176821Y0125667D01*
X0176812Y0125598D01*
X0176798Y0125529D01*
X0176781Y0125460D01*
X0176760Y0125393D01*
X0176735Y0125327D01*
X0176707Y0125263D01*
X0176675Y0125200D01*
X0176640Y0125139D01*
X0176601Y0125080D01*
X0176560Y0125023D01*
X0176515Y0124969D01*
X0176467Y0124917D01*
X0176417Y0124868D01*
X0176363Y0124821D01*
X0176308Y0124778D01*
X0176250Y0124738D01*
X0176190Y0124701D01*
X0176128Y0124668D01*
X0176064Y0124638D01*
X0175999Y0124611D01*
X0175933Y0124588D01*
X0175865Y0124569D01*
X0175796Y0124554D01*
X0175727Y0124542D01*
X0175657Y0124534D01*
X0175586Y0124530D01*
X0175516Y0124530D01*
X0175445Y0124534D01*
X0175375Y0124542D01*
X0175306Y0124554D01*
X0175237Y0124569D01*
X0175169Y0124588D01*
X0175103Y0124611D01*
X0175038Y0124638D01*
X0174974Y0124668D01*
X0174912Y0124701D01*
X0174852Y0124738D01*
X0174794Y0124778D01*
X0174739Y0124821D01*
X0174685Y0124868D01*
X0174635Y0124917D01*
X0174587Y0124969D01*
X0174542Y0125023D01*
X0174501Y0125080D01*
X0174462Y0125139D01*
X0174427Y0125200D01*
X0174395Y0125263D01*
X0174367Y0125327D01*
X0174342Y0125393D01*
X0174321Y0125460D01*
X0174304Y0125529D01*
X0174290Y0125598D01*
X0174281Y0125667D01*
X0174275Y0125738D01*
X0174273Y0125808D01*
X0188467Y0139531D02*
X0189489Y0139531D01*
X0188467Y0139531D02*
X0188405Y0139533D01*
X0188344Y0139538D01*
X0188283Y0139548D01*
X0188222Y0139561D01*
X0188163Y0139577D01*
X0188105Y0139597D01*
X0188048Y0139621D01*
X0187992Y0139648D01*
X0187938Y0139678D01*
X0187886Y0139712D01*
X0187837Y0139748D01*
X0187789Y0139788D01*
X0187744Y0139830D01*
X0187702Y0139875D01*
X0187662Y0139923D01*
X0187626Y0139972D01*
X0187592Y0140024D01*
X0187562Y0140078D01*
X0187535Y0140134D01*
X0187511Y0140191D01*
X0187491Y0140249D01*
X0187475Y0140308D01*
X0187462Y0140369D01*
X0187452Y0140430D01*
X0187447Y0140491D01*
X0187445Y0140553D01*
X0187445Y0143108D01*
X0187447Y0143170D01*
X0187452Y0143231D01*
X0187462Y0143292D01*
X0187475Y0143353D01*
X0187491Y0143412D01*
X0187511Y0143470D01*
X0187535Y0143527D01*
X0187562Y0143583D01*
X0187592Y0143637D01*
X0187626Y0143689D01*
X0187662Y0143738D01*
X0187702Y0143786D01*
X0187744Y0143831D01*
X0187789Y0143873D01*
X0187837Y0143912D01*
X0187886Y0143949D01*
X0187938Y0143983D01*
X0187992Y0144013D01*
X0188048Y0144040D01*
X0188105Y0144064D01*
X0188163Y0144084D01*
X0188222Y0144100D01*
X0188283Y0144113D01*
X0188344Y0144123D01*
X0188405Y0144128D01*
X0188467Y0144130D01*
X0188467Y0144131D02*
X0189489Y0144131D01*
X0191208Y0143108D02*
X0192486Y0144131D01*
X0192486Y0139531D01*
X0193763Y0139531D02*
X0191208Y0139531D01*
X0195708Y0139531D02*
X0198263Y0139531D01*
X0195708Y0139531D02*
X0197880Y0142086D01*
X0197113Y0144130D02*
X0197039Y0144128D01*
X0196965Y0144123D01*
X0196891Y0144113D01*
X0196818Y0144100D01*
X0196745Y0144084D01*
X0196674Y0144063D01*
X0196604Y0144039D01*
X0196535Y0144012D01*
X0196467Y0143981D01*
X0196401Y0143947D01*
X0196337Y0143910D01*
X0196275Y0143869D01*
X0196215Y0143825D01*
X0196157Y0143779D01*
X0196101Y0143729D01*
X0196048Y0143677D01*
X0195998Y0143622D01*
X0195951Y0143565D01*
X0195907Y0143505D01*
X0195865Y0143443D01*
X0195827Y0143380D01*
X0195792Y0143314D01*
X0195761Y0143247D01*
X0195733Y0143178D01*
X0195708Y0143108D01*
X0197880Y0142087D02*
X0197927Y0142134D01*
X0197971Y0142184D01*
X0198013Y0142236D01*
X0198052Y0142290D01*
X0198087Y0142346D01*
X0198120Y0142404D01*
X0198150Y0142464D01*
X0198176Y0142525D01*
X0198199Y0142588D01*
X0198218Y0142652D01*
X0198234Y0142716D01*
X0198247Y0142782D01*
X0198256Y0142848D01*
X0198261Y0142914D01*
X0198263Y0142981D01*
X0198261Y0143048D01*
X0198255Y0143115D01*
X0198246Y0143181D01*
X0198232Y0143246D01*
X0198215Y0143311D01*
X0198194Y0143374D01*
X0198169Y0143436D01*
X0198141Y0143497D01*
X0198109Y0143556D01*
X0198074Y0143613D01*
X0198035Y0143668D01*
X0197994Y0143720D01*
X0197949Y0143770D01*
X0197902Y0143817D01*
X0197852Y0143862D01*
X0197800Y0143903D01*
X0197745Y0143942D01*
X0197688Y0143977D01*
X0197629Y0144009D01*
X0197568Y0144037D01*
X0197506Y0144062D01*
X0197443Y0144083D01*
X0197378Y0144100D01*
X0197313Y0144114D01*
X0197247Y0144123D01*
X0197180Y0144129D01*
X0197113Y0144131D01*
X0202366Y0089328D02*
X0206966Y0088050D01*
X0206966Y0085053D02*
X0206966Y0084031D01*
X0206964Y0083969D01*
X0206959Y0083908D01*
X0206949Y0083847D01*
X0206936Y0083786D01*
X0206920Y0083727D01*
X0206900Y0083669D01*
X0206876Y0083612D01*
X0206849Y0083556D01*
X0206819Y0083502D01*
X0206785Y0083450D01*
X0206749Y0083401D01*
X0206709Y0083353D01*
X0206667Y0083308D01*
X0206622Y0083266D01*
X0206574Y0083226D01*
X0206525Y0083190D01*
X0206473Y0083156D01*
X0206419Y0083126D01*
X0206363Y0083099D01*
X0206306Y0083075D01*
X0206248Y0083055D01*
X0206189Y0083039D01*
X0206128Y0083026D01*
X0206067Y0083016D01*
X0206006Y0083011D01*
X0205944Y0083009D01*
X0203388Y0083009D01*
X0203326Y0083011D01*
X0203265Y0083016D01*
X0203204Y0083026D01*
X0203143Y0083039D01*
X0203084Y0083055D01*
X0203026Y0083075D01*
X0202969Y0083099D01*
X0202913Y0083126D01*
X0202859Y0083156D01*
X0202807Y0083190D01*
X0202758Y0083226D01*
X0202710Y0083266D01*
X0202665Y0083308D01*
X0202623Y0083353D01*
X0202584Y0083401D01*
X0202547Y0083450D01*
X0202513Y0083502D01*
X0202483Y0083556D01*
X0202456Y0083612D01*
X0202432Y0083669D01*
X0202412Y0083727D01*
X0202396Y0083786D01*
X0202383Y0083847D01*
X0202373Y0083908D01*
X0202368Y0083969D01*
X0202366Y0084031D01*
X0202366Y0085053D01*
X0202366Y0086772D02*
X0202366Y0089328D01*
X0202366Y0086772D02*
X0202877Y0086772D01*
X0190824Y0085053D02*
X0190824Y0084031D01*
X0190822Y0083969D01*
X0190817Y0083908D01*
X0190807Y0083847D01*
X0190794Y0083786D01*
X0190778Y0083727D01*
X0190758Y0083669D01*
X0190734Y0083612D01*
X0190707Y0083556D01*
X0190677Y0083502D01*
X0190643Y0083450D01*
X0190607Y0083401D01*
X0190567Y0083353D01*
X0190525Y0083308D01*
X0190480Y0083266D01*
X0190432Y0083226D01*
X0190383Y0083190D01*
X0190331Y0083156D01*
X0190277Y0083126D01*
X0190221Y0083099D01*
X0190164Y0083075D01*
X0190106Y0083055D01*
X0190047Y0083039D01*
X0189986Y0083026D01*
X0189925Y0083016D01*
X0189864Y0083011D01*
X0189802Y0083009D01*
X0187247Y0083009D01*
X0187185Y0083011D01*
X0187124Y0083016D01*
X0187063Y0083026D01*
X0187002Y0083039D01*
X0186943Y0083055D01*
X0186885Y0083075D01*
X0186828Y0083099D01*
X0186772Y0083126D01*
X0186718Y0083156D01*
X0186666Y0083190D01*
X0186617Y0083226D01*
X0186569Y0083266D01*
X0186524Y0083308D01*
X0186482Y0083353D01*
X0186443Y0083401D01*
X0186406Y0083450D01*
X0186372Y0083502D01*
X0186342Y0083556D01*
X0186315Y0083612D01*
X0186291Y0083669D01*
X0186271Y0083727D01*
X0186255Y0083786D01*
X0186242Y0083847D01*
X0186232Y0083908D01*
X0186227Y0083969D01*
X0186225Y0084031D01*
X0186224Y0084031D02*
X0186224Y0085053D01*
X0183895Y0084783D02*
X0181851Y0083761D01*
X0181851Y0083505D02*
X0181851Y0082228D01*
X0181851Y0083505D02*
X0181849Y0083575D01*
X0181843Y0083646D01*
X0181834Y0083715D01*
X0181820Y0083784D01*
X0181803Y0083853D01*
X0181782Y0083920D01*
X0181757Y0083986D01*
X0181729Y0084050D01*
X0181697Y0084113D01*
X0181662Y0084174D01*
X0181623Y0084233D01*
X0181582Y0084290D01*
X0181537Y0084344D01*
X0181489Y0084396D01*
X0181439Y0084445D01*
X0181385Y0084492D01*
X0181330Y0084535D01*
X0181272Y0084575D01*
X0181212Y0084612D01*
X0181150Y0084645D01*
X0181086Y0084675D01*
X0181021Y0084702D01*
X0180955Y0084725D01*
X0180887Y0084744D01*
X0180818Y0084759D01*
X0180749Y0084771D01*
X0180679Y0084779D01*
X0180608Y0084783D01*
X0180538Y0084783D01*
X0180467Y0084779D01*
X0180397Y0084771D01*
X0180328Y0084759D01*
X0180259Y0084744D01*
X0180191Y0084725D01*
X0180125Y0084702D01*
X0180060Y0084675D01*
X0179996Y0084645D01*
X0179934Y0084612D01*
X0179874Y0084575D01*
X0179816Y0084535D01*
X0179761Y0084492D01*
X0179707Y0084445D01*
X0179657Y0084396D01*
X0179609Y0084344D01*
X0179564Y0084290D01*
X0179523Y0084233D01*
X0179484Y0084174D01*
X0179449Y0084113D01*
X0179417Y0084050D01*
X0179389Y0083986D01*
X0179364Y0083920D01*
X0179343Y0083853D01*
X0179326Y0083784D01*
X0179312Y0083715D01*
X0179303Y0083646D01*
X0179297Y0083575D01*
X0179295Y0083505D01*
X0179295Y0082228D01*
X0183895Y0082228D01*
X0183895Y0086699D02*
X0183895Y0088232D01*
X0183893Y0088294D01*
X0183888Y0088355D01*
X0183878Y0088416D01*
X0183865Y0088477D01*
X0183849Y0088536D01*
X0183829Y0088594D01*
X0183805Y0088651D01*
X0183778Y0088707D01*
X0183748Y0088761D01*
X0183714Y0088813D01*
X0183678Y0088862D01*
X0183638Y0088910D01*
X0183596Y0088955D01*
X0183551Y0088997D01*
X0183503Y0089037D01*
X0183454Y0089073D01*
X0183402Y0089107D01*
X0183348Y0089137D01*
X0183292Y0089164D01*
X0183235Y0089188D01*
X0183177Y0089208D01*
X0183118Y0089224D01*
X0183057Y0089237D01*
X0182996Y0089247D01*
X0182935Y0089252D01*
X0182873Y0089254D01*
X0182362Y0089254D01*
X0182300Y0089252D01*
X0182239Y0089247D01*
X0182178Y0089237D01*
X0182117Y0089224D01*
X0182058Y0089208D01*
X0182000Y0089188D01*
X0181943Y0089164D01*
X0181887Y0089137D01*
X0181833Y0089107D01*
X0181781Y0089073D01*
X0181732Y0089037D01*
X0181684Y0088997D01*
X0181639Y0088955D01*
X0181597Y0088910D01*
X0181557Y0088862D01*
X0181521Y0088813D01*
X0181487Y0088761D01*
X0181457Y0088707D01*
X0181430Y0088651D01*
X0181406Y0088594D01*
X0181386Y0088536D01*
X0181370Y0088477D01*
X0181357Y0088416D01*
X0181347Y0088355D01*
X0181342Y0088294D01*
X0181340Y0088232D01*
X0181340Y0086699D01*
X0179295Y0086699D01*
X0179295Y0089254D01*
X0186225Y0088816D02*
X0186227Y0088727D01*
X0186233Y0088638D01*
X0186242Y0088549D01*
X0186256Y0088461D01*
X0186273Y0088374D01*
X0186295Y0088287D01*
X0186320Y0088201D01*
X0186348Y0088117D01*
X0186381Y0088034D01*
X0186417Y0087952D01*
X0186456Y0087872D01*
X0186499Y0087794D01*
X0186545Y0087718D01*
X0186595Y0087644D01*
X0186647Y0087572D01*
X0186703Y0087502D01*
X0186762Y0087435D01*
X0186824Y0087371D01*
X0186888Y0087309D01*
X0186955Y0087250D01*
X0187025Y0087194D01*
X0187097Y0087142D01*
X0187171Y0087092D01*
X0187247Y0087046D01*
X0187325Y0087003D01*
X0187405Y0086964D01*
X0187487Y0086928D01*
X0187570Y0086895D01*
X0187654Y0086867D01*
X0187740Y0086842D01*
X0187827Y0086820D01*
X0187914Y0086803D01*
X0188002Y0086789D01*
X0188091Y0086780D01*
X0188180Y0086774D01*
X0188269Y0086772D01*
X0189547Y0086772D01*
X0189617Y0086774D01*
X0189688Y0086780D01*
X0189757Y0086789D01*
X0189826Y0086803D01*
X0189895Y0086820D01*
X0189962Y0086841D01*
X0190028Y0086866D01*
X0190092Y0086894D01*
X0190155Y0086926D01*
X0190216Y0086961D01*
X0190275Y0087000D01*
X0190332Y0087041D01*
X0190386Y0087086D01*
X0190438Y0087134D01*
X0190487Y0087184D01*
X0190534Y0087238D01*
X0190577Y0087293D01*
X0190617Y0087351D01*
X0190654Y0087411D01*
X0190687Y0087473D01*
X0190717Y0087537D01*
X0190744Y0087602D01*
X0190767Y0087668D01*
X0190786Y0087736D01*
X0190801Y0087805D01*
X0190813Y0087874D01*
X0190821Y0087944D01*
X0190825Y0088015D01*
X0190825Y0088085D01*
X0190821Y0088156D01*
X0190813Y0088226D01*
X0190801Y0088295D01*
X0190786Y0088364D01*
X0190767Y0088432D01*
X0190744Y0088498D01*
X0190717Y0088563D01*
X0190687Y0088627D01*
X0190654Y0088689D01*
X0190617Y0088749D01*
X0190577Y0088807D01*
X0190534Y0088862D01*
X0190487Y0088916D01*
X0190438Y0088966D01*
X0190386Y0089014D01*
X0190332Y0089059D01*
X0190275Y0089100D01*
X0190216Y0089139D01*
X0190155Y0089174D01*
X0190092Y0089206D01*
X0190028Y0089234D01*
X0189962Y0089259D01*
X0189895Y0089280D01*
X0189826Y0089297D01*
X0189757Y0089311D01*
X0189688Y0089320D01*
X0189617Y0089326D01*
X0189547Y0089328D01*
X0189291Y0089328D01*
X0189291Y0089327D02*
X0189229Y0089325D01*
X0189168Y0089320D01*
X0189107Y0089310D01*
X0189046Y0089297D01*
X0188987Y0089281D01*
X0188929Y0089261D01*
X0188872Y0089237D01*
X0188816Y0089210D01*
X0188762Y0089180D01*
X0188710Y0089146D01*
X0188661Y0089110D01*
X0188613Y0089070D01*
X0188568Y0089028D01*
X0188526Y0088983D01*
X0188486Y0088935D01*
X0188450Y0088886D01*
X0188416Y0088834D01*
X0188386Y0088780D01*
X0188359Y0088724D01*
X0188335Y0088667D01*
X0188315Y0088609D01*
X0188299Y0088550D01*
X0188286Y0088489D01*
X0188276Y0088428D01*
X0188271Y0088367D01*
X0188269Y0088305D01*
X0188269Y0086772D01*
X0100025Y0154058D02*
X0097470Y0154058D01*
X0098747Y0154058D02*
X0098747Y0158658D01*
X0097470Y0157636D01*
X0095751Y0158658D02*
X0094729Y0158658D01*
X0094667Y0158656D01*
X0094606Y0158651D01*
X0094545Y0158641D01*
X0094484Y0158628D01*
X0094425Y0158612D01*
X0094367Y0158592D01*
X0094310Y0158568D01*
X0094254Y0158541D01*
X0094200Y0158511D01*
X0094148Y0158477D01*
X0094099Y0158440D01*
X0094051Y0158401D01*
X0094006Y0158359D01*
X0093964Y0158314D01*
X0093924Y0158266D01*
X0093888Y0158217D01*
X0093854Y0158165D01*
X0093824Y0158111D01*
X0093797Y0158055D01*
X0093773Y0157998D01*
X0093753Y0157940D01*
X0093737Y0157881D01*
X0093724Y0157820D01*
X0093714Y0157759D01*
X0093709Y0157698D01*
X0093707Y0157636D01*
X0093707Y0155080D01*
X0093709Y0155018D01*
X0093714Y0154957D01*
X0093724Y0154896D01*
X0093737Y0154835D01*
X0093753Y0154776D01*
X0093773Y0154718D01*
X0093797Y0154661D01*
X0093824Y0154605D01*
X0093854Y0154551D01*
X0093888Y0154499D01*
X0093924Y0154450D01*
X0093964Y0154402D01*
X0094006Y0154357D01*
X0094051Y0154315D01*
X0094099Y0154275D01*
X0094148Y0154239D01*
X0094200Y0154205D01*
X0094254Y0154175D01*
X0094310Y0154148D01*
X0094367Y0154124D01*
X0094425Y0154104D01*
X0094484Y0154088D01*
X0094545Y0154075D01*
X0094606Y0154065D01*
X0094667Y0154060D01*
X0094729Y0154058D01*
X0095751Y0154058D01*
X0104142Y0154697D02*
X0104190Y0154801D01*
X0104236Y0154906D01*
X0104278Y0155012D01*
X0104317Y0155120D01*
X0104353Y0155229D01*
X0104385Y0155339D01*
X0104415Y0155450D01*
X0104440Y0155562D01*
X0104463Y0155674D01*
X0104482Y0155787D01*
X0104497Y0155901D01*
X0104509Y0156015D01*
X0104518Y0156129D01*
X0104523Y0156243D01*
X0104525Y0156358D01*
X0101969Y0156358D02*
X0101971Y0156473D01*
X0101976Y0156587D01*
X0101985Y0156701D01*
X0101997Y0156815D01*
X0102012Y0156929D01*
X0102031Y0157042D01*
X0102054Y0157154D01*
X0102079Y0157266D01*
X0102109Y0157377D01*
X0102141Y0157487D01*
X0102177Y0157596D01*
X0102216Y0157704D01*
X0102258Y0157810D01*
X0102304Y0157915D01*
X0102352Y0158019D01*
X0103247Y0158659D02*
X0103306Y0158657D01*
X0103364Y0158652D01*
X0103422Y0158643D01*
X0103479Y0158630D01*
X0103536Y0158614D01*
X0103591Y0158594D01*
X0103645Y0158571D01*
X0103697Y0158545D01*
X0103748Y0158515D01*
X0103797Y0158483D01*
X0103844Y0158447D01*
X0103888Y0158409D01*
X0103930Y0158368D01*
X0103969Y0158324D01*
X0104006Y0158278D01*
X0104039Y0158230D01*
X0104070Y0158180D01*
X0104097Y0158128D01*
X0104121Y0158075D01*
X0104142Y0158020D01*
X0104270Y0157636D02*
X0102225Y0155080D01*
X0103247Y0154058D02*
X0103306Y0154060D01*
X0103364Y0154065D01*
X0103422Y0154074D01*
X0103479Y0154087D01*
X0103536Y0154103D01*
X0103591Y0154123D01*
X0103645Y0154146D01*
X0103697Y0154172D01*
X0103748Y0154202D01*
X0103797Y0154234D01*
X0103844Y0154270D01*
X0103888Y0154308D01*
X0103930Y0154349D01*
X0103969Y0154393D01*
X0104006Y0154439D01*
X0104039Y0154487D01*
X0104070Y0154537D01*
X0104097Y0154589D01*
X0104121Y0154642D01*
X0104142Y0154697D01*
X0103247Y0154058D02*
X0103188Y0154060D01*
X0103130Y0154065D01*
X0103072Y0154074D01*
X0103015Y0154087D01*
X0102958Y0154103D01*
X0102903Y0154123D01*
X0102849Y0154146D01*
X0102797Y0154172D01*
X0102746Y0154202D01*
X0102697Y0154234D01*
X0102650Y0154270D01*
X0102606Y0154308D01*
X0102564Y0154349D01*
X0102525Y0154393D01*
X0102488Y0154439D01*
X0102455Y0154487D01*
X0102424Y0154537D01*
X0102397Y0154589D01*
X0102373Y0154642D01*
X0102352Y0154697D01*
X0104525Y0156358D02*
X0104523Y0156473D01*
X0104518Y0156587D01*
X0104509Y0156701D01*
X0104497Y0156815D01*
X0104482Y0156929D01*
X0104463Y0157042D01*
X0104440Y0157154D01*
X0104415Y0157266D01*
X0104385Y0157377D01*
X0104353Y0157487D01*
X0104317Y0157596D01*
X0104278Y0157704D01*
X0104236Y0157810D01*
X0104190Y0157915D01*
X0104142Y0158019D01*
X0103247Y0158659D02*
X0103188Y0158657D01*
X0103130Y0158652D01*
X0103072Y0158643D01*
X0103015Y0158630D01*
X0102958Y0158614D01*
X0102903Y0158594D01*
X0102849Y0158571D01*
X0102797Y0158545D01*
X0102746Y0158515D01*
X0102697Y0158483D01*
X0102650Y0158447D01*
X0102606Y0158409D01*
X0102564Y0158368D01*
X0102525Y0158324D01*
X0102488Y0158278D01*
X0102455Y0158230D01*
X0102424Y0158180D01*
X0102397Y0158128D01*
X0102373Y0158075D01*
X0102352Y0158020D01*
X0101969Y0156358D02*
X0101971Y0156243D01*
X0101976Y0156129D01*
X0101985Y0156015D01*
X0101997Y0155901D01*
X0102012Y0155787D01*
X0102031Y0155674D01*
X0102054Y0155562D01*
X0102079Y0155450D01*
X0102109Y0155339D01*
X0102141Y0155229D01*
X0102177Y0155120D01*
X0102216Y0155012D01*
X0102258Y0154906D01*
X0102304Y0154801D01*
X0102352Y0154697D01*
X0103705Y0165495D02*
X0103705Y0166773D01*
X0103707Y0166843D01*
X0103713Y0166914D01*
X0103722Y0166983D01*
X0103736Y0167052D01*
X0103753Y0167121D01*
X0103774Y0167188D01*
X0103799Y0167254D01*
X0103827Y0167318D01*
X0103859Y0167381D01*
X0103894Y0167442D01*
X0103933Y0167501D01*
X0103974Y0167558D01*
X0104019Y0167612D01*
X0104067Y0167664D01*
X0104117Y0167713D01*
X0104171Y0167760D01*
X0104226Y0167803D01*
X0104284Y0167843D01*
X0104344Y0167880D01*
X0104406Y0167913D01*
X0104470Y0167943D01*
X0104535Y0167970D01*
X0104601Y0167993D01*
X0104669Y0168012D01*
X0104738Y0168027D01*
X0104807Y0168039D01*
X0104877Y0168047D01*
X0104948Y0168051D01*
X0105018Y0168051D01*
X0105089Y0168047D01*
X0105159Y0168039D01*
X0105228Y0168027D01*
X0105297Y0168012D01*
X0105365Y0167993D01*
X0105431Y0167970D01*
X0105496Y0167943D01*
X0105560Y0167913D01*
X0105622Y0167880D01*
X0105682Y0167843D01*
X0105740Y0167803D01*
X0105795Y0167760D01*
X0105849Y0167713D01*
X0105899Y0167664D01*
X0105947Y0167612D01*
X0105992Y0167558D01*
X0106033Y0167501D01*
X0106072Y0167442D01*
X0106107Y0167381D01*
X0106139Y0167318D01*
X0106167Y0167254D01*
X0106192Y0167188D01*
X0106213Y0167121D01*
X0106230Y0167052D01*
X0106244Y0166983D01*
X0106253Y0166914D01*
X0106259Y0166843D01*
X0106261Y0166773D01*
X0106260Y0166773D02*
X0106260Y0165495D01*
X0106260Y0167029D02*
X0108305Y0168051D01*
X0108305Y0165495D02*
X0103705Y0165495D01*
X0103705Y0169966D02*
X0103705Y0172522D01*
X0108305Y0171244D01*
X0104216Y0169966D02*
X0103705Y0169966D01*
X0103705Y0185968D02*
X0103705Y0187245D01*
X0103705Y0185968D02*
X0108305Y0185968D01*
X0106260Y0185968D02*
X0106260Y0187245D01*
X0106260Y0187501D02*
X0108305Y0188523D01*
X0107027Y0190438D02*
X0107097Y0190440D01*
X0107168Y0190446D01*
X0107237Y0190455D01*
X0107306Y0190469D01*
X0107375Y0190486D01*
X0107442Y0190507D01*
X0107508Y0190532D01*
X0107572Y0190560D01*
X0107635Y0190592D01*
X0107696Y0190627D01*
X0107755Y0190666D01*
X0107812Y0190707D01*
X0107866Y0190752D01*
X0107918Y0190800D01*
X0107967Y0190850D01*
X0108014Y0190904D01*
X0108057Y0190959D01*
X0108097Y0191017D01*
X0108134Y0191077D01*
X0108167Y0191139D01*
X0108197Y0191203D01*
X0108224Y0191268D01*
X0108247Y0191334D01*
X0108266Y0191402D01*
X0108281Y0191471D01*
X0108293Y0191540D01*
X0108301Y0191610D01*
X0108305Y0191681D01*
X0108305Y0191751D01*
X0108301Y0191822D01*
X0108293Y0191892D01*
X0108281Y0191961D01*
X0108266Y0192030D01*
X0108247Y0192098D01*
X0108224Y0192164D01*
X0108197Y0192229D01*
X0108167Y0192293D01*
X0108134Y0192355D01*
X0108097Y0192415D01*
X0108057Y0192473D01*
X0108014Y0192528D01*
X0107967Y0192582D01*
X0107918Y0192632D01*
X0107866Y0192680D01*
X0107812Y0192725D01*
X0107755Y0192766D01*
X0107696Y0192805D01*
X0107635Y0192840D01*
X0107572Y0192872D01*
X0107508Y0192900D01*
X0107442Y0192925D01*
X0107375Y0192946D01*
X0107306Y0192963D01*
X0107237Y0192977D01*
X0107168Y0192986D01*
X0107097Y0192992D01*
X0107027Y0192994D01*
X0106957Y0192992D01*
X0106886Y0192986D01*
X0106817Y0192977D01*
X0106748Y0192963D01*
X0106679Y0192946D01*
X0106612Y0192925D01*
X0106546Y0192900D01*
X0106482Y0192872D01*
X0106419Y0192840D01*
X0106358Y0192805D01*
X0106299Y0192766D01*
X0106242Y0192725D01*
X0106188Y0192680D01*
X0106136Y0192632D01*
X0106087Y0192582D01*
X0106040Y0192528D01*
X0105997Y0192473D01*
X0105957Y0192415D01*
X0105920Y0192355D01*
X0105887Y0192293D01*
X0105857Y0192229D01*
X0105830Y0192164D01*
X0105807Y0192098D01*
X0105788Y0192030D01*
X0105773Y0191961D01*
X0105761Y0191892D01*
X0105753Y0191822D01*
X0105749Y0191751D01*
X0105749Y0191681D01*
X0105753Y0191610D01*
X0105761Y0191540D01*
X0105773Y0191471D01*
X0105788Y0191402D01*
X0105807Y0191334D01*
X0105830Y0191268D01*
X0105857Y0191203D01*
X0105887Y0191139D01*
X0105920Y0191077D01*
X0105957Y0191017D01*
X0105997Y0190959D01*
X0106040Y0190904D01*
X0106087Y0190850D01*
X0106136Y0190800D01*
X0106188Y0190752D01*
X0106242Y0190707D01*
X0106299Y0190666D01*
X0106358Y0190627D01*
X0106419Y0190592D01*
X0106482Y0190560D01*
X0106546Y0190532D01*
X0106612Y0190507D01*
X0106679Y0190486D01*
X0106748Y0190469D01*
X0106817Y0190455D01*
X0106886Y0190446D01*
X0106957Y0190440D01*
X0107027Y0190438D01*
X0104727Y0190694D02*
X0104790Y0190696D01*
X0104853Y0190702D01*
X0104915Y0190711D01*
X0104976Y0190725D01*
X0105037Y0190742D01*
X0105096Y0190763D01*
X0105154Y0190788D01*
X0105211Y0190816D01*
X0105265Y0190847D01*
X0105317Y0190882D01*
X0105368Y0190920D01*
X0105416Y0190961D01*
X0105461Y0191005D01*
X0105503Y0191051D01*
X0105543Y0191100D01*
X0105579Y0191151D01*
X0105612Y0191205D01*
X0105642Y0191260D01*
X0105668Y0191318D01*
X0105691Y0191376D01*
X0105710Y0191436D01*
X0105725Y0191497D01*
X0105737Y0191559D01*
X0105745Y0191622D01*
X0105749Y0191685D01*
X0105749Y0191747D01*
X0105745Y0191810D01*
X0105737Y0191873D01*
X0105725Y0191935D01*
X0105710Y0191996D01*
X0105691Y0192056D01*
X0105668Y0192114D01*
X0105642Y0192172D01*
X0105612Y0192227D01*
X0105579Y0192281D01*
X0105543Y0192332D01*
X0105503Y0192381D01*
X0105461Y0192427D01*
X0105416Y0192471D01*
X0105368Y0192512D01*
X0105317Y0192550D01*
X0105265Y0192585D01*
X0105211Y0192616D01*
X0105154Y0192644D01*
X0105096Y0192669D01*
X0105037Y0192690D01*
X0104976Y0192707D01*
X0104915Y0192721D01*
X0104853Y0192730D01*
X0104790Y0192736D01*
X0104727Y0192738D01*
X0104664Y0192736D01*
X0104601Y0192730D01*
X0104539Y0192721D01*
X0104478Y0192707D01*
X0104417Y0192690D01*
X0104358Y0192669D01*
X0104300Y0192644D01*
X0104243Y0192616D01*
X0104189Y0192585D01*
X0104137Y0192550D01*
X0104086Y0192512D01*
X0104038Y0192471D01*
X0103993Y0192427D01*
X0103951Y0192381D01*
X0103911Y0192332D01*
X0103875Y0192281D01*
X0103842Y0192227D01*
X0103812Y0192172D01*
X0103786Y0192114D01*
X0103763Y0192056D01*
X0103744Y0191996D01*
X0103729Y0191935D01*
X0103717Y0191873D01*
X0103709Y0191810D01*
X0103705Y0191747D01*
X0103705Y0191685D01*
X0103709Y0191622D01*
X0103717Y0191559D01*
X0103729Y0191497D01*
X0103744Y0191436D01*
X0103763Y0191376D01*
X0103786Y0191318D01*
X0103812Y0191260D01*
X0103842Y0191205D01*
X0103875Y0191151D01*
X0103911Y0191100D01*
X0103951Y0191051D01*
X0103993Y0191005D01*
X0104038Y0190961D01*
X0104086Y0190920D01*
X0104137Y0190882D01*
X0104189Y0190847D01*
X0104243Y0190816D01*
X0104300Y0190788D01*
X0104358Y0190763D01*
X0104417Y0190742D01*
X0104478Y0190725D01*
X0104539Y0190711D01*
X0104601Y0190702D01*
X0104664Y0190696D01*
X0104727Y0190694D01*
X0103705Y0187245D02*
X0103707Y0187315D01*
X0103713Y0187386D01*
X0103722Y0187455D01*
X0103736Y0187524D01*
X0103753Y0187593D01*
X0103774Y0187660D01*
X0103799Y0187726D01*
X0103827Y0187790D01*
X0103859Y0187853D01*
X0103894Y0187914D01*
X0103933Y0187973D01*
X0103974Y0188030D01*
X0104019Y0188084D01*
X0104067Y0188136D01*
X0104117Y0188185D01*
X0104171Y0188232D01*
X0104226Y0188275D01*
X0104284Y0188315D01*
X0104344Y0188352D01*
X0104406Y0188385D01*
X0104470Y0188415D01*
X0104535Y0188442D01*
X0104601Y0188465D01*
X0104669Y0188484D01*
X0104738Y0188499D01*
X0104807Y0188511D01*
X0104877Y0188519D01*
X0104948Y0188523D01*
X0105018Y0188523D01*
X0105089Y0188519D01*
X0105159Y0188511D01*
X0105228Y0188499D01*
X0105297Y0188484D01*
X0105365Y0188465D01*
X0105431Y0188442D01*
X0105496Y0188415D01*
X0105560Y0188385D01*
X0105622Y0188352D01*
X0105682Y0188315D01*
X0105740Y0188275D01*
X0105795Y0188232D01*
X0105849Y0188185D01*
X0105899Y0188136D01*
X0105947Y0188084D01*
X0105992Y0188030D01*
X0106033Y0187973D01*
X0106072Y0187914D01*
X0106107Y0187853D01*
X0106139Y0187790D01*
X0106167Y0187726D01*
X0106192Y0187660D01*
X0106213Y0187593D01*
X0106230Y0187524D01*
X0106244Y0187455D01*
X0106253Y0187386D01*
X0106259Y0187315D01*
X0106261Y0187245D01*
D14*
X0127284Y0179606D02*
X0127284Y0178819D01*
X0143032Y0178819D01*
X0143032Y0179606D01*
X0130658Y0180449D02*
X0130658Y0194906D01*
X0129844Y0197323D02*
X0129846Y0197385D01*
X0129852Y0197448D01*
X0129862Y0197509D01*
X0129876Y0197570D01*
X0129893Y0197630D01*
X0129914Y0197689D01*
X0129940Y0197746D01*
X0129968Y0197801D01*
X0130000Y0197855D01*
X0130036Y0197906D01*
X0130074Y0197956D01*
X0130116Y0198002D01*
X0130160Y0198046D01*
X0130208Y0198087D01*
X0130257Y0198125D01*
X0130309Y0198159D01*
X0130363Y0198190D01*
X0130419Y0198218D01*
X0130477Y0198242D01*
X0130536Y0198263D01*
X0130596Y0198279D01*
X0130657Y0198292D01*
X0130719Y0198301D01*
X0130781Y0198306D01*
X0130844Y0198307D01*
X0130906Y0198304D01*
X0130968Y0198297D01*
X0131030Y0198286D01*
X0131090Y0198271D01*
X0131150Y0198253D01*
X0131208Y0198231D01*
X0131265Y0198205D01*
X0131320Y0198175D01*
X0131373Y0198142D01*
X0131424Y0198106D01*
X0131472Y0198067D01*
X0131518Y0198024D01*
X0131561Y0197979D01*
X0131601Y0197931D01*
X0131638Y0197881D01*
X0131672Y0197828D01*
X0131703Y0197774D01*
X0131729Y0197718D01*
X0131753Y0197660D01*
X0131772Y0197600D01*
X0131788Y0197540D01*
X0131800Y0197478D01*
X0131808Y0197417D01*
X0131812Y0197354D01*
X0131812Y0197292D01*
X0131808Y0197229D01*
X0131800Y0197168D01*
X0131788Y0197106D01*
X0131772Y0197046D01*
X0131753Y0196986D01*
X0131729Y0196928D01*
X0131703Y0196872D01*
X0131672Y0196818D01*
X0131638Y0196765D01*
X0131601Y0196715D01*
X0131561Y0196667D01*
X0131518Y0196622D01*
X0131472Y0196579D01*
X0131424Y0196540D01*
X0131373Y0196504D01*
X0131320Y0196471D01*
X0131265Y0196441D01*
X0131208Y0196415D01*
X0131150Y0196393D01*
X0131090Y0196375D01*
X0131030Y0196360D01*
X0130968Y0196349D01*
X0130906Y0196342D01*
X0130844Y0196339D01*
X0130781Y0196340D01*
X0130719Y0196345D01*
X0130657Y0196354D01*
X0130596Y0196367D01*
X0130536Y0196383D01*
X0130477Y0196404D01*
X0130419Y0196428D01*
X0130363Y0196456D01*
X0130309Y0196487D01*
X0130257Y0196521D01*
X0130208Y0196559D01*
X0130160Y0196600D01*
X0130116Y0196644D01*
X0130074Y0196690D01*
X0130036Y0196740D01*
X0130000Y0196791D01*
X0129968Y0196845D01*
X0129940Y0196900D01*
X0129914Y0196957D01*
X0129893Y0197016D01*
X0129876Y0197076D01*
X0129862Y0197137D01*
X0129852Y0197198D01*
X0129846Y0197261D01*
X0129844Y0197323D01*
X0127284Y0199291D02*
X0127284Y0200079D01*
X0143032Y0200079D01*
X0143032Y0199291D01*
X0159568Y0201654D02*
X0163505Y0201654D01*
X0161536Y0203622D02*
X0161536Y0199685D01*
X0152875Y0195354D02*
X0152880Y0195740D01*
X0152894Y0196127D01*
X0152918Y0196512D01*
X0152951Y0196898D01*
X0152993Y0197282D01*
X0153045Y0197665D01*
X0153107Y0198046D01*
X0153178Y0198426D01*
X0153258Y0198804D01*
X0153347Y0199180D01*
X0153445Y0199554D01*
X0153553Y0199925D01*
X0153670Y0200294D01*
X0153796Y0200659D01*
X0153930Y0201022D01*
X0154074Y0201380D01*
X0154226Y0201736D01*
X0154387Y0202087D01*
X0154557Y0202434D01*
X0154735Y0202778D01*
X0154921Y0203116D01*
X0155115Y0203450D01*
X0155318Y0203779D01*
X0155529Y0204103D01*
X0155748Y0204422D01*
X0155974Y0204735D01*
X0156208Y0205043D01*
X0156450Y0205344D01*
X0156698Y0205640D01*
X0156955Y0205930D01*
X0157218Y0206213D01*
X0157487Y0206490D01*
X0157764Y0206759D01*
X0158047Y0207022D01*
X0158337Y0207279D01*
X0158633Y0207527D01*
X0158934Y0207769D01*
X0159242Y0208003D01*
X0159555Y0208229D01*
X0159874Y0208448D01*
X0160198Y0208659D01*
X0160527Y0208862D01*
X0160861Y0209056D01*
X0161199Y0209242D01*
X0161543Y0209420D01*
X0161890Y0209590D01*
X0162241Y0209751D01*
X0162597Y0209903D01*
X0162955Y0210047D01*
X0163318Y0210181D01*
X0163683Y0210307D01*
X0164052Y0210424D01*
X0164423Y0210532D01*
X0164797Y0210630D01*
X0165173Y0210719D01*
X0165551Y0210799D01*
X0165931Y0210870D01*
X0166312Y0210932D01*
X0166695Y0210984D01*
X0167079Y0211026D01*
X0167465Y0211059D01*
X0167850Y0211083D01*
X0168237Y0211097D01*
X0168623Y0211102D01*
X0169009Y0211097D01*
X0169396Y0211083D01*
X0169781Y0211059D01*
X0170167Y0211026D01*
X0170551Y0210984D01*
X0170934Y0210932D01*
X0171315Y0210870D01*
X0171695Y0210799D01*
X0172073Y0210719D01*
X0172449Y0210630D01*
X0172823Y0210532D01*
X0173194Y0210424D01*
X0173563Y0210307D01*
X0173928Y0210181D01*
X0174291Y0210047D01*
X0174649Y0209903D01*
X0175005Y0209751D01*
X0175356Y0209590D01*
X0175703Y0209420D01*
X0176047Y0209242D01*
X0176385Y0209056D01*
X0176719Y0208862D01*
X0177048Y0208659D01*
X0177372Y0208448D01*
X0177691Y0208229D01*
X0178004Y0208003D01*
X0178312Y0207769D01*
X0178613Y0207527D01*
X0178909Y0207279D01*
X0179199Y0207022D01*
X0179482Y0206759D01*
X0179759Y0206490D01*
X0180028Y0206213D01*
X0180291Y0205930D01*
X0180548Y0205640D01*
X0180796Y0205344D01*
X0181038Y0205043D01*
X0181272Y0204735D01*
X0181498Y0204422D01*
X0181717Y0204103D01*
X0181928Y0203779D01*
X0182131Y0203450D01*
X0182325Y0203116D01*
X0182511Y0202778D01*
X0182689Y0202434D01*
X0182859Y0202087D01*
X0183020Y0201736D01*
X0183172Y0201380D01*
X0183316Y0201022D01*
X0183450Y0200659D01*
X0183576Y0200294D01*
X0183693Y0199925D01*
X0183801Y0199554D01*
X0183899Y0199180D01*
X0183988Y0198804D01*
X0184068Y0198426D01*
X0184139Y0198046D01*
X0184201Y0197665D01*
X0184253Y0197282D01*
X0184295Y0196898D01*
X0184328Y0196512D01*
X0184352Y0196127D01*
X0184366Y0195740D01*
X0184371Y0195354D01*
X0184366Y0194968D01*
X0184352Y0194581D01*
X0184328Y0194196D01*
X0184295Y0193810D01*
X0184253Y0193426D01*
X0184201Y0193043D01*
X0184139Y0192662D01*
X0184068Y0192282D01*
X0183988Y0191904D01*
X0183899Y0191528D01*
X0183801Y0191154D01*
X0183693Y0190783D01*
X0183576Y0190414D01*
X0183450Y0190049D01*
X0183316Y0189686D01*
X0183172Y0189328D01*
X0183020Y0188972D01*
X0182859Y0188621D01*
X0182689Y0188274D01*
X0182511Y0187930D01*
X0182325Y0187592D01*
X0182131Y0187258D01*
X0181928Y0186929D01*
X0181717Y0186605D01*
X0181498Y0186286D01*
X0181272Y0185973D01*
X0181038Y0185665D01*
X0180796Y0185364D01*
X0180548Y0185068D01*
X0180291Y0184778D01*
X0180028Y0184495D01*
X0179759Y0184218D01*
X0179482Y0183949D01*
X0179199Y0183686D01*
X0178909Y0183429D01*
X0178613Y0183181D01*
X0178312Y0182939D01*
X0178004Y0182705D01*
X0177691Y0182479D01*
X0177372Y0182260D01*
X0177048Y0182049D01*
X0176719Y0181846D01*
X0176385Y0181652D01*
X0176047Y0181466D01*
X0175703Y0181288D01*
X0175356Y0181118D01*
X0175005Y0180957D01*
X0174649Y0180805D01*
X0174291Y0180661D01*
X0173928Y0180527D01*
X0173563Y0180401D01*
X0173194Y0180284D01*
X0172823Y0180176D01*
X0172449Y0180078D01*
X0172073Y0179989D01*
X0171695Y0179909D01*
X0171315Y0179838D01*
X0170934Y0179776D01*
X0170551Y0179724D01*
X0170167Y0179682D01*
X0169781Y0179649D01*
X0169396Y0179625D01*
X0169009Y0179611D01*
X0168623Y0179606D01*
X0168237Y0179611D01*
X0167850Y0179625D01*
X0167465Y0179649D01*
X0167079Y0179682D01*
X0166695Y0179724D01*
X0166312Y0179776D01*
X0165931Y0179838D01*
X0165551Y0179909D01*
X0165173Y0179989D01*
X0164797Y0180078D01*
X0164423Y0180176D01*
X0164052Y0180284D01*
X0163683Y0180401D01*
X0163318Y0180527D01*
X0162955Y0180661D01*
X0162597Y0180805D01*
X0162241Y0180957D01*
X0161890Y0181118D01*
X0161543Y0181288D01*
X0161199Y0181466D01*
X0160861Y0181652D01*
X0160527Y0181846D01*
X0160198Y0182049D01*
X0159874Y0182260D01*
X0159555Y0182479D01*
X0159242Y0182705D01*
X0158934Y0182939D01*
X0158633Y0183181D01*
X0158337Y0183429D01*
X0158047Y0183686D01*
X0157764Y0183949D01*
X0157487Y0184218D01*
X0157218Y0184495D01*
X0156955Y0184778D01*
X0156698Y0185068D01*
X0156450Y0185364D01*
X0156208Y0185665D01*
X0155974Y0185973D01*
X0155748Y0186286D01*
X0155529Y0186605D01*
X0155318Y0186929D01*
X0155115Y0187258D01*
X0154921Y0187592D01*
X0154735Y0187930D01*
X0154557Y0188274D01*
X0154387Y0188621D01*
X0154226Y0188972D01*
X0154074Y0189328D01*
X0153930Y0189686D01*
X0153796Y0190049D01*
X0153670Y0190414D01*
X0153553Y0190783D01*
X0153445Y0191154D01*
X0153347Y0191528D01*
X0153258Y0191904D01*
X0153178Y0192282D01*
X0153107Y0192662D01*
X0153045Y0193043D01*
X0152993Y0193426D01*
X0152951Y0193810D01*
X0152918Y0194196D01*
X0152894Y0194581D01*
X0152880Y0194968D01*
X0152875Y0195354D01*
X0169410Y0164252D02*
X0169410Y0160315D01*
X0167442Y0162283D02*
X0171379Y0162283D01*
X0160749Y0155984D02*
X0160754Y0156370D01*
X0160768Y0156757D01*
X0160792Y0157142D01*
X0160825Y0157528D01*
X0160867Y0157912D01*
X0160919Y0158295D01*
X0160981Y0158676D01*
X0161052Y0159056D01*
X0161132Y0159434D01*
X0161221Y0159810D01*
X0161319Y0160184D01*
X0161427Y0160555D01*
X0161544Y0160924D01*
X0161670Y0161289D01*
X0161804Y0161652D01*
X0161948Y0162010D01*
X0162100Y0162366D01*
X0162261Y0162717D01*
X0162431Y0163064D01*
X0162609Y0163408D01*
X0162795Y0163746D01*
X0162989Y0164080D01*
X0163192Y0164409D01*
X0163403Y0164733D01*
X0163622Y0165052D01*
X0163848Y0165365D01*
X0164082Y0165673D01*
X0164324Y0165974D01*
X0164572Y0166270D01*
X0164829Y0166560D01*
X0165092Y0166843D01*
X0165361Y0167120D01*
X0165638Y0167389D01*
X0165921Y0167652D01*
X0166211Y0167909D01*
X0166507Y0168157D01*
X0166808Y0168399D01*
X0167116Y0168633D01*
X0167429Y0168859D01*
X0167748Y0169078D01*
X0168072Y0169289D01*
X0168401Y0169492D01*
X0168735Y0169686D01*
X0169073Y0169872D01*
X0169417Y0170050D01*
X0169764Y0170220D01*
X0170115Y0170381D01*
X0170471Y0170533D01*
X0170829Y0170677D01*
X0171192Y0170811D01*
X0171557Y0170937D01*
X0171926Y0171054D01*
X0172297Y0171162D01*
X0172671Y0171260D01*
X0173047Y0171349D01*
X0173425Y0171429D01*
X0173805Y0171500D01*
X0174186Y0171562D01*
X0174569Y0171614D01*
X0174953Y0171656D01*
X0175339Y0171689D01*
X0175724Y0171713D01*
X0176111Y0171727D01*
X0176497Y0171732D01*
X0176883Y0171727D01*
X0177270Y0171713D01*
X0177655Y0171689D01*
X0178041Y0171656D01*
X0178425Y0171614D01*
X0178808Y0171562D01*
X0179189Y0171500D01*
X0179569Y0171429D01*
X0179947Y0171349D01*
X0180323Y0171260D01*
X0180697Y0171162D01*
X0181068Y0171054D01*
X0181437Y0170937D01*
X0181802Y0170811D01*
X0182165Y0170677D01*
X0182523Y0170533D01*
X0182879Y0170381D01*
X0183230Y0170220D01*
X0183577Y0170050D01*
X0183921Y0169872D01*
X0184259Y0169686D01*
X0184593Y0169492D01*
X0184922Y0169289D01*
X0185246Y0169078D01*
X0185565Y0168859D01*
X0185878Y0168633D01*
X0186186Y0168399D01*
X0186487Y0168157D01*
X0186783Y0167909D01*
X0187073Y0167652D01*
X0187356Y0167389D01*
X0187633Y0167120D01*
X0187902Y0166843D01*
X0188165Y0166560D01*
X0188422Y0166270D01*
X0188670Y0165974D01*
X0188912Y0165673D01*
X0189146Y0165365D01*
X0189372Y0165052D01*
X0189591Y0164733D01*
X0189802Y0164409D01*
X0190005Y0164080D01*
X0190199Y0163746D01*
X0190385Y0163408D01*
X0190563Y0163064D01*
X0190733Y0162717D01*
X0190894Y0162366D01*
X0191046Y0162010D01*
X0191190Y0161652D01*
X0191324Y0161289D01*
X0191450Y0160924D01*
X0191567Y0160555D01*
X0191675Y0160184D01*
X0191773Y0159810D01*
X0191862Y0159434D01*
X0191942Y0159056D01*
X0192013Y0158676D01*
X0192075Y0158295D01*
X0192127Y0157912D01*
X0192169Y0157528D01*
X0192202Y0157142D01*
X0192226Y0156757D01*
X0192240Y0156370D01*
X0192245Y0155984D01*
X0192240Y0155598D01*
X0192226Y0155211D01*
X0192202Y0154826D01*
X0192169Y0154440D01*
X0192127Y0154056D01*
X0192075Y0153673D01*
X0192013Y0153292D01*
X0191942Y0152912D01*
X0191862Y0152534D01*
X0191773Y0152158D01*
X0191675Y0151784D01*
X0191567Y0151413D01*
X0191450Y0151044D01*
X0191324Y0150679D01*
X0191190Y0150316D01*
X0191046Y0149958D01*
X0190894Y0149602D01*
X0190733Y0149251D01*
X0190563Y0148904D01*
X0190385Y0148560D01*
X0190199Y0148222D01*
X0190005Y0147888D01*
X0189802Y0147559D01*
X0189591Y0147235D01*
X0189372Y0146916D01*
X0189146Y0146603D01*
X0188912Y0146295D01*
X0188670Y0145994D01*
X0188422Y0145698D01*
X0188165Y0145408D01*
X0187902Y0145125D01*
X0187633Y0144848D01*
X0187356Y0144579D01*
X0187073Y0144316D01*
X0186783Y0144059D01*
X0186487Y0143811D01*
X0186186Y0143569D01*
X0185878Y0143335D01*
X0185565Y0143109D01*
X0185246Y0142890D01*
X0184922Y0142679D01*
X0184593Y0142476D01*
X0184259Y0142282D01*
X0183921Y0142096D01*
X0183577Y0141918D01*
X0183230Y0141748D01*
X0182879Y0141587D01*
X0182523Y0141435D01*
X0182165Y0141291D01*
X0181802Y0141157D01*
X0181437Y0141031D01*
X0181068Y0140914D01*
X0180697Y0140806D01*
X0180323Y0140708D01*
X0179947Y0140619D01*
X0179569Y0140539D01*
X0179189Y0140468D01*
X0178808Y0140406D01*
X0178425Y0140354D01*
X0178041Y0140312D01*
X0177655Y0140279D01*
X0177270Y0140255D01*
X0176883Y0140241D01*
X0176497Y0140236D01*
X0176111Y0140241D01*
X0175724Y0140255D01*
X0175339Y0140279D01*
X0174953Y0140312D01*
X0174569Y0140354D01*
X0174186Y0140406D01*
X0173805Y0140468D01*
X0173425Y0140539D01*
X0173047Y0140619D01*
X0172671Y0140708D01*
X0172297Y0140806D01*
X0171926Y0140914D01*
X0171557Y0141031D01*
X0171192Y0141157D01*
X0170829Y0141291D01*
X0170471Y0141435D01*
X0170115Y0141587D01*
X0169764Y0141748D01*
X0169417Y0141918D01*
X0169073Y0142096D01*
X0168735Y0142282D01*
X0168401Y0142476D01*
X0168072Y0142679D01*
X0167748Y0142890D01*
X0167429Y0143109D01*
X0167116Y0143335D01*
X0166808Y0143569D01*
X0166507Y0143811D01*
X0166211Y0144059D01*
X0165921Y0144316D01*
X0165638Y0144579D01*
X0165361Y0144848D01*
X0165092Y0145125D01*
X0164829Y0145408D01*
X0164572Y0145698D01*
X0164324Y0145994D01*
X0164082Y0146295D01*
X0163848Y0146603D01*
X0163622Y0146916D01*
X0163403Y0147235D01*
X0163192Y0147559D01*
X0162989Y0147888D01*
X0162795Y0148222D01*
X0162609Y0148560D01*
X0162431Y0148904D01*
X0162261Y0149251D01*
X0162100Y0149602D01*
X0161948Y0149958D01*
X0161804Y0150316D01*
X0161670Y0150679D01*
X0161544Y0151044D01*
X0161427Y0151413D01*
X0161319Y0151784D01*
X0161221Y0152158D01*
X0161132Y0152534D01*
X0161052Y0152912D01*
X0160981Y0153292D01*
X0160919Y0153673D01*
X0160867Y0154056D01*
X0160825Y0154440D01*
X0160792Y0154826D01*
X0160768Y0155211D01*
X0160754Y0155598D01*
X0160749Y0155984D01*
X0152087Y0153622D02*
X0148150Y0153622D01*
X0150119Y0151654D02*
X0150119Y0155591D01*
X0127284Y0159921D02*
X0127289Y0160307D01*
X0127303Y0160694D01*
X0127327Y0161079D01*
X0127360Y0161465D01*
X0127402Y0161849D01*
X0127454Y0162232D01*
X0127516Y0162613D01*
X0127587Y0162993D01*
X0127667Y0163371D01*
X0127756Y0163747D01*
X0127854Y0164121D01*
X0127962Y0164492D01*
X0128079Y0164861D01*
X0128205Y0165226D01*
X0128339Y0165589D01*
X0128483Y0165947D01*
X0128635Y0166303D01*
X0128796Y0166654D01*
X0128966Y0167001D01*
X0129144Y0167345D01*
X0129330Y0167683D01*
X0129524Y0168017D01*
X0129727Y0168346D01*
X0129938Y0168670D01*
X0130157Y0168989D01*
X0130383Y0169302D01*
X0130617Y0169610D01*
X0130859Y0169911D01*
X0131107Y0170207D01*
X0131364Y0170497D01*
X0131627Y0170780D01*
X0131896Y0171057D01*
X0132173Y0171326D01*
X0132456Y0171589D01*
X0132746Y0171846D01*
X0133042Y0172094D01*
X0133343Y0172336D01*
X0133651Y0172570D01*
X0133964Y0172796D01*
X0134283Y0173015D01*
X0134607Y0173226D01*
X0134936Y0173429D01*
X0135270Y0173623D01*
X0135608Y0173809D01*
X0135952Y0173987D01*
X0136299Y0174157D01*
X0136650Y0174318D01*
X0137006Y0174470D01*
X0137364Y0174614D01*
X0137727Y0174748D01*
X0138092Y0174874D01*
X0138461Y0174991D01*
X0138832Y0175099D01*
X0139206Y0175197D01*
X0139582Y0175286D01*
X0139960Y0175366D01*
X0140340Y0175437D01*
X0140721Y0175499D01*
X0141104Y0175551D01*
X0141488Y0175593D01*
X0141874Y0175626D01*
X0142259Y0175650D01*
X0142646Y0175664D01*
X0143032Y0175669D01*
X0143418Y0175664D01*
X0143805Y0175650D01*
X0144190Y0175626D01*
X0144576Y0175593D01*
X0144960Y0175551D01*
X0145343Y0175499D01*
X0145724Y0175437D01*
X0146104Y0175366D01*
X0146482Y0175286D01*
X0146858Y0175197D01*
X0147232Y0175099D01*
X0147603Y0174991D01*
X0147972Y0174874D01*
X0148337Y0174748D01*
X0148700Y0174614D01*
X0149058Y0174470D01*
X0149414Y0174318D01*
X0149765Y0174157D01*
X0150112Y0173987D01*
X0150456Y0173809D01*
X0150794Y0173623D01*
X0151128Y0173429D01*
X0151457Y0173226D01*
X0151781Y0173015D01*
X0152100Y0172796D01*
X0152413Y0172570D01*
X0152721Y0172336D01*
X0153022Y0172094D01*
X0153318Y0171846D01*
X0153608Y0171589D01*
X0153891Y0171326D01*
X0154168Y0171057D01*
X0154437Y0170780D01*
X0154700Y0170497D01*
X0154957Y0170207D01*
X0155205Y0169911D01*
X0155447Y0169610D01*
X0155681Y0169302D01*
X0155907Y0168989D01*
X0156126Y0168670D01*
X0156337Y0168346D01*
X0156540Y0168017D01*
X0156734Y0167683D01*
X0156920Y0167345D01*
X0157098Y0167001D01*
X0157268Y0166654D01*
X0157429Y0166303D01*
X0157581Y0165947D01*
X0157725Y0165589D01*
X0157859Y0165226D01*
X0157985Y0164861D01*
X0158102Y0164492D01*
X0158210Y0164121D01*
X0158308Y0163747D01*
X0158397Y0163371D01*
X0158477Y0162993D01*
X0158548Y0162613D01*
X0158610Y0162232D01*
X0158662Y0161849D01*
X0158704Y0161465D01*
X0158737Y0161079D01*
X0158761Y0160694D01*
X0158775Y0160307D01*
X0158780Y0159921D01*
X0158775Y0159535D01*
X0158761Y0159148D01*
X0158737Y0158763D01*
X0158704Y0158377D01*
X0158662Y0157993D01*
X0158610Y0157610D01*
X0158548Y0157229D01*
X0158477Y0156849D01*
X0158397Y0156471D01*
X0158308Y0156095D01*
X0158210Y0155721D01*
X0158102Y0155350D01*
X0157985Y0154981D01*
X0157859Y0154616D01*
X0157725Y0154253D01*
X0157581Y0153895D01*
X0157429Y0153539D01*
X0157268Y0153188D01*
X0157098Y0152841D01*
X0156920Y0152497D01*
X0156734Y0152159D01*
X0156540Y0151825D01*
X0156337Y0151496D01*
X0156126Y0151172D01*
X0155907Y0150853D01*
X0155681Y0150540D01*
X0155447Y0150232D01*
X0155205Y0149931D01*
X0154957Y0149635D01*
X0154700Y0149345D01*
X0154437Y0149062D01*
X0154168Y0148785D01*
X0153891Y0148516D01*
X0153608Y0148253D01*
X0153318Y0147996D01*
X0153022Y0147748D01*
X0152721Y0147506D01*
X0152413Y0147272D01*
X0152100Y0147046D01*
X0151781Y0146827D01*
X0151457Y0146616D01*
X0151128Y0146413D01*
X0150794Y0146219D01*
X0150456Y0146033D01*
X0150112Y0145855D01*
X0149765Y0145685D01*
X0149414Y0145524D01*
X0149058Y0145372D01*
X0148700Y0145228D01*
X0148337Y0145094D01*
X0147972Y0144968D01*
X0147603Y0144851D01*
X0147232Y0144743D01*
X0146858Y0144645D01*
X0146482Y0144556D01*
X0146104Y0144476D01*
X0145724Y0144405D01*
X0145343Y0144343D01*
X0144960Y0144291D01*
X0144576Y0144249D01*
X0144190Y0144216D01*
X0143805Y0144192D01*
X0143418Y0144178D01*
X0143032Y0144173D01*
X0142646Y0144178D01*
X0142259Y0144192D01*
X0141874Y0144216D01*
X0141488Y0144249D01*
X0141104Y0144291D01*
X0140721Y0144343D01*
X0140340Y0144405D01*
X0139960Y0144476D01*
X0139582Y0144556D01*
X0139206Y0144645D01*
X0138832Y0144743D01*
X0138461Y0144851D01*
X0138092Y0144968D01*
X0137727Y0145094D01*
X0137364Y0145228D01*
X0137006Y0145372D01*
X0136650Y0145524D01*
X0136299Y0145685D01*
X0135952Y0145855D01*
X0135608Y0146033D01*
X0135270Y0146219D01*
X0134936Y0146413D01*
X0134607Y0146616D01*
X0134283Y0146827D01*
X0133964Y0147046D01*
X0133651Y0147272D01*
X0133343Y0147506D01*
X0133042Y0147748D01*
X0132746Y0147996D01*
X0132456Y0148253D01*
X0132173Y0148516D01*
X0131896Y0148785D01*
X0131627Y0149062D01*
X0131364Y0149345D01*
X0131107Y0149635D01*
X0130859Y0149931D01*
X0130617Y0150232D01*
X0130383Y0150540D01*
X0130157Y0150853D01*
X0129938Y0151172D01*
X0129727Y0151496D01*
X0129524Y0151825D01*
X0129330Y0152159D01*
X0129144Y0152497D01*
X0128966Y0152841D01*
X0128796Y0153188D01*
X0128635Y0153539D01*
X0128483Y0153895D01*
X0128339Y0154253D01*
X0128205Y0154616D01*
X0128079Y0154981D01*
X0127962Y0155350D01*
X0127854Y0155721D01*
X0127756Y0156095D01*
X0127667Y0156471D01*
X0127587Y0156849D01*
X0127516Y0157229D01*
X0127454Y0157610D01*
X0127402Y0157993D01*
X0127360Y0158377D01*
X0127327Y0158763D01*
X0127303Y0159148D01*
X0127289Y0159535D01*
X0127284Y0159921D01*
X0105631Y0157953D02*
X0105631Y0146142D01*
X0093820Y0146142D01*
X0093820Y0157953D01*
X0105631Y0157953D01*
X0102875Y0148110D02*
X0102877Y0148166D01*
X0102883Y0148221D01*
X0102893Y0148275D01*
X0102906Y0148329D01*
X0102924Y0148382D01*
X0102945Y0148433D01*
X0102969Y0148483D01*
X0102997Y0148531D01*
X0103029Y0148577D01*
X0103063Y0148621D01*
X0103101Y0148662D01*
X0103141Y0148700D01*
X0103184Y0148735D01*
X0103229Y0148767D01*
X0103277Y0148796D01*
X0103326Y0148822D01*
X0103377Y0148844D01*
X0103429Y0148862D01*
X0103483Y0148876D01*
X0103538Y0148887D01*
X0103593Y0148894D01*
X0103648Y0148897D01*
X0103704Y0148896D01*
X0103759Y0148891D01*
X0103814Y0148882D01*
X0103868Y0148870D01*
X0103921Y0148853D01*
X0103973Y0148833D01*
X0104023Y0148809D01*
X0104071Y0148782D01*
X0104118Y0148752D01*
X0104162Y0148718D01*
X0104204Y0148681D01*
X0104242Y0148641D01*
X0104279Y0148599D01*
X0104312Y0148554D01*
X0104341Y0148508D01*
X0104368Y0148459D01*
X0104390Y0148408D01*
X0104410Y0148356D01*
X0104425Y0148302D01*
X0104437Y0148248D01*
X0104445Y0148193D01*
X0104449Y0148138D01*
X0104449Y0148082D01*
X0104445Y0148027D01*
X0104437Y0147972D01*
X0104425Y0147918D01*
X0104410Y0147864D01*
X0104390Y0147812D01*
X0104368Y0147761D01*
X0104341Y0147712D01*
X0104312Y0147666D01*
X0104279Y0147621D01*
X0104242Y0147579D01*
X0104204Y0147539D01*
X0104162Y0147502D01*
X0104118Y0147468D01*
X0104071Y0147438D01*
X0104023Y0147411D01*
X0103973Y0147387D01*
X0103921Y0147367D01*
X0103868Y0147350D01*
X0103814Y0147338D01*
X0103759Y0147329D01*
X0103704Y0147324D01*
X0103648Y0147323D01*
X0103593Y0147326D01*
X0103538Y0147333D01*
X0103483Y0147344D01*
X0103429Y0147358D01*
X0103377Y0147376D01*
X0103326Y0147398D01*
X0103277Y0147424D01*
X0103229Y0147453D01*
X0103184Y0147485D01*
X0103141Y0147520D01*
X0103101Y0147558D01*
X0103063Y0147599D01*
X0103029Y0147643D01*
X0102997Y0147689D01*
X0102969Y0147737D01*
X0102945Y0147787D01*
X0102924Y0147838D01*
X0102906Y0147891D01*
X0102893Y0147945D01*
X0102883Y0147999D01*
X0102877Y0148054D01*
X0102875Y0148110D01*
X0103662Y0142992D02*
X0119410Y0142992D01*
X0119410Y0142205D01*
X0106222Y0140236D02*
X0106224Y0140298D01*
X0106230Y0140361D01*
X0106240Y0140422D01*
X0106254Y0140483D01*
X0106271Y0140543D01*
X0106292Y0140602D01*
X0106318Y0140659D01*
X0106346Y0140714D01*
X0106378Y0140768D01*
X0106414Y0140819D01*
X0106452Y0140869D01*
X0106494Y0140915D01*
X0106538Y0140959D01*
X0106586Y0141000D01*
X0106635Y0141038D01*
X0106687Y0141072D01*
X0106741Y0141103D01*
X0106797Y0141131D01*
X0106855Y0141155D01*
X0106914Y0141176D01*
X0106974Y0141192D01*
X0107035Y0141205D01*
X0107097Y0141214D01*
X0107159Y0141219D01*
X0107222Y0141220D01*
X0107284Y0141217D01*
X0107346Y0141210D01*
X0107408Y0141199D01*
X0107468Y0141184D01*
X0107528Y0141166D01*
X0107586Y0141144D01*
X0107643Y0141118D01*
X0107698Y0141088D01*
X0107751Y0141055D01*
X0107802Y0141019D01*
X0107850Y0140980D01*
X0107896Y0140937D01*
X0107939Y0140892D01*
X0107979Y0140844D01*
X0108016Y0140794D01*
X0108050Y0140741D01*
X0108081Y0140687D01*
X0108107Y0140631D01*
X0108131Y0140573D01*
X0108150Y0140513D01*
X0108166Y0140453D01*
X0108178Y0140391D01*
X0108186Y0140330D01*
X0108190Y0140267D01*
X0108190Y0140205D01*
X0108186Y0140142D01*
X0108178Y0140081D01*
X0108166Y0140019D01*
X0108150Y0139959D01*
X0108131Y0139899D01*
X0108107Y0139841D01*
X0108081Y0139785D01*
X0108050Y0139731D01*
X0108016Y0139678D01*
X0107979Y0139628D01*
X0107939Y0139580D01*
X0107896Y0139535D01*
X0107850Y0139492D01*
X0107802Y0139453D01*
X0107751Y0139417D01*
X0107698Y0139384D01*
X0107643Y0139354D01*
X0107586Y0139328D01*
X0107528Y0139306D01*
X0107468Y0139288D01*
X0107408Y0139273D01*
X0107346Y0139262D01*
X0107284Y0139255D01*
X0107222Y0139252D01*
X0107159Y0139253D01*
X0107097Y0139258D01*
X0107035Y0139267D01*
X0106974Y0139280D01*
X0106914Y0139296D01*
X0106855Y0139317D01*
X0106797Y0139341D01*
X0106741Y0139369D01*
X0106687Y0139400D01*
X0106635Y0139434D01*
X0106586Y0139472D01*
X0106538Y0139513D01*
X0106494Y0139557D01*
X0106452Y0139603D01*
X0106414Y0139653D01*
X0106378Y0139704D01*
X0106346Y0139758D01*
X0106318Y0139813D01*
X0106292Y0139870D01*
X0106271Y0139929D01*
X0106254Y0139989D01*
X0106240Y0140050D01*
X0106230Y0140111D01*
X0106224Y0140174D01*
X0106222Y0140236D01*
X0107036Y0137819D02*
X0107036Y0123362D01*
X0103662Y0122520D02*
X0103662Y0121732D01*
X0119410Y0121732D01*
X0119410Y0122520D01*
X0133583Y0113858D02*
X0133583Y0104803D01*
X0137127Y0104803D02*
X0137127Y0113858D01*
X0152875Y0113858D02*
X0152875Y0104803D01*
X0156418Y0104803D02*
X0156418Y0113858D01*
X0160749Y0116614D02*
X0160749Y0100866D01*
X0200119Y0100866D01*
X0200119Y0116614D01*
X0160749Y0116614D01*
X0162127Y0103228D02*
X0162129Y0103290D01*
X0162135Y0103353D01*
X0162145Y0103414D01*
X0162159Y0103475D01*
X0162176Y0103535D01*
X0162197Y0103594D01*
X0162223Y0103651D01*
X0162251Y0103706D01*
X0162283Y0103760D01*
X0162319Y0103811D01*
X0162357Y0103861D01*
X0162399Y0103907D01*
X0162443Y0103951D01*
X0162491Y0103992D01*
X0162540Y0104030D01*
X0162592Y0104064D01*
X0162646Y0104095D01*
X0162702Y0104123D01*
X0162760Y0104147D01*
X0162819Y0104168D01*
X0162879Y0104184D01*
X0162940Y0104197D01*
X0163002Y0104206D01*
X0163064Y0104211D01*
X0163127Y0104212D01*
X0163189Y0104209D01*
X0163251Y0104202D01*
X0163313Y0104191D01*
X0163373Y0104176D01*
X0163433Y0104158D01*
X0163491Y0104136D01*
X0163548Y0104110D01*
X0163603Y0104080D01*
X0163656Y0104047D01*
X0163707Y0104011D01*
X0163755Y0103972D01*
X0163801Y0103929D01*
X0163844Y0103884D01*
X0163884Y0103836D01*
X0163921Y0103786D01*
X0163955Y0103733D01*
X0163986Y0103679D01*
X0164012Y0103623D01*
X0164036Y0103565D01*
X0164055Y0103505D01*
X0164071Y0103445D01*
X0164083Y0103383D01*
X0164091Y0103322D01*
X0164095Y0103259D01*
X0164095Y0103197D01*
X0164091Y0103134D01*
X0164083Y0103073D01*
X0164071Y0103011D01*
X0164055Y0102951D01*
X0164036Y0102891D01*
X0164012Y0102833D01*
X0163986Y0102777D01*
X0163955Y0102723D01*
X0163921Y0102670D01*
X0163884Y0102620D01*
X0163844Y0102572D01*
X0163801Y0102527D01*
X0163755Y0102484D01*
X0163707Y0102445D01*
X0163656Y0102409D01*
X0163603Y0102376D01*
X0163548Y0102346D01*
X0163491Y0102320D01*
X0163433Y0102298D01*
X0163373Y0102280D01*
X0163313Y0102265D01*
X0163251Y0102254D01*
X0163189Y0102247D01*
X0163127Y0102244D01*
X0163064Y0102245D01*
X0163002Y0102250D01*
X0162940Y0102259D01*
X0162879Y0102272D01*
X0162819Y0102288D01*
X0162760Y0102309D01*
X0162702Y0102333D01*
X0162646Y0102361D01*
X0162592Y0102392D01*
X0162540Y0102426D01*
X0162491Y0102464D01*
X0162443Y0102505D01*
X0162399Y0102549D01*
X0162357Y0102595D01*
X0162319Y0102645D01*
X0162283Y0102696D01*
X0162251Y0102750D01*
X0162223Y0102805D01*
X0162197Y0102862D01*
X0162176Y0102921D01*
X0162159Y0102981D01*
X0162145Y0103042D01*
X0162135Y0103103D01*
X0162129Y0103166D01*
X0162127Y0103228D01*
X0160749Y0083150D02*
X0137127Y0083150D01*
X0137127Y0059528D01*
X0160749Y0059528D01*
X0160749Y0083150D01*
X0119410Y0085118D02*
X0095788Y0085118D01*
X0095788Y0108740D01*
X0119410Y0108740D01*
X0119410Y0085118D01*
X0092048Y0091024D02*
X0092048Y0102835D01*
X0089292Y0101654D02*
X0089294Y0101716D01*
X0089300Y0101779D01*
X0089310Y0101840D01*
X0089324Y0101901D01*
X0089341Y0101961D01*
X0089362Y0102020D01*
X0089388Y0102077D01*
X0089416Y0102132D01*
X0089448Y0102186D01*
X0089484Y0102237D01*
X0089522Y0102287D01*
X0089564Y0102333D01*
X0089608Y0102377D01*
X0089656Y0102418D01*
X0089705Y0102456D01*
X0089757Y0102490D01*
X0089811Y0102521D01*
X0089867Y0102549D01*
X0089925Y0102573D01*
X0089984Y0102594D01*
X0090044Y0102610D01*
X0090105Y0102623D01*
X0090167Y0102632D01*
X0090229Y0102637D01*
X0090292Y0102638D01*
X0090354Y0102635D01*
X0090416Y0102628D01*
X0090478Y0102617D01*
X0090538Y0102602D01*
X0090598Y0102584D01*
X0090656Y0102562D01*
X0090713Y0102536D01*
X0090768Y0102506D01*
X0090821Y0102473D01*
X0090872Y0102437D01*
X0090920Y0102398D01*
X0090966Y0102355D01*
X0091009Y0102310D01*
X0091049Y0102262D01*
X0091086Y0102212D01*
X0091120Y0102159D01*
X0091151Y0102105D01*
X0091177Y0102049D01*
X0091201Y0101991D01*
X0091220Y0101931D01*
X0091236Y0101871D01*
X0091248Y0101809D01*
X0091256Y0101748D01*
X0091260Y0101685D01*
X0091260Y0101623D01*
X0091256Y0101560D01*
X0091248Y0101499D01*
X0091236Y0101437D01*
X0091220Y0101377D01*
X0091201Y0101317D01*
X0091177Y0101259D01*
X0091151Y0101203D01*
X0091120Y0101149D01*
X0091086Y0101096D01*
X0091049Y0101046D01*
X0091009Y0100998D01*
X0090966Y0100953D01*
X0090920Y0100910D01*
X0090872Y0100871D01*
X0090821Y0100835D01*
X0090768Y0100802D01*
X0090713Y0100772D01*
X0090656Y0100746D01*
X0090598Y0100724D01*
X0090538Y0100706D01*
X0090478Y0100691D01*
X0090416Y0100680D01*
X0090354Y0100673D01*
X0090292Y0100670D01*
X0090229Y0100671D01*
X0090167Y0100676D01*
X0090105Y0100685D01*
X0090044Y0100698D01*
X0089984Y0100714D01*
X0089925Y0100735D01*
X0089867Y0100759D01*
X0089811Y0100787D01*
X0089757Y0100818D01*
X0089705Y0100852D01*
X0089656Y0100890D01*
X0089608Y0100931D01*
X0089564Y0100975D01*
X0089522Y0101021D01*
X0089484Y0101071D01*
X0089448Y0101122D01*
X0089416Y0101176D01*
X0089388Y0101231D01*
X0089362Y0101288D01*
X0089341Y0101347D01*
X0089324Y0101407D01*
X0089310Y0101468D01*
X0089300Y0101529D01*
X0089294Y0101592D01*
X0089292Y0101654D01*
X0075906Y0102835D02*
X0075906Y0091024D01*
X0063111Y0109724D02*
X0063111Y0139252D01*
X0036733Y0139252D01*
X0036733Y0109724D01*
X0063111Y0109724D01*
X0074135Y0118583D02*
X0074135Y0122520D01*
X0076103Y0120551D02*
X0072166Y0120551D01*
X0067638Y0126457D02*
X0067642Y0126761D01*
X0067653Y0127066D01*
X0067672Y0127369D01*
X0067698Y0127673D01*
X0067731Y0127975D01*
X0067772Y0128277D01*
X0067821Y0128577D01*
X0067876Y0128877D01*
X0067939Y0129174D01*
X0068010Y0129470D01*
X0068087Y0129765D01*
X0068172Y0130057D01*
X0068264Y0130347D01*
X0068363Y0130635D01*
X0068469Y0130920D01*
X0068582Y0131203D01*
X0068702Y0131483D01*
X0068829Y0131760D01*
X0068962Y0132033D01*
X0069102Y0132303D01*
X0069249Y0132570D01*
X0069402Y0132833D01*
X0069562Y0133092D01*
X0069728Y0133347D01*
X0069900Y0133598D01*
X0070079Y0133845D01*
X0070263Y0134087D01*
X0070453Y0134325D01*
X0070649Y0134558D01*
X0070851Y0134786D01*
X0071058Y0135009D01*
X0071270Y0135227D01*
X0071488Y0135439D01*
X0071711Y0135646D01*
X0071939Y0135848D01*
X0072172Y0136044D01*
X0072410Y0136234D01*
X0072652Y0136418D01*
X0072899Y0136597D01*
X0073150Y0136769D01*
X0073405Y0136935D01*
X0073664Y0137095D01*
X0073927Y0137248D01*
X0074194Y0137395D01*
X0074464Y0137535D01*
X0074737Y0137668D01*
X0075014Y0137795D01*
X0075294Y0137915D01*
X0075577Y0138028D01*
X0075862Y0138134D01*
X0076150Y0138233D01*
X0076440Y0138325D01*
X0076732Y0138410D01*
X0077027Y0138487D01*
X0077323Y0138558D01*
X0077620Y0138621D01*
X0077920Y0138676D01*
X0078220Y0138725D01*
X0078522Y0138766D01*
X0078824Y0138799D01*
X0079128Y0138825D01*
X0079431Y0138844D01*
X0079736Y0138855D01*
X0080040Y0138859D01*
X0080344Y0138855D01*
X0080649Y0138844D01*
X0080952Y0138825D01*
X0081256Y0138799D01*
X0081558Y0138766D01*
X0081860Y0138725D01*
X0082160Y0138676D01*
X0082460Y0138621D01*
X0082757Y0138558D01*
X0083053Y0138487D01*
X0083348Y0138410D01*
X0083640Y0138325D01*
X0083930Y0138233D01*
X0084218Y0138134D01*
X0084503Y0138028D01*
X0084786Y0137915D01*
X0085066Y0137795D01*
X0085343Y0137668D01*
X0085616Y0137535D01*
X0085886Y0137395D01*
X0086153Y0137248D01*
X0086416Y0137095D01*
X0086675Y0136935D01*
X0086930Y0136769D01*
X0087181Y0136597D01*
X0087428Y0136418D01*
X0087670Y0136234D01*
X0087908Y0136044D01*
X0088141Y0135848D01*
X0088369Y0135646D01*
X0088592Y0135439D01*
X0088810Y0135227D01*
X0089022Y0135009D01*
X0089229Y0134786D01*
X0089431Y0134558D01*
X0089627Y0134325D01*
X0089817Y0134087D01*
X0090001Y0133845D01*
X0090180Y0133598D01*
X0090352Y0133347D01*
X0090518Y0133092D01*
X0090678Y0132833D01*
X0090831Y0132570D01*
X0090978Y0132303D01*
X0091118Y0132033D01*
X0091251Y0131760D01*
X0091378Y0131483D01*
X0091498Y0131203D01*
X0091611Y0130920D01*
X0091717Y0130635D01*
X0091816Y0130347D01*
X0091908Y0130057D01*
X0091993Y0129765D01*
X0092070Y0129470D01*
X0092141Y0129174D01*
X0092204Y0128877D01*
X0092259Y0128577D01*
X0092308Y0128277D01*
X0092349Y0127975D01*
X0092382Y0127673D01*
X0092408Y0127369D01*
X0092427Y0127066D01*
X0092438Y0126761D01*
X0092442Y0126457D01*
X0092438Y0126153D01*
X0092427Y0125848D01*
X0092408Y0125545D01*
X0092382Y0125241D01*
X0092349Y0124939D01*
X0092308Y0124637D01*
X0092259Y0124337D01*
X0092204Y0124037D01*
X0092141Y0123740D01*
X0092070Y0123444D01*
X0091993Y0123149D01*
X0091908Y0122857D01*
X0091816Y0122567D01*
X0091717Y0122279D01*
X0091611Y0121994D01*
X0091498Y0121711D01*
X0091378Y0121431D01*
X0091251Y0121154D01*
X0091118Y0120881D01*
X0090978Y0120611D01*
X0090831Y0120344D01*
X0090678Y0120081D01*
X0090518Y0119822D01*
X0090352Y0119567D01*
X0090180Y0119316D01*
X0090001Y0119069D01*
X0089817Y0118827D01*
X0089627Y0118589D01*
X0089431Y0118356D01*
X0089229Y0118128D01*
X0089022Y0117905D01*
X0088810Y0117687D01*
X0088592Y0117475D01*
X0088369Y0117268D01*
X0088141Y0117066D01*
X0087908Y0116870D01*
X0087670Y0116680D01*
X0087428Y0116496D01*
X0087181Y0116317D01*
X0086930Y0116145D01*
X0086675Y0115979D01*
X0086416Y0115819D01*
X0086153Y0115666D01*
X0085886Y0115519D01*
X0085616Y0115379D01*
X0085343Y0115246D01*
X0085066Y0115119D01*
X0084786Y0114999D01*
X0084503Y0114886D01*
X0084218Y0114780D01*
X0083930Y0114681D01*
X0083640Y0114589D01*
X0083348Y0114504D01*
X0083053Y0114427D01*
X0082757Y0114356D01*
X0082460Y0114293D01*
X0082160Y0114238D01*
X0081860Y0114189D01*
X0081558Y0114148D01*
X0081256Y0114115D01*
X0080952Y0114089D01*
X0080649Y0114070D01*
X0080344Y0114059D01*
X0080040Y0114055D01*
X0079736Y0114059D01*
X0079431Y0114070D01*
X0079128Y0114089D01*
X0078824Y0114115D01*
X0078522Y0114148D01*
X0078220Y0114189D01*
X0077920Y0114238D01*
X0077620Y0114293D01*
X0077323Y0114356D01*
X0077027Y0114427D01*
X0076732Y0114504D01*
X0076440Y0114589D01*
X0076150Y0114681D01*
X0075862Y0114780D01*
X0075577Y0114886D01*
X0075294Y0114999D01*
X0075014Y0115119D01*
X0074737Y0115246D01*
X0074464Y0115379D01*
X0074194Y0115519D01*
X0073927Y0115666D01*
X0073664Y0115819D01*
X0073405Y0115979D01*
X0073150Y0116145D01*
X0072899Y0116317D01*
X0072652Y0116496D01*
X0072410Y0116680D01*
X0072172Y0116870D01*
X0071939Y0117066D01*
X0071711Y0117268D01*
X0071488Y0117475D01*
X0071270Y0117687D01*
X0071058Y0117905D01*
X0070851Y0118128D01*
X0070649Y0118356D01*
X0070453Y0118589D01*
X0070263Y0118827D01*
X0070079Y0119069D01*
X0069900Y0119316D01*
X0069728Y0119567D01*
X0069562Y0119822D01*
X0069402Y0120081D01*
X0069249Y0120344D01*
X0069102Y0120611D01*
X0068962Y0120881D01*
X0068829Y0121154D01*
X0068702Y0121431D01*
X0068582Y0121711D01*
X0068469Y0121994D01*
X0068363Y0122279D01*
X0068264Y0122567D01*
X0068172Y0122857D01*
X0068087Y0123149D01*
X0068010Y0123444D01*
X0067939Y0123740D01*
X0067876Y0124037D01*
X0067821Y0124337D01*
X0067772Y0124637D01*
X0067731Y0124939D01*
X0067698Y0125241D01*
X0067672Y0125545D01*
X0067653Y0125848D01*
X0067642Y0126153D01*
X0067638Y0126457D01*
X0036733Y0139252D02*
X0034371Y0139252D01*
X0034371Y0109724D01*
X0036733Y0109724D01*
X0038702Y0073307D02*
X0038702Y0061496D01*
X0030828Y0061496D01*
X0038702Y0061496D02*
X0038702Y0049685D01*
X0040670Y0049685D02*
X0042639Y0049685D01*
X0042639Y0061496D01*
X0042639Y0073307D01*
X0040670Y0073307D01*
X0040670Y0049685D01*
X0048544Y0051654D02*
X0052481Y0051654D01*
X0050513Y0053622D02*
X0050513Y0049685D01*
X0050513Y0061496D02*
X0042639Y0061496D01*
X0005237Y0061496D02*
X0005248Y0062366D01*
X0005280Y0063235D01*
X0005333Y0064103D01*
X0005408Y0064969D01*
X0005503Y0065833D01*
X0005621Y0066695D01*
X0005759Y0067554D01*
X0005918Y0068409D01*
X0006098Y0069259D01*
X0006299Y0070106D01*
X0006521Y0070946D01*
X0006763Y0071782D01*
X0007025Y0072611D01*
X0007308Y0073433D01*
X0007611Y0074248D01*
X0007934Y0075056D01*
X0008277Y0075855D01*
X0008639Y0076646D01*
X0009020Y0077427D01*
X0009421Y0078199D01*
X0009840Y0078961D01*
X0010278Y0079712D01*
X0010734Y0080453D01*
X0011209Y0081182D01*
X0011701Y0081899D01*
X0012210Y0082603D01*
X0012737Y0083296D01*
X0013280Y0083974D01*
X0013840Y0084640D01*
X0014416Y0085291D01*
X0015008Y0085928D01*
X0015615Y0086551D01*
X0016238Y0087158D01*
X0016875Y0087750D01*
X0017526Y0088326D01*
X0018192Y0088886D01*
X0018870Y0089429D01*
X0019563Y0089956D01*
X0020267Y0090465D01*
X0020984Y0090957D01*
X0021713Y0091432D01*
X0022454Y0091888D01*
X0023205Y0092326D01*
X0023967Y0092745D01*
X0024739Y0093146D01*
X0025520Y0093527D01*
X0026311Y0093889D01*
X0027110Y0094232D01*
X0027918Y0094555D01*
X0028733Y0094858D01*
X0029555Y0095141D01*
X0030384Y0095403D01*
X0031220Y0095645D01*
X0032060Y0095867D01*
X0032907Y0096068D01*
X0033757Y0096248D01*
X0034612Y0096407D01*
X0035471Y0096545D01*
X0036333Y0096663D01*
X0037197Y0096758D01*
X0038063Y0096833D01*
X0038931Y0096886D01*
X0039800Y0096918D01*
X0040670Y0096929D01*
X0041540Y0096918D01*
X0042409Y0096886D01*
X0043277Y0096833D01*
X0044143Y0096758D01*
X0045007Y0096663D01*
X0045869Y0096545D01*
X0046728Y0096407D01*
X0047583Y0096248D01*
X0048433Y0096068D01*
X0049280Y0095867D01*
X0050120Y0095645D01*
X0050956Y0095403D01*
X0051785Y0095141D01*
X0052607Y0094858D01*
X0053422Y0094555D01*
X0054230Y0094232D01*
X0055029Y0093889D01*
X0055820Y0093527D01*
X0056601Y0093146D01*
X0057373Y0092745D01*
X0058135Y0092326D01*
X0058886Y0091888D01*
X0059627Y0091432D01*
X0060356Y0090957D01*
X0061073Y0090465D01*
X0061777Y0089956D01*
X0062470Y0089429D01*
X0063148Y0088886D01*
X0063814Y0088326D01*
X0064465Y0087750D01*
X0065102Y0087158D01*
X0065725Y0086551D01*
X0066332Y0085928D01*
X0066924Y0085291D01*
X0067500Y0084640D01*
X0068060Y0083974D01*
X0068603Y0083296D01*
X0069130Y0082603D01*
X0069639Y0081899D01*
X0070131Y0081182D01*
X0070606Y0080453D01*
X0071062Y0079712D01*
X0071500Y0078961D01*
X0071919Y0078199D01*
X0072320Y0077427D01*
X0072701Y0076646D01*
X0073063Y0075855D01*
X0073406Y0075056D01*
X0073729Y0074248D01*
X0074032Y0073433D01*
X0074315Y0072611D01*
X0074577Y0071782D01*
X0074819Y0070946D01*
X0075041Y0070106D01*
X0075242Y0069259D01*
X0075422Y0068409D01*
X0075581Y0067554D01*
X0075719Y0066695D01*
X0075837Y0065833D01*
X0075932Y0064969D01*
X0076007Y0064103D01*
X0076060Y0063235D01*
X0076092Y0062366D01*
X0076103Y0061496D01*
X0076092Y0060626D01*
X0076060Y0059757D01*
X0076007Y0058889D01*
X0075932Y0058023D01*
X0075837Y0057159D01*
X0075719Y0056297D01*
X0075581Y0055438D01*
X0075422Y0054583D01*
X0075242Y0053733D01*
X0075041Y0052886D01*
X0074819Y0052046D01*
X0074577Y0051210D01*
X0074315Y0050381D01*
X0074032Y0049559D01*
X0073729Y0048744D01*
X0073406Y0047936D01*
X0073063Y0047137D01*
X0072701Y0046346D01*
X0072320Y0045565D01*
X0071919Y0044793D01*
X0071500Y0044031D01*
X0071062Y0043280D01*
X0070606Y0042539D01*
X0070131Y0041810D01*
X0069639Y0041093D01*
X0069130Y0040389D01*
X0068603Y0039696D01*
X0068060Y0039018D01*
X0067500Y0038352D01*
X0066924Y0037701D01*
X0066332Y0037064D01*
X0065725Y0036441D01*
X0065102Y0035834D01*
X0064465Y0035242D01*
X0063814Y0034666D01*
X0063148Y0034106D01*
X0062470Y0033563D01*
X0061777Y0033036D01*
X0061073Y0032527D01*
X0060356Y0032035D01*
X0059627Y0031560D01*
X0058886Y0031104D01*
X0058135Y0030666D01*
X0057373Y0030247D01*
X0056601Y0029846D01*
X0055820Y0029465D01*
X0055029Y0029103D01*
X0054230Y0028760D01*
X0053422Y0028437D01*
X0052607Y0028134D01*
X0051785Y0027851D01*
X0050956Y0027589D01*
X0050120Y0027347D01*
X0049280Y0027125D01*
X0048433Y0026924D01*
X0047583Y0026744D01*
X0046728Y0026585D01*
X0045869Y0026447D01*
X0045007Y0026329D01*
X0044143Y0026234D01*
X0043277Y0026159D01*
X0042409Y0026106D01*
X0041540Y0026074D01*
X0040670Y0026063D01*
X0039800Y0026074D01*
X0038931Y0026106D01*
X0038063Y0026159D01*
X0037197Y0026234D01*
X0036333Y0026329D01*
X0035471Y0026447D01*
X0034612Y0026585D01*
X0033757Y0026744D01*
X0032907Y0026924D01*
X0032060Y0027125D01*
X0031220Y0027347D01*
X0030384Y0027589D01*
X0029555Y0027851D01*
X0028733Y0028134D01*
X0027918Y0028437D01*
X0027110Y0028760D01*
X0026311Y0029103D01*
X0025520Y0029465D01*
X0024739Y0029846D01*
X0023967Y0030247D01*
X0023205Y0030666D01*
X0022454Y0031104D01*
X0021713Y0031560D01*
X0020984Y0032035D01*
X0020267Y0032527D01*
X0019563Y0033036D01*
X0018870Y0033563D01*
X0018192Y0034106D01*
X0017526Y0034666D01*
X0016875Y0035242D01*
X0016238Y0035834D01*
X0015615Y0036441D01*
X0015008Y0037064D01*
X0014416Y0037701D01*
X0013840Y0038352D01*
X0013280Y0039018D01*
X0012737Y0039696D01*
X0012210Y0040389D01*
X0011701Y0041093D01*
X0011209Y0041810D01*
X0010734Y0042539D01*
X0010278Y0043280D01*
X0009840Y0044031D01*
X0009421Y0044793D01*
X0009020Y0045565D01*
X0008639Y0046346D01*
X0008277Y0047137D01*
X0007934Y0047936D01*
X0007611Y0048744D01*
X0007308Y0049559D01*
X0007025Y0050381D01*
X0006763Y0051210D01*
X0006521Y0052046D01*
X0006299Y0052886D01*
X0006098Y0053733D01*
X0005918Y0054583D01*
X0005759Y0055438D01*
X0005621Y0056297D01*
X0005503Y0057159D01*
X0005408Y0058023D01*
X0005333Y0058889D01*
X0005280Y0059757D01*
X0005248Y0060626D01*
X0005237Y0061496D01*
X0103662Y0142205D02*
X0103662Y0142992D01*
X0161877Y0044375D02*
X0164377Y0042250D01*
X0164377Y0044750D01*
X0160877Y0042250D02*
X0160808Y0042274D01*
X0160741Y0042302D01*
X0160675Y0042333D01*
X0160611Y0042367D01*
X0160549Y0042404D01*
X0160488Y0042445D01*
X0160430Y0042488D01*
X0160374Y0042534D01*
X0160320Y0042584D01*
X0160269Y0042635D01*
X0160221Y0042689D01*
X0160175Y0042746D01*
X0160132Y0042805D01*
X0160093Y0042866D01*
X0160056Y0042928D01*
X0160023Y0042993D01*
X0159992Y0043059D01*
X0159966Y0043127D01*
X0159942Y0043195D01*
X0159922Y0043265D01*
X0159906Y0043336D01*
X0159893Y0043408D01*
X0159884Y0043480D01*
X0159879Y0043552D01*
X0159877Y0043625D01*
X0159879Y0043690D01*
X0159885Y0043756D01*
X0159894Y0043820D01*
X0159907Y0043884D01*
X0159924Y0043948D01*
X0159945Y0044010D01*
X0159969Y0044071D01*
X0159997Y0044130D01*
X0160028Y0044188D01*
X0160062Y0044243D01*
X0160100Y0044297D01*
X0160140Y0044348D01*
X0160184Y0044397D01*
X0160230Y0044443D01*
X0160279Y0044487D01*
X0160330Y0044527D01*
X0160384Y0044565D01*
X0160440Y0044599D01*
X0160497Y0044630D01*
X0160556Y0044658D01*
X0160617Y0044682D01*
X0160679Y0044703D01*
X0160743Y0044720D01*
X0160807Y0044733D01*
X0160871Y0044742D01*
X0160937Y0044748D01*
X0161002Y0044750D01*
X0161067Y0044748D01*
X0161132Y0044743D01*
X0161197Y0044734D01*
X0161261Y0044722D01*
X0161324Y0044706D01*
X0161386Y0044687D01*
X0161448Y0044665D01*
X0161508Y0044639D01*
X0161566Y0044610D01*
X0161623Y0044578D01*
X0161678Y0044543D01*
X0161731Y0044505D01*
X0161782Y0044465D01*
X0161831Y0044421D01*
X0161877Y0044375D01*
X0162377Y0039225D02*
X0162377Y0037975D01*
X0162377Y0039225D02*
X0162375Y0039294D01*
X0162369Y0039363D01*
X0162360Y0039431D01*
X0162347Y0039498D01*
X0162330Y0039565D01*
X0162309Y0039631D01*
X0162285Y0039695D01*
X0162257Y0039758D01*
X0162226Y0039820D01*
X0162192Y0039880D01*
X0162154Y0039937D01*
X0162113Y0039993D01*
X0162070Y0040046D01*
X0162023Y0040097D01*
X0161974Y0040145D01*
X0161922Y0040190D01*
X0161867Y0040232D01*
X0161811Y0040271D01*
X0161752Y0040308D01*
X0161691Y0040340D01*
X0161629Y0040370D01*
X0161565Y0040396D01*
X0161500Y0040418D01*
X0161434Y0040437D01*
X0161367Y0040452D01*
X0161299Y0040463D01*
X0161230Y0040471D01*
X0161161Y0040475D01*
X0161093Y0040475D01*
X0161024Y0040471D01*
X0160955Y0040463D01*
X0160887Y0040452D01*
X0160820Y0040437D01*
X0160754Y0040418D01*
X0160689Y0040396D01*
X0160625Y0040370D01*
X0160563Y0040340D01*
X0160502Y0040308D01*
X0160443Y0040271D01*
X0160387Y0040232D01*
X0160332Y0040190D01*
X0160280Y0040145D01*
X0160231Y0040097D01*
X0160184Y0040046D01*
X0160141Y0039993D01*
X0160100Y0039937D01*
X0160062Y0039880D01*
X0160028Y0039820D01*
X0159997Y0039758D01*
X0159969Y0039695D01*
X0159945Y0039631D01*
X0159924Y0039565D01*
X0159907Y0039498D01*
X0159894Y0039431D01*
X0159885Y0039363D01*
X0159879Y0039294D01*
X0159877Y0039225D01*
X0159877Y0037975D01*
X0164377Y0037975D01*
X0163377Y0035621D02*
X0159877Y0035621D01*
X0163377Y0035621D02*
X0163437Y0035619D01*
X0163498Y0035614D01*
X0163557Y0035605D01*
X0163616Y0035592D01*
X0163675Y0035576D01*
X0163732Y0035556D01*
X0163787Y0035533D01*
X0163842Y0035506D01*
X0163894Y0035477D01*
X0163945Y0035444D01*
X0163994Y0035408D01*
X0164040Y0035370D01*
X0164084Y0035328D01*
X0164126Y0035284D01*
X0164164Y0035238D01*
X0164200Y0035189D01*
X0164233Y0035138D01*
X0164262Y0035086D01*
X0164289Y0035031D01*
X0164312Y0034976D01*
X0164332Y0034919D01*
X0164348Y0034860D01*
X0164361Y0034801D01*
X0164370Y0034742D01*
X0164375Y0034681D01*
X0164377Y0034621D01*
X0164377Y0034121D01*
X0120841Y0245506D02*
X0118341Y0245506D01*
X0119591Y0245506D02*
X0119591Y0250006D01*
X0118341Y0249006D01*
X0115316Y0250006D02*
X0115385Y0250004D01*
X0115454Y0249998D01*
X0115522Y0249989D01*
X0115589Y0249976D01*
X0115656Y0249959D01*
X0115722Y0249938D01*
X0115786Y0249914D01*
X0115849Y0249886D01*
X0115911Y0249855D01*
X0115971Y0249821D01*
X0116028Y0249783D01*
X0116084Y0249742D01*
X0116137Y0249699D01*
X0116188Y0249652D01*
X0116236Y0249603D01*
X0116281Y0249551D01*
X0116323Y0249496D01*
X0116362Y0249440D01*
X0116399Y0249381D01*
X0116431Y0249320D01*
X0116461Y0249258D01*
X0116487Y0249194D01*
X0116509Y0249129D01*
X0116528Y0249063D01*
X0116543Y0248996D01*
X0116554Y0248928D01*
X0116562Y0248859D01*
X0116566Y0248790D01*
X0116566Y0248722D01*
X0116562Y0248653D01*
X0116554Y0248584D01*
X0116543Y0248516D01*
X0116528Y0248449D01*
X0116509Y0248383D01*
X0116487Y0248318D01*
X0116461Y0248254D01*
X0116431Y0248192D01*
X0116399Y0248131D01*
X0116362Y0248072D01*
X0116323Y0248016D01*
X0116281Y0247961D01*
X0116236Y0247909D01*
X0116188Y0247860D01*
X0116137Y0247813D01*
X0116084Y0247770D01*
X0116028Y0247729D01*
X0115971Y0247691D01*
X0115911Y0247657D01*
X0115849Y0247626D01*
X0115786Y0247598D01*
X0115722Y0247574D01*
X0115656Y0247553D01*
X0115589Y0247536D01*
X0115522Y0247523D01*
X0115454Y0247514D01*
X0115385Y0247508D01*
X0115316Y0247506D01*
X0114066Y0247506D01*
X0114066Y0245506D02*
X0114066Y0250006D01*
X0115316Y0250006D01*
X0111711Y0250006D02*
X0111711Y0246506D01*
X0111709Y0246446D01*
X0111704Y0246385D01*
X0111695Y0246326D01*
X0111682Y0246267D01*
X0111666Y0246208D01*
X0111646Y0246151D01*
X0111623Y0246096D01*
X0111596Y0246041D01*
X0111567Y0245989D01*
X0111534Y0245938D01*
X0111498Y0245889D01*
X0111460Y0245843D01*
X0111418Y0245799D01*
X0111374Y0245757D01*
X0111328Y0245719D01*
X0111279Y0245683D01*
X0111228Y0245650D01*
X0111176Y0245621D01*
X0111121Y0245594D01*
X0111066Y0245571D01*
X0111009Y0245551D01*
X0110950Y0245535D01*
X0110891Y0245522D01*
X0110832Y0245513D01*
X0110771Y0245508D01*
X0110711Y0245506D01*
X0110211Y0245506D01*
D15*
X0122127Y0025000D02*
X0122127Y0002500D01*
X0132127Y0002500D02*
X0132127Y0025000D01*
X0142127Y0025000D02*
X0142127Y0002500D01*
X0152127Y0002500D02*
X0152127Y0025000D01*
D16*
X0152127Y0026500D03*
X0142127Y0026500D03*
X0132127Y0026500D03*
X0122127Y0026500D03*
D17*
X0122127Y0039500D03*
X0132127Y0039500D03*
X0142127Y0039500D03*
X0152127Y0039500D03*
D18*
X0157465Y0100966D02*
X0158687Y0101699D01*
X0157465Y0102433D01*
X0159665Y0102433D01*
X0159665Y0103342D02*
X0157465Y0104075D01*
X0159665Y0104809D01*
X0159115Y0104625D02*
X0159115Y0103525D01*
X0159665Y0105502D02*
X0157465Y0106969D01*
X0157953Y0107784D02*
X0157465Y0108395D01*
X0159665Y0108395D01*
X0159665Y0107784D02*
X0159665Y0109007D01*
X0159665Y0110555D02*
X0157465Y0111167D01*
X0157465Y0109944D01*
X0157709Y0109944D01*
X0158565Y0113327D02*
X0158647Y0113325D01*
X0158729Y0113320D01*
X0158811Y0113310D01*
X0158892Y0113297D01*
X0158973Y0113281D01*
X0159052Y0113260D01*
X0159131Y0113236D01*
X0159209Y0113209D01*
X0159285Y0113178D01*
X0159359Y0113144D01*
X0159359Y0113143D02*
X0159396Y0113128D01*
X0159432Y0113110D01*
X0159466Y0113089D01*
X0159498Y0113065D01*
X0159528Y0113038D01*
X0159555Y0113009D01*
X0159580Y0112978D01*
X0159602Y0112944D01*
X0159620Y0112909D01*
X0159636Y0112872D01*
X0159648Y0112834D01*
X0159657Y0112795D01*
X0159662Y0112755D01*
X0159664Y0112715D01*
X0159662Y0112675D01*
X0159657Y0112635D01*
X0159648Y0112596D01*
X0159636Y0112558D01*
X0159620Y0112521D01*
X0159602Y0112486D01*
X0159580Y0112452D01*
X0159555Y0112421D01*
X0159528Y0112392D01*
X0159498Y0112365D01*
X0159466Y0112341D01*
X0159432Y0112320D01*
X0159396Y0112302D01*
X0159359Y0112287D01*
X0159176Y0112227D02*
X0157953Y0113204D01*
X0157465Y0112715D02*
X0157467Y0112675D01*
X0157472Y0112635D01*
X0157481Y0112596D01*
X0157493Y0112558D01*
X0157509Y0112521D01*
X0157527Y0112486D01*
X0157549Y0112452D01*
X0157574Y0112421D01*
X0157601Y0112392D01*
X0157631Y0112365D01*
X0157663Y0112341D01*
X0157697Y0112320D01*
X0157733Y0112302D01*
X0157770Y0112287D01*
X0157465Y0112715D02*
X0157467Y0112755D01*
X0157472Y0112795D01*
X0157481Y0112834D01*
X0157493Y0112872D01*
X0157509Y0112909D01*
X0157527Y0112944D01*
X0157549Y0112978D01*
X0157574Y0113009D01*
X0157601Y0113038D01*
X0157631Y0113065D01*
X0157663Y0113089D01*
X0157697Y0113110D01*
X0157733Y0113128D01*
X0157770Y0113143D01*
X0157771Y0112287D02*
X0157845Y0112253D01*
X0157921Y0112222D01*
X0157999Y0112195D01*
X0158078Y0112171D01*
X0158157Y0112150D01*
X0158238Y0112134D01*
X0158319Y0112121D01*
X0158401Y0112111D01*
X0158483Y0112106D01*
X0158565Y0112104D01*
X0158565Y0113327D02*
X0158483Y0113325D01*
X0158401Y0113320D01*
X0158319Y0113310D01*
X0158238Y0113297D01*
X0158157Y0113281D01*
X0158078Y0113260D01*
X0157999Y0113236D01*
X0157921Y0113209D01*
X0157845Y0113178D01*
X0157771Y0113144D01*
X0158565Y0112104D02*
X0158647Y0112106D01*
X0158729Y0112111D01*
X0158811Y0112121D01*
X0158892Y0112134D01*
X0158973Y0112150D01*
X0159052Y0112171D01*
X0159131Y0112195D01*
X0159209Y0112222D01*
X0159285Y0112253D01*
X0159359Y0112287D01*
X0158198Y0114264D02*
X0158076Y0114264D01*
X0158198Y0114264D02*
X0158241Y0114266D01*
X0158283Y0114271D01*
X0158325Y0114281D01*
X0158365Y0114293D01*
X0158405Y0114310D01*
X0158443Y0114330D01*
X0158478Y0114352D01*
X0158512Y0114378D01*
X0158544Y0114407D01*
X0158573Y0114439D01*
X0158599Y0114473D01*
X0158621Y0114509D01*
X0158641Y0114546D01*
X0158658Y0114586D01*
X0158670Y0114626D01*
X0158680Y0114668D01*
X0158685Y0114710D01*
X0158687Y0114753D01*
X0158687Y0115487D01*
X0158076Y0115487D01*
X0158076Y0115486D02*
X0158028Y0115484D01*
X0157980Y0115478D01*
X0157933Y0115469D01*
X0157887Y0115456D01*
X0157842Y0115439D01*
X0157799Y0115419D01*
X0157757Y0115396D01*
X0157717Y0115369D01*
X0157679Y0115340D01*
X0157644Y0115307D01*
X0157611Y0115272D01*
X0157582Y0115234D01*
X0157555Y0115194D01*
X0157532Y0115152D01*
X0157512Y0115109D01*
X0157495Y0115064D01*
X0157482Y0115018D01*
X0157473Y0114971D01*
X0157467Y0114923D01*
X0157465Y0114875D01*
X0157467Y0114827D01*
X0157473Y0114779D01*
X0157482Y0114732D01*
X0157495Y0114686D01*
X0157512Y0114641D01*
X0157532Y0114598D01*
X0157555Y0114556D01*
X0157582Y0114516D01*
X0157611Y0114478D01*
X0157644Y0114443D01*
X0157679Y0114410D01*
X0157717Y0114381D01*
X0157757Y0114354D01*
X0157799Y0114331D01*
X0157842Y0114311D01*
X0157887Y0114294D01*
X0157933Y0114281D01*
X0157980Y0114272D01*
X0158028Y0114266D01*
X0158076Y0114264D01*
X0158687Y0115487D02*
X0158748Y0115485D01*
X0158810Y0115479D01*
X0158870Y0115470D01*
X0158930Y0115456D01*
X0158989Y0115439D01*
X0159047Y0115418D01*
X0159103Y0115394D01*
X0159158Y0115366D01*
X0159211Y0115335D01*
X0159262Y0115300D01*
X0159310Y0115263D01*
X0159356Y0115222D01*
X0159400Y0115178D01*
X0159441Y0115132D01*
X0159478Y0115084D01*
X0159513Y0115033D01*
X0159544Y0114980D01*
X0159572Y0114925D01*
X0159596Y0114869D01*
X0159617Y0114811D01*
X0159634Y0114752D01*
X0159648Y0114692D01*
X0159657Y0114632D01*
X0159663Y0114570D01*
X0159665Y0114509D01*
X0159665Y0106969D02*
X0157465Y0105502D01*
X0157465Y0100966D02*
X0159665Y0100966D01*
M02*
