%
M48
M72
T01C0.01181
T02C0.01378
T03C0.01575
T04C0.01969
T05C0.02165
T06C0.02559
T07C0.03150
T08C0.03543
T09C0.03937
T10C0.04000
T11C0.04331
T12C0.10827
%
T01
X71772Y67008
X76837Y80143
X81418Y82559
X177678Y126457
X181221Y126457
X184765Y126457
X188308Y126457
X109568Y210709
T02
X199528Y96142
T03
X197166Y76457
X189095Y76457
X181024Y76457
X146576Y65039
X122954Y108740
X70198Y87087
X103662Y150079
X103465Y155000
X107599Y169764
X103072Y187480
X200119Y138268
T04
X162717Y134331
X91851Y175669
X131221Y211102
X60355Y126457
X58387Y100866
X89883Y71339
T05
X80040Y121535
X80040Y131378
T06
X136143Y159921
X149922Y159921
X169607Y155984
X183387Y155984
X175513Y195354
X161733Y195354
T07
X152875Y136299
X152875Y128425
X152875Y120551
X145001Y120551
X137127Y120551
X137127Y128425
X145001Y128425
X145001Y136299
X137127Y136299
X113111Y107165
X102087Y107165
X86733Y96929
X81221Y96929
X102087Y86693
X113111Y86693
X138702Y76850
X138702Y65827
X159174Y65827
X159174Y76850
T08
X24922Y61496
X56418Y61496
T09
X171576Y105787
X177481Y105787
X183387Y105787
X189292Y105787
X189292Y111693
X183387Y111693
X177481Y111693
X171576Y111693
T10
X152127Y45000
X142127Y45000
X132127Y45000
X122127Y45000
X124961Y227756
X134961Y227756
X144961Y227756
X154961Y227756
X164961Y227756
X174961Y227756
X184961Y227756
X194961Y227756
X204961Y227756
X214961Y227756
X224961Y227756
X234961Y227756
X244961Y227756
X254961Y227756
X264961Y227756
X274961Y227756
X284961Y227756
X294961Y227756
X304961Y227756
X304961Y237756
X294961Y237756
X284961Y237756
X274961Y237756
X264961Y237756
X254961Y237756
X244961Y237756
X234961Y237756
X224961Y237756
X214961Y237756
X204961Y237756
X194961Y237756
X184961Y237756
X174961Y237756
X164961Y237756
X154961Y237756
X144961Y237756
X134961Y237756
X124961Y237756
X114961Y237756
X114961Y227756
T11
X48544Y131378
X48544Y117598
T12
X93820Y39843
X326103Y39843
X326103Y232756
X93820Y232756
M30
