G75*
%MOIN*%
%OFA0B0*%
%FSLAX25Y25*%
%IPPOS*%
%LPD*%
%AMOC8*
5,1,8,0,0,1.08239X$1,22.5*
%
%ADD10R,0.05918X0.06706*%
%ADD11OC8,0.06800*%
%ADD12C,0.06800*%
%ADD13R,0.06706X0.05918*%
%ADD14R,0.02965X0.05524*%
%ADD15R,0.05950X0.05950*%
%ADD16R,0.27178X0.27178*%
%ADD17C,0.07296*%
%ADD18R,0.01981X0.08674*%
%ADD19R,0.06737X0.06737*%
%ADD20C,0.07400*%
%ADD21C,0.06400*%
%ADD22C,0.05800*%
%ADD23C,0.24422*%
D10*
X0066851Y0093583D03*
X0074331Y0093583D03*
X0074331Y0101654D03*
X0066851Y0101654D03*
X0117639Y0175669D03*
X0125119Y0175669D03*
X0096969Y0189646D03*
X0089489Y0189646D03*
X0115670Y0208937D03*
X0123150Y0208937D03*
X0123150Y0217008D03*
X0115670Y0217008D03*
D11*
X0114961Y0227756D03*
X0124961Y0227756D03*
X0134961Y0227756D03*
X0144961Y0227756D03*
X0154961Y0227756D03*
X0164961Y0227756D03*
X0174961Y0227756D03*
X0184961Y0227756D03*
X0194961Y0227756D03*
X0204961Y0227756D03*
X0214961Y0227756D03*
X0224961Y0227756D03*
X0234961Y0227756D03*
X0244961Y0227756D03*
X0254961Y0227756D03*
X0264961Y0227756D03*
X0274961Y0227756D03*
X0284961Y0227756D03*
X0294961Y0227756D03*
X0304961Y0227756D03*
X0304961Y0237756D03*
X0294961Y0237756D03*
X0284961Y0237756D03*
X0274961Y0237756D03*
X0264961Y0237756D03*
X0254961Y0237756D03*
X0244961Y0237756D03*
X0234961Y0237756D03*
X0224961Y0237756D03*
X0214961Y0237756D03*
X0204961Y0237756D03*
X0194961Y0237756D03*
X0184961Y0237756D03*
X0174961Y0237756D03*
X0164961Y0237756D03*
X0154961Y0237756D03*
X0144961Y0237756D03*
X0134961Y0237756D03*
X0124961Y0237756D03*
X0114961Y0237756D03*
D12*
X0122127Y0048000D02*
X0122127Y0042000D01*
X0132127Y0042000D02*
X0132127Y0048000D01*
X0142127Y0048000D02*
X0142127Y0042000D01*
X0152127Y0042000D02*
X0152127Y0048000D01*
D13*
X0081812Y0070354D03*
X0081812Y0077835D03*
X0071772Y0079016D03*
X0071772Y0071535D03*
X0131812Y0185709D03*
X0131812Y0193189D03*
D14*
X0125119Y0194764D03*
X0121379Y0194764D03*
X0117639Y0194764D03*
X0117639Y0184134D03*
X0121379Y0184134D03*
X0125119Y0184134D03*
D15*
X0137127Y0136299D03*
X0145001Y0136299D03*
X0145001Y0128425D03*
X0137127Y0128425D03*
X0137127Y0120551D03*
X0145001Y0120551D03*
X0152875Y0120551D03*
X0152875Y0128425D03*
X0152875Y0136299D03*
X0113111Y0107165D03*
X0102087Y0107165D03*
X0086733Y0096929D03*
X0081221Y0096929D03*
X0102087Y0086693D03*
X0113111Y0086693D03*
X0138702Y0076850D03*
X0138702Y0065827D03*
X0159174Y0065827D03*
X0159174Y0076850D03*
D16*
X0145001Y0128425D03*
D17*
X0051792Y0131378D02*
X0045296Y0131378D01*
X0045296Y0117598D02*
X0051792Y0117598D01*
D18*
X0103662Y0179606D03*
X0105631Y0179606D03*
X0107599Y0179606D03*
X0109568Y0179606D03*
X0111536Y0179606D03*
X0111536Y0199291D03*
X0109568Y0199291D03*
X0107599Y0199291D03*
X0105631Y0199291D03*
X0103662Y0199291D03*
D19*
X0171576Y0111693D03*
X0177481Y0111693D03*
X0183387Y0111693D03*
X0189292Y0111693D03*
X0189292Y0105787D03*
X0183387Y0105787D03*
X0177481Y0105787D03*
X0171576Y0105787D03*
D20*
X0024922Y0061496D03*
X0056418Y0061496D03*
D21*
X0169607Y0155984D03*
X0183387Y0155984D03*
X0149922Y0159921D03*
X0136143Y0159921D03*
X0161733Y0195354D03*
X0175513Y0195354D03*
D22*
X0080040Y0131378D03*
X0080040Y0121535D03*
D23*
X0093820Y0039843D03*
X0326103Y0039843D03*
X0326103Y0232756D03*
X0093820Y0232756D03*
M02*
